<?xml version="1.0" encoding="utf-8"?>
<!-- Generator: Adobe Illustrator 24.2.1, SVG Export Plug-In . SVG Version: 6.00 Build 0)  -->
<svg version="1.1" id="Layer_1" xmlns="http://www.w3.org/2000/svg" xmlns:xlink="http://www.w3.org/1999/xlink" x="0px" y="0px"
	 viewBox="0 0 64 57.1" style="enable-background:new 0 0 64 57.1;" xml:space="preserve">
<style type="text/css">
	.st0{fill:#607DC6;}
	.st1{fill:#12214F;}
</style>
<path class="st0" d="M110.7-279.4"/>
<path class="st1" d="M63.3,29.8c-0.4-0.4-1-0.7-1.6-0.8c-0.1,0-0.2,0-0.4,0c-0.4-0.1-0.6-0.4-0.6-1.5V21c0-4.8-1.8-6.3-6.4-6.3
	c-3.7,0-6.4,1.6-6.4,4.2c0,1.5,0.8,2.6,2.4,2.6c1.3,0,2.7-1,2.7-2.4c0-0.1,0-0.3,0-0.4c-0.1-0.6-0.6-1.1-1.2-1.2
	c-0.1-0.2-0.1,0-0.1-0.2c0-0.9,0.9-1.2,2-1.1c1.1,0.1,2,0.7,2,4.3v1.3c0,0.6-0.2,1-0.8,1h-0.3c-0.8,0-1.6,0-2.4,0.1h0
	c-2.2,0-4.7,0.3-6.2,1.9c-1,1-1.4,2.5-1.4,4.3c0,2.5-0.1,4.9-0.5,7.4l0,0c0,0,0,0.1-0.1,0.1c-0.7,2-2.1,3-4,3c-1.5,0-2.4-0.5-3-1.6
	c-0.5-1-0.8-2.5-0.8-4.7c0,0,0-0.1,0-0.1V23c0.2-0.3,0.5-0.5,0.8-0.5h7.9c0.5,0,0.9-0.4,0.9-0.9c0,0,0,0,0,0
	c-0.1-4.3-2.3-6.5-6.5-6.5c-0.7,0-1.3,0.1-2,0.2c0,0,0,0,0,0c-4.5,0.7-5.8,4-6.2,6.1c-0.6,0.2-1.1,0.5-1.6,0.9
	c-0.9,0.9-1.2,2.2-1,3.8c0.2,1.3,0.1,2-0.5,2.6c-0.6,0.5-1.3,0.8-2,0.8h-2.2c-0.4,0-0.6-0.3-0.6-0.6c0,0,0,0,0,0v-6.9
	c0-2.7,1.4-5.2,2.9-5.2c0.5,0,0.6,0.2,0.6,0.4c0,0.1,0,0.3-0.1,0.4c-0.7,0-1.2,0.6-1.2,1.2c0,1.7,0.9,2.7,2.6,2.7
	c1.6,0,2.6-1.1,2.6-3c0-2.2-1.4-3.6-3.6-3.6c-1.3,0-2.5,0.5-3.3,1.4c-0.1,0.1-0.2,0.1-0.3,0.1c-0.1,0-0.2-0.1-0.2-0.3V16
	c0-0.5-0.4-0.9-0.9-0.9l0,0h-3.8c0,0,0,0-0.1,0h-2.8c-0.3,0-0.6,0.3-0.6,0.6c0,0,0,0,0,0V16c0,0.3,0.3,0.6,0.6,0.6c0,0,0,0,0,0h1.9
	c0.3,0.1,0.5,0.3,0.5,0.6v11.6c0,0.4-0.3,0.6-0.6,0.7c0,0,0,0,0,0H16c-1.1,0-1.7,0.1-2.3,0.7c-0.5,0.5-0.8,1.3-0.8,2.1V36
	c-0.1,0.9,0.2,1.7,0.8,2.3c0.5,0.5,1.2,0.8,2,0.8h0.1c1.8,0,2.6-1.2,2.6-2.3c0-0.4,0-0.9,0-1.4c-0.1-2,0.5-2.3,1-2.3
	c0.3,0,0.6,0,0.8,0.2c0.2,0.2,0.3,0.7,0.3,1.4c0,0.1,0,0.2,0,0.3V35c0,3.6,1.1,4,2.3,4.1c0.6,0.1,1.3-0.1,1.8-0.5
	c0.2-0.2,0.3-0.4,0.4-0.6c0.4-0.7,0.4-1.6,0.4-2.6l0,0c0.1-1.2,0.2-2.1,1.1-2.1c0.9,0,0.8,1.6,0.8,1.6L27.1,38
	c0,0.3-0.1,0.6-0.1,0.9c0,0,0,0.1,0,0.1c0,0,0,0.1,0,0.1c0,0.1-0.1,0.1-0.1,0.2l-0.1,0.1c0,0-0.1,0-0.1,0.1c0,0,0,0-0.1,0
	c0,0-0.1,0-0.1,0.1c0,0-0.1,0-0.1,0L9.4,39.6H9c-0.4,0-0.7-0.1-1.1-0.3l0,0c-0.2-0.1-0.4-0.2-0.6-0.3c-0.5-0.4-0.8-0.8-1.1-1.4
	c-0.5-1-0.8-2.5-0.8-4.7c0-0.1,0-0.2-0.1-0.2V22.2c0-4.8,1.1-6.5,3.5-6.5c1.4,0,2,0.7,2,1.6c0,0.2,0,0.4-0.1,0.6
	c0,0.2-0.2,0.4-0.4,0.4h-0.3c-0.2,0-0.4,0.2-0.4,0.4c0,0.3-0.1,0.5-0.1,0.8c0,1.5,1,2.3,2.4,2.3s2.3-0.9,2.3-2.7
	c0-2.5-1.9-4.1-5.6-4.1c-0.4,0-0.8,0-1.2,0.1l0,0c0,0-0.1,0-0.1,0c-0.1,0-0.3,0-0.4,0l-0.2,0c0,0-0.1,0-0.1,0c-0.1,0-0.1,0-0.2,0
	l-0.3,0.1c-0.1,0-0.1,0-0.2,0h0c-0.1,0-0.2,0.1-0.4,0.1l-0.1,0c-0.2,0-0.3,0.1-0.5,0.2h0l0,0H5l-0.1,0c-0.1,0-0.1,0.1-0.2,0.1
	l-0.1,0.1c-0.2,0.1-0.3,0.1-0.5,0.2L3.9,16c-0.3,0.2-0.6,0.4-0.9,0.7l0,0c-2.6,2.2-2.9,5.8-3,6.4c0,0,0,0.1,0,0.1v9.2l0,0v0.4
	c0,0.2,0,0.3,0,0.5c0,0.2,0,0.2,0,0.4c0.3,4.6,3.2,7.3,7.9,7.3h19.1c0.1,0,0.1,0,0.2,0c0.2,0,0.4-0.1,0.6-0.2l0,0c0,0,0,0,0.1,0
	c0,0,0,0,0,0c0.2-0.1,0.4-0.3,0.5-0.5c0-0.1,0.1-0.1,0.1-0.2l0.1-0.1c0-0.1,0.1-0.2,0.1-0.4s0-0.2,0.1-0.3c0.1-0.4,0.1-0.7,0.1-1.1
	v-2.6c0-0.1,0-0.1,0-0.2c0-0.5,0.2-3.7-2.6-3.7s-2.6,3.1-2.6,3.5l0,0c0,1,0.1,2-0.3,2.3c-0.3,0.2-0.6,0.2-0.9,0.1
	c-0.4-0.2-0.6-1.1-0.6-2.7v-0.1c0,0,0-0.1,0-0.1c0-0.4,0.1-1.7-0.7-2.5c-0.5-0.5-1.2-0.7-1.9-0.7c-1.2,0-2.6,0.8-2.5,3.9
	c0,0.4,0,0.9,0,1.3c0,0.3-0.1,0.8-1.1,0.8c-0.3,0-0.7-0.1-0.9-0.3c-0.3-0.3-0.4-0.8-0.3-1.2v-3.7c0-0.3,0.1-0.6,0.3-0.9
	c0.4-0.3,0.8-0.4,1.3-0.4h9.8c0.2,0,0.5,0,0.7,0c1,0.1,1.9-0.3,2.5-1.1c0.9-0.9,1.2-2.3,1-4c-0.2-1.1,0-2,0.5-2.5
	c0.1-0.1,0.2-0.2,0.4-0.3v9.6l0,0.6c0,5.2,2.8,8,7.9,8c3.7,0,5.9-1.5,6.8-4.7c0,0,0,0,0-0.1c0-0.1,0-0.1,0.1-0.2c0-0.1,0-0.1,0-0.2
	l0.1-0.3c0.3-2.3,0.5-4.6,0.4-6.9c0-1.4,0.3-2.5,1-3.2c0.1-0.1,0.3-0.3,0.5-0.4c-0.3,0.6-0.4,1.2-0.4,1.8c0,3.1,2.5,4.1,4.9,4.1
	c1.2,0,2.4-0.4,3.4-1.2c0.5-0.4,1,0,1.3,0.2c0.7,0.6,2,1,3.3,0.9c0.3,0,0.6,0,0.9-0.1c0.2,0,1,0,1.3,0.3c0.3,0.2,0.4,0.6,0.3,0.9
	c-0.1,1.3-4.5,1.2-7.3,1.1c-2.8-0.1-4.8,0-6,0.3c-1.1,0.3-1.7,1.4-1.4,2.5c0.2,0.7,0.7,1.2,1.4,1.4c0.6,0.2,2.1,0.2,5.3,0.1
	c1.7,0,3.4-0.1,4.2,0c0.4,0,1.6,0.2,2.1,0.7c0.2,0.2,0.3,0.6,0.2,0.9v0.1c0,0.3-0.5,0.8-2,0.8h-9.3c-0.3,0-0.4,0.3-0.4,0.5v0.6
	c0,0.2,0.2,0.4,0.4,0.4c0,0,0,0,0,0h9.4c1.3,0,2.3-0.3,2.9-0.9c0.3-0.3,0.5-0.8,0.6-1.3c0.1-0.7-0.1-1.4-0.6-2c-1-1.2-3-1.3-3.1-1.3
	c-0.8-0.1-2.5,0-4.3,0s-4.4,0.1-4.8,0c-0.3-0.1-0.5-0.3-0.4-0.6c0-0.2,0.2-0.3,0.4-0.4c1.1-0.2,2.2-0.3,3.4-0.3c0.7,0,1.4,0,2.2,0.1
	c4,0.1,8.5,0.3,8.8-2.6C64.1,31.2,63.9,30.4,63.3,29.8z M38.9,15.9c1.8,0,2.3,1.4,2.3,4.9c0,0.5-0.4,0.9-0.9,0.9c0,0,0,0,0,0H37
	c-0.5,0-0.9-0.4-0.9-0.9c0,0,0,0,0,0C36.3,17.2,37.2,15.9,38.9,15.9z M55.8,26.5c-0.1,1.8-0.7,2.5-1.9,2.8c-0.9,0.2-1.4-0.4-1.4-2.2
	c0-2.1,0.5-3,2.9-3h0.4L55.8,26.5z"/>
<path class="st1" d="M48.6,31.6c0,0.7-0.5,1.2-1.2,1.2c-0.7,0-1.2-0.5-1.2-1.2c0-0.7,0.5-1.2,1.2-1.2c0,0,0,0,0,0
	C48.1,30.3,48.6,30.9,48.6,31.6C48.6,31.6,48.6,31.6,48.6,31.6z"/>
<path class="st1" d="M-55.4,9.8V10C-55.4,9.9-55.4,9.8-55.4,9.8z"/>
</svg>
