<?xml version="1.0" encoding="utf-8"?>
<!-- Generator: Adobe Illustrator 24.2.1, SVG Export Plug-In . SVG Version: 6.00 Build 0)  -->
<svg version="1.1" id="Layer_1" xmlns="http://www.w3.org/2000/svg" xmlns:xlink="http://www.w3.org/1999/xlink" x="0px" y="0px"
	 viewBox="0 0 114 114" style="enable-background:new 0 0 114 114;" xml:space="preserve">
<style type="text/css">
	.st0{fill:#212B4D;}
	.st1{fill:#D4A0AF;}
</style>
<g>
	<circle id="Ellipse_35_1_" class="st0" cx="57" cy="57" r="57"/>
	<path class="st0" d="M76.6,57c0,1.3-1.1,2.3-2.4,2.3H59.3v14.9c0,1.3-1,2.4-2.3,2.4c-1.3,0-2.4-1.1-2.4-2.4V59.3H39.8
		c-1.3,0-2.4-1-2.4-2.3s1.1-2.4,2.4-2.4h14.8V39.8c0-1.3,1.1-2.4,2.4-2.4c1.3,0,2.3,1.1,2.3,2.4v14.8h14.9
		C75.6,54.6,76.6,55.7,76.6,57z"/>
	<g>
		<path class="st1" d="M57,83.8c-2.6,0-4.7-2.1-4.7-4.7V61.7H34.9c-2.6,0-4.7-2.1-4.7-4.7s2.1-4.7,4.7-4.7h17.3V35
			c0-2.6,2.1-4.7,4.7-4.7c2.6,0,4.7,2.1,4.7,4.7v17.3h17.3c2.6,0,4.7,2.1,4.7,4.7s-2.1,4.7-4.7,4.7H61.7V79
			C61.7,81.7,59.6,83.8,57,83.8z"/>
		<path class="st1" d="M83.1,57c0,2.2-1.8,4-4,4H61v18c0,2.2-1.8,4-4,4c-2.2,0-4-1.8-4-4V61H34.9c-2.2,0-4-1.8-4-4s1.8-4,4-4H53V35
			c0-2.2,1.8-4,4-4c2.2,0,4,1.8,4,4v18h18C81.3,53,83.1,54.8,83.1,57z"/>
	</g>
	<g>
		<g>
			<path class="st0" d="M75.6,57c0,1.1-0.9,1.9-1.9,1.9H58.9v20.1c0,1.1-0.9,1.9-1.9,1.9c-1.1,0-1.9-0.9-1.9-1.9V59H34.9
				C33.9,59,33,58.1,33,57c0-1.1,0.9-1.9,1.9-1.9h20.1V35c0-1.1,0.9-1.9,1.9-1.9c1.1,0,1.9,0.9,1.9,1.9v20.1h14.7
				C74.7,55.1,75.6,56,75.6,57z"/>
		</g>
		<circle class="st0" cx="79" cy="57" r="2"/>
	</g>
</g>
</svg>
