<?xml version="1.0" encoding="utf-8"?>
<!-- Generator: Adobe Illustrator 24.2.1, SVG Export Plug-In . SVG Version: 6.00 Build 0)  -->
<svg version="1.1" id="Layer_1" xmlns="http://www.w3.org/2000/svg" xmlns:xlink="http://www.w3.org/1999/xlink" x="0px" y="0px"
	 viewBox="0 0 127 127" style="enable-background:new 0 0 127 127;" xml:space="preserve">
<style type="text/css">
	.st0{fill:#212B4D;}
	.st1{fill:#D4A0AF;}
</style>
<circle class="st0" cx="63.5" cy="63.5" r="63.5"/>
<path class="st1" d="M41.5,92.2c-3.7,0-6.7-3-6.7-6.7c0-1.2,0.3-2.4,0.9-3.4c-1.2-2.1-1.2-4.7,0-6.8c-0.6-1-0.9-2.2-0.9-3.4
	c0-3.7,3-6.6,6.7-6.7H42l-6.2-6.2c-1.3-1.3-1.3-3.4,0-4.7c0,0,0,0,0,0l8.5-8.5c0.5-0.5,1.1-0.8,1.8-0.9l9.5-1.7
	c0.9,0.1,1.7,0.4,2.5,0.8c0.1,0.1,0.3,0.3,0.4,0.4l1.9-0.5l0,0c-1,0.1-2.1-0.3-2.8-1.1c-0.6-0.7-0.8-1.6-0.7-2.5
	c0.5-2.9,2.8-5.1,5.8-5.5c0.3,0,0.5,0,0.8,0c3.7,0,6.7,3,6.7,6.7c0,0.7-0.1,1.3-0.3,1.9c0.4-0.2,0.8-0.2,1.3-0.2h0.2L81,45
	c0.7,0.1,1.3,0.4,1.7,0.9l8.4,8.5c1.3,1.3,1.3,3.4,0,4.7c0,0,0,0,0,0l-6.8,6.8c-0.6,0.6-1.5,1-2.3,1H82v15.3c0,0.9-0.4,1.7-1,2.3
	l-6.8,6.8c-0.6,0.6-1.5,1-2.3,1L41.5,92.2z M68.7,85.6v-3.5c0-1.8,1.5-3.3,3.3-3.3h0h3.5V61.5l-1.1-1.1c-1.2-1.2-1.2-3.2,0-4.4
	c0,0,0,0,0,0c0.6-0.7,1.5-1.2,2.5-1.2c0.8,0,1.6,0.3,2.2,0.9l3.1,3.1l2.1-2.1l-5.4-5.4l-5.2-1c-2.8,5.6-9.7,7.8-15.3,4.9
	c-2.1-1.1-3.9-2.8-4.9-4.9l-5.2,1l-5.4,5.4l2.1,2.1l3.9-3.9l1.5-0.2c0.8,0,1.6,0.3,2.2,0.9c1.4,1.1,1.6,3.2,0.4,4.5
	c0,0-0.1,0.1-0.1,0.1l-1.2,1.2v3.8h8.6c2.1,0,4.1,1,5.4,2.7c1.1,1.4,1.5,3.2,1.2,4.9c-0.1,0.8-0.4,1.7-0.8,2.4
	c0.8,1.3,1.1,2.9,0.8,4.4c-0.1,0.8-0.4,1.6-0.8,2.4c0.5,0.8,0.8,1.6,0.9,2.5c0.1,0.3,0.1,0.7,0.1,1L68.7,85.6z M41.4,85.5l18.7,0.2
	L41.4,85.5C41.4,85.5,41.4,85.5,41.4,85.5z M41.5,78.7c-0.1,0-0.1,0.1-0.2,0.1l18.7,0.1L41.5,78.7z M41.5,71.9
	c-0.1,0-0.1,0.1-0.2,0.1l18.7,0.1L41.5,71.9z"/>
<path class="st0" d="M89.5,56.1L81,47.7c-0.1-0.1-0.3-0.2-0.4-0.2l-9.3-1.7c-0.5-0.1-0.9,0.2-1,0.7c0,0,0,0,0,0c0,0,0,0.1,0,0.2
	c0,0.3,0,0.5-0.1,0.8l-5.8-1.5v-0.3c2.3-0.5,3.8-2.7,3.3-5c-0.5-2.3-2.7-3.8-5-3.3c-1.7,0.3-3,1.7-3.3,3.4c-0.1,0.3,0.2,0.6,0.5,0.7
	c0,0,0.1,0,0.1,0h0.5c0.3,0,0.5-0.2,0.6-0.5c0.3-1.4,1.6-2.3,3-2c1.4,0.3,2.3,1.6,2,3c-0.2,1.2-1.3,2.1-2.5,2.1
	c-0.5,0-0.9,0.4-0.9,0.8v1l-5.9,1.5c0-0.3-0.1-0.5-0.1-0.8c0-0.3-0.1-0.5-0.3-0.7c-0.2-0.2-0.5-0.2-0.7-0.2l-9.3,1.7
	c-0.2,0-0.3,0.1-0.4,0.2l-8.5,8.5c-0.3,0.3-0.3,0.9,0,1.2l6.7,6.8c0.3,0.3,0.9,0.3,1.2,0l1.9-1.9v5.6h-5.9c-2.3,0-4.2,1.9-4.2,4.2
	c0,1.3,0.6,2.6,1.7,3.4c-1.9,1.4-2.3,4-0.9,5.9c0,0,0,0,0,0c0.3,0.4,0.6,0.7,0.9,0.9c-1.9,1.4-2.3,4-0.9,5.9
	c0.8,1.1,2.1,1.7,3.4,1.7H72c0.2,0,0.4-0.1,0.6-0.2l6.8-6.8c0.2-0.2,0.2-0.4,0.2-0.6l0,0v-20l1.9,1.9c0.3,0.3,0.9,0.3,1.2,0
	c0,0,0,0,0,0l6.8-6.8C89.8,57,89.8,56.5,89.5,56.1z M63.6,47.5l5.6,1.3c0.2,0.1,0.3,0.3,0.3,0.5c0,0,0,0.1,0,0.1
	c-2.4,3.2-6.9,4-10.2,1.6c-0.6-0.4-1.1-1-1.6-1.6c-0.1-0.2-0.1-0.4,0.1-0.5c0,0,0.1,0,0.1-0.1l5.5-1.3
	C63.5,47.5,63.5,47.5,63.6,47.5z M38.9,71.8c0.1-1.3,1.3-2.3,2.6-2.3h18.5c1.3,0,2.4,1,2.6,2.3c0.1,1.4-0.9,2.6-2.3,2.7
	c-0.1,0-0.1,0-0.2,0H41.5c-1.4,0-2.5-1.1-2.5-2.5C38.9,71.9,38.9,71.8,38.9,71.8z M38.9,78.6c0.1-1.3,1.3-2.3,2.6-2.4h18.5
	c1.3,0,2.4,1,2.6,2.4c0.1,1.4-0.9,2.6-2.3,2.7c-0.1,0-0.1,0-0.2,0H41.5c-1.4,0-2.5-1.1-2.5-2.5C38.9,78.7,38.9,78.6,38.9,78.6z
	 M60.1,88.1H41.5c-1.3,0-2.4-1-2.6-2.3c-0.1-1.4,0.9-2.6,2.3-2.7c0.1,0,0.1,0,0.2,0h18.6c1.4,0,2.5,1.1,2.5,2.5c0,0.1,0,0.1,0,0.2
	C62.5,87,61.4,88.1,60.1,88.1z M72.8,86.3v-3c0-0.1,0.1-0.2,0.2-0.2h3c0.1,0,0.2,0.1,0.2,0.3c0,0.1,0,0.1-0.1,0.2l-3,3
	c-0.1,0.1-0.2,0.1-0.3,0C72.8,86.4,72.8,86.4,72.8,86.3z M81.5,61.6l-4.2-4.2c-0.3-0.3-0.7-0.3-0.9,0c0,0,0,0,0,0l-0.3,0.3
	c-0.3,0.3-0.3,0.7,0,0.9c0,0,0,0,0,0l1.8,1.8v20.3c0,0.3-0.2,0.6-0.6,0.6H72c-0.5,0-0.8,0.4-0.8,0.8v5.4c0,0.3-0.2,0.6-0.5,0.6h0
	h-7.1c1.4-1.8,1.1-4.5-0.8-5.9l-0.1-0.1c1.9-1.4,2.3-4,0.9-5.9c0,0,0,0,0,0c-0.3-0.4-0.6-0.7-0.9-0.9c1.9-1.4,2.3-4,0.9-5.9
	c-0.8-1.1-2.1-1.7-3.4-1.7h-11v-7.2l1.8-1.8c0.2-0.2,0.3-0.6,0-0.9c0,0,0,0,0,0l-0.3-0.3c-0.2-0.2-0.6-0.3-0.9,0c0,0,0,0,0,0l-4.1,4
	c-0.4,0.4-1.1,0.4-1.5,0c0,0,0,0,0,0l-4-4.1c-0.4-0.4-0.4-1.1,0-1.5c0,0,0,0,0,0l6.7-6.7c0.1-0.1,0.3-0.2,0.5-0.3l6.9-1.2
	c0.5-0.1,1,0.2,1.1,0.7c1.8,4.5,6.8,6.8,11.4,5c2.3-0.9,4.1-2.6,5-4.9c0.2-0.6,0.8-1,1.4-0.8l6.6,1.2c0.2,0,0.5,0.2,0.7,0.3l6.7,6.7
	c0.4,0.4,0.4,1,0,1.4l-4.2,4.2C82.5,62,81.9,62,81.5,61.6C81.5,61.7,81.5,61.7,81.5,61.6z"/>
<path class="st1" d="M41.5,75.3c-1.8,0-3.3-1.5-3.3-3.3c0-1.8,1.5-3.3,3.3-3.3c0,0,0,0,0,0h14.4c1.8,0,3.3,1.5,3.3,3.3
	c0,1.8-1.5,3.3-3.3,3.3H41.5z"/>
<path class="st0" d="M41.5,71.1h14.4c0.5,0,0.8,0.4,0.8,0.8l0,0c0,0.5-0.4,0.8-0.8,0.8H41.5c-0.5,0-0.8-0.4-0.8-0.8l0,0
	C40.6,71.5,41,71.1,41.5,71.1z"/>
<path class="st1" d="M59.2,75.3c-1.8,0-3.3-1.5-3.3-3.3c0-1.8,1.5-3.3,3.3-3.3c1.8,0,3.3,1.5,3.3,3.3C62.6,73.8,61.1,75.3,59.2,75.3
	z"/>
<circle class="st0" cx="59.2" cy="72" r="0.9"/>
<path class="st1" d="M41.5,82.1c-1.8,0-3.3-1.5-3.3-3.3c0-1.8,1.5-3.3,3.3-3.3h14.4c1.8,0,3.3,1.5,3.3,3.3c0,1.8-1.5,3.3-3.3,3.3
	H41.5z"/>
<path class="st0" d="M41.5,77.9h14.4c0.5,0,0.8,0.4,0.8,0.8l0,0c0,0.5-0.4,0.8-0.8,0.8H41.5c-0.5,0-0.8-0.4-0.8-0.8l0,0
	C40.6,78.3,41,77.9,41.5,77.9z"/>
<path class="st1" d="M59.2,82.1c-1.8,0-3.3-1.5-3.3-3.3c0-1.8,1.5-3.3,3.3-3.3c1.8,0,3.3,1.5,3.3,3.3C62.6,80.6,61.1,82.1,59.2,82.1
	C59.2,82.1,59.2,82.1,59.2,82.1z"/>
<circle class="st0" cx="59.2" cy="78.8" r="0.9"/>
<path class="st1" d="M41.5,88.8c-1.8,0-3.3-1.5-3.3-3.3c0-1.8,1.5-3.3,3.3-3.3c0,0,0,0,0,0h14.4c1.8,0,3.3,1.5,3.3,3.3
	c0,1.8-1.5,3.3-3.3,3.3H41.5z"/>
<path class="st0" d="M41.5,84.7h14.4c0.5,0,0.8,0.4,0.8,0.8l0,0c0,0.5-0.4,0.8-0.8,0.8H41.5c-0.5,0-0.8-0.4-0.8-0.8l0,0
	C40.6,85.1,41,84.7,41.5,84.7z"/>
<path class="st1" d="M59.2,88.9c-1.8,0-3.3-1.5-3.4-3.3c0-1.8,1.5-3.3,3.3-3.4c1.8,0,3.3,1.5,3.4,3.3c0,0,0,0,0,0
	C62.5,87.3,61,88.8,59.2,88.9z"/>
<circle class="st0" cx="59.2" cy="85.5" r="0.9"/>
<polygon class="st1" points="41.9,57.2 51.8,66.8 61.2,66.8 64.7,68.7 65.7,77.9 65.1,82.2 65.7,87.2 71.1,87.5 71.1,80.5 
	76.3,79.6 76.1,58.6 82.8,61.6 87,56.1 76.3,46.3 53.7,46.9 41.4,54.6 "/>
<path class="st1" d="M57.6,44.1c-0.9-1.8-0.9-3.9,0-5.7l2.1,3.7l2,3.4L57.6,44.1z"/>
<path class="st0" d="M89.5,56.1l-8.5-8.5c-0.1-0.1-0.3-0.2-0.4-0.2l-9.3-1.7c-0.5-0.1-0.9,0.2-1,0.7c0,0,0,0.1,0,0.2
	c0,0.3,0,0.5-0.1,0.8l-5.9-1.5v-0.3c2.3-0.5,3.8-2.7,3.3-5c-0.5-2.3-2.7-3.8-5-3.3c-1.7,0.3-3,1.7-3.3,3.4c-0.1,0.3,0.2,0.6,0.5,0.7
	c0,0,0.1,0,0.1,0h0.5c0.3,0,0.6-0.2,0.6-0.5c0.3-1.4,1.6-2.3,3-2c1.4,0.3,2.3,1.6,2,3c-0.2,1.2-1.3,2.1-2.5,2.1
	c-0.5,0-0.8,0.4-0.8,0.8v1l-5.9,1.5c0-0.3-0.1-0.5-0.1-0.8c0-0.3-0.1-0.5-0.3-0.7c-0.2-0.2-0.4-0.2-0.7-0.2l-9.3,1.7
	c-0.2,0-0.3,0.1-0.4,0.2l-8.5,8.5c-0.3,0.3-0.3,0.9,0,1.2l6.8,6.8c0.3,0.3,0.9,0.3,1.2,0l1.9-1.9v5.6h-5.9c-2.3,0-4.2,1.9-4.2,4.2
	c0,1.3,0.6,2.6,1.7,3.4c-1.9,1.4-2.3,4-0.9,5.9c0,0,0,0,0,0c0.3,0.3,0.6,0.7,0.9,0.9c-1.9,1.4-2.3,4-0.9,5.9
	c0.8,1.1,2.1,1.7,3.4,1.7H72c0.2,0,0.4-0.1,0.6-0.2l6.8-6.8c0.2-0.2,0.2-0.4,0.2-0.6l0,0v-20l1.9,1.9c0.3,0.3,0.9,0.3,1.2,0l6.8-6.8
	C89.9,57,89.9,56.5,89.5,56.1z M63.6,47.5l5.6,1.3c0.2,0.1,0.3,0.3,0.3,0.5c0,0,0,0.1,0,0.1c-2.4,3.3-7,4-10.2,1.6
	c-0.6-0.4-1.1-1-1.6-1.6c-0.1-0.2-0.1-0.4,0.1-0.5c0,0,0.1,0,0.1,0l5.6-1.3C63.5,47.5,63.6,47.5,63.6,47.5z M39,71.8
	c0.1-1.3,1.3-2.3,2.6-2.3h18.5c1.3,0,2.4,1,2.6,2.3c0.1,1.4-1,2.6-2.4,2.7c-0.1,0-0.1,0-0.2,0H41.5c-1.4,0-2.5-1.1-2.5-2.6
	C39,71.9,39,71.8,39,71.8z M39,78.6c0.1-1.3,1.3-2.3,2.6-2.4h18.5c1.3,0,2.4,1,2.6,2.4c0.1,1.4-0.9,2.6-2.3,2.7c-0.1,0-0.1,0-0.2,0
	H41.5c-1.4,0-2.5-1.1-2.5-2.6C39,78.7,39,78.6,39,78.6z M60.1,88.1H41.6c-1.3,0-2.4-1-2.6-2.3c-0.1-1.4,1-2.6,2.4-2.7
	c0.1,0,0.1,0,0.2,0h18.6c1.4,0,2.5,1.1,2.5,2.5c0,0.1,0,0.1,0,0.2C62.5,87,61.4,88.1,60.1,88.1z M72.8,86.3v-3
	c0-0.1,0.1-0.2,0.2-0.2h3c0.1,0,0.2,0.1,0.3,0.2c0,0.1,0,0.1-0.1,0.2l-3,3c-0.1,0.1-0.3,0.1-0.4,0C72.9,86.4,72.8,86.3,72.8,86.3z
	 M81.5,61.6l-4.2-4.2c-0.2-0.3-0.7-0.3-0.9,0c0,0,0,0,0,0l-0.3,0.3c-0.3,0.3-0.3,0.7,0,0.9l1.8,1.9v20.3c0,0.3-0.2,0.6-0.5,0.6
	c0,0,0,0,0,0H72c-0.5,0-0.8,0.4-0.8,0.8v5.3c0,0.3-0.3,0.6-0.6,0.6h-7.1c1.4-1.8,1.1-4.4-0.8-5.9l-0.1-0.1c1.9-1.3,2.3-4,0.9-5.8
	c-0.3-0.4-0.6-0.7-0.9-0.9c1.9-1.4,2.3-4,0.9-5.9c-0.8-1.1-2.1-1.7-3.4-1.7h-11v-7.2l1.8-1.8c0.2-0.2,0.3-0.6,0-0.9c0,0,0,0,0,0
	l-0.3-0.3c-0.2-0.2-0.6-0.3-0.9,0c0,0,0,0,0,0l-4.1,4c-0.4,0.4-1.1,0.4-1.5,0l-4.1-4c-0.4-0.4-0.4-1.1,0-1.5c0,0,0,0,0,0l6.7-6.7
	c0.1-0.1,0.3-0.2,0.5-0.3l6.9-1.3c0.5-0.1,1,0.2,1.1,0.7c1.8,4.5,6.8,6.8,11.4,5c2.3-0.9,4.1-2.6,5-4.9c0.2-0.6,0.8-1,1.4-0.8
	l6.6,1.2c0.2,0,0.5,0.2,0.7,0.3l6.7,6.7c0.4,0.4,0.4,1,0,1.4l-4.2,4.2C82.5,62,81.9,62,81.5,61.6z"/>
<path class="st0" d="M41.5,71.1h14.4c0.5,0,0.8,0.4,0.8,0.8l0,0c0,0.5-0.4,0.8-0.8,0.8H41.5c-0.5,0-0.8-0.4-0.8-0.8l0,0
	C40.7,71.5,41,71.1,41.5,71.1z"/>
<circle class="st0" cx="59.2" cy="72" r="0.9"/>
<path class="st0" d="M41.5,77.9h14.4c0.5,0,0.8,0.4,0.8,0.8l0,0c0,0.5-0.4,0.8-0.8,0.8H41.5c-0.5,0-0.8-0.4-0.8-0.8l0,0
	C40.7,78.3,41,77.9,41.5,77.9z"/>
<circle class="st0" cx="59.2" cy="78.8" r="0.9"/>
<path class="st0" d="M41.5,84.7h14.4c0.5,0,0.8,0.4,0.8,0.8l0,0c0,0.5-0.4,0.8-0.8,0.8H41.5c-0.5,0-0.8-0.4-0.8-0.8l0,0
	C40.7,85.1,41,84.7,41.5,84.7z"/>
<circle class="st0" cx="59.2" cy="85.5" r="0.9"/>
<circle class="st0" cx="60.1" cy="42.9" r="0.9"/>
</svg>
