<?xml version="1.0" encoding="utf-8"?>
<!-- Generator: Adobe Illustrator 24.2.1, SVG Export Plug-In . SVG Version: 6.00 Build 0)  -->
<svg version="1.1" id="Layer_1" xmlns="http://www.w3.org/2000/svg" xmlns:xlink="http://www.w3.org/1999/xlink" x="0px" y="0px"
	 viewBox="0 0 126.6 126.6" style="enable-background:new 0 0 126.6 126.6;" xml:space="preserve">
<style type="text/css">
	.st0{fill:#212B4D;}
	.st1{fill:#D4A0AF;}
	.st2{fill:#D4A0AF;stroke:#D4A0AF;stroke-width:2;stroke-miterlimit:10;}
</style>
<g id="Group_494">
	<circle id="Ellipse_35-2" class="st0" cx="63.3" cy="63.3" r="63.3"/>
</g>
<circle id="Ellipse_70" class="st1" cx="43.8" cy="71.9" r="8.1"/>
<path id="Path_443" class="st1" d="M51.6,61.1l4.7-7.3l19.9-1.3l3.7,6.6L69.4,74l-17.8-8.2L51.6,61.1z"/>
<circle id="Ellipse_71" class="st1" cx="82.6" cy="70.7" r="8.1"/>
<g id="Group_463">
	<g id="Group_460">
		<g id="Group_459">
			<path class="st2" d="M82.6,82.6c-5,0-9.5-3.1-11.2-7.7c-2.4-6,0.5-12.9,6.5-15.4l-0.8-3.2L65.6,70.8l1.3,2.5h0.9
				c0.5,0,0.9,0.2,1.2,0.6c0.3,0.3,0.5,0.8,0.5,1.3c0,0.9-0.8,1.7-1.8,1.7h-3.8c-0.9,0-1.6-0.6-1.7-1.4c-0.1-0.5,0-0.9,0.3-1.3
				c0.1-0.2,0.3-0.4,0.5-0.5l-0.7-1.3h-6.4c-0.9,5.9-6,10.3-11.9,10.3l0,0c-6.7,0-12.1-5.3-12.1-12c0-6.7,5.3-12.1,12-12.1
				c1.5,0,3,0.3,4.4,0.8l3.9-6.9l-2.4-4.8h-3.1c-1,0-1.8-0.8-1.8-1.8c0-1,0.8-1.8,1.8-1.8h8.5c1,0,1.8,0.8,1.7,1.8
				c0,1-0.8,1.8-1.8,1.7l0,0h-1.3l1.6,3.1h11.4h0.2c0.9,0.1,1.6,0.9,1.6,1.8c0,0.9-0.8,1.7-1.8,1.7h-9.5l6.6,13.2l10.5-13.2
				c-0.9-0.3-1.4-1.3-1.1-2.3c0.2-0.7,0.9-1.2,1.7-1.2h0.7l-1.2-4.4c0-0.1-0.1-0.3-0.1-0.4c0-1,0.8-1.8,1.8-1.8h6.6c3.3,0,6,2.7,6,6
				c0,0.9-0.8,1.7-1.7,1.7l0,0c-1,0-1.8-0.7-1.9-1.7c0-1.4-1.1-2.5-2.4-2.5c0,0,0,0,0,0h-4.3l2.9,11c0.4,0,0.9-0.1,1.3-0.1
				c6.7,0,12.1,5.4,12.1,12S89.3,82.6,82.6,82.6C82.6,82.6,82.6,82.6,82.6,82.6L82.6,82.6z"/>
			<path class="st2" d="M86.8,81.3c-6,2.3-12.6-0.7-14.9-6.6s0.7-12.6,6.6-14.9l-1.2-4.6L64.9,70.7l1.6,3.1h1.2
				c0.7,0,1.2,0.6,1.2,1.3c0,0.7-0.6,1.2-1.3,1.2h-3.7c-0.7,0-1.3-0.6-1.3-1.3c0-0.6,0.4-1.1,1-1.2l-1-2h-7.2
				C54.7,78.2,49,82.7,42.7,82c-6.3-0.7-10.9-6.4-10.2-12.7c0.7-6.3,6.4-10.9,12.7-10.2c1.1,0.1,2.2,0.4,3.3,0.9l4.3-7.6L50.1,47
				h-3.4c-0.7,0-1.3-0.6-1.3-1.3c0-0.7,0.6-1.3,1.3-1.3l0,0h8.4c0.7,0,1.2,0.6,1.2,1.3S55.7,47.1,55,47H53l2.1,4.1h11.7
				c0.7,0,1.2,0.6,1.2,1.3c0,0.7-0.6,1.2-1.3,1.2l0,0H56.3l7.3,14.5l11.6-14.5h-0.4c-0.7,0-1.2-0.6-1.2-1.3c0-0.7,0.6-1.2,1.3-1.2
				l0,0h1.3l-1.3-5c0-0.1,0-0.2,0-0.3c0-0.7,0.6-1.3,1.3-1.3h6.6c3,0,5.5,2.5,5.5,5.5c0,0.7-0.6,1.3-1.3,1.3c-0.7,0-1.3-0.6-1.3-1.3
				c0-1.6-1.3-3-2.9-3h-5l3.1,12.1c0.6-0.1,1.1-0.1,1.7-0.1c6.4,0,11.5,5.2,11.5,11.6C94.1,75.3,91.2,79.6,86.8,81.3z"/>
		</g>
	</g>
	<g id="Group_462">
		<g id="Group_461">
			<path class="st2" d="M70.6,54.2c-0.5,0-0.9-0.2-1.2-0.5c-0.3-0.3-0.5-0.8-0.5-1.3c0-1,0.8-1.7,1.8-1.7v1v-1
				c0.5,0,0.9,0.2,1.2,0.5c0.3,0.3,0.5,0.8,0.5,1.3C72.4,53.4,71.6,54.2,70.6,54.2L70.6,54.2z"/>
			<path id="Path_445" class="st2" d="M70.7,51.1L70.7,51.1c-0.7,0-1.3,0.5-1.3,1.2c0,0.7,0.5,1.3,1.2,1.3c0,0,0,0,0,0l0,0
				c0.7,0,1.3-0.5,1.3-1.2C71.9,51.7,71.4,51.2,70.7,51.1C70.7,51.1,70.7,51.1,70.7,51.1z"/>
		</g>
	</g>
</g>
<g id="Group_465">
	<g id="Group_464">
		<path id="Path_446" class="st0" d="M82.6,59c-0.6,0-1.1,0-1.7,0.1L77.8,47h5c1.6,0,3,1.4,2.9,3c0.1,0.7,0.7,1.2,1.4,1.2
			c0.6-0.1,1.1-0.5,1.2-1.2c0-3-2.5-5.5-5.5-5.5h-6.7c-0.7,0-1.3,0.6-1.3,1.3c0,0,0,0,0,0c0,0.1,0,0.2,0,0.3l1.3,5h-1.3
			c-0.7,0-1.3,0.5-1.3,1.2c0,0.7,0.5,1.3,1.2,1.3l0,0h0.4L63.6,68.2l-7.3-14.5h10.3c0.7,0,1.3-0.5,1.3-1.2c0-0.7-0.5-1.3-1.2-1.3H55
			L53,47H55c0.7,0.1,1.3-0.4,1.4-1.1c0.1-0.7-0.4-1.3-1.1-1.4c-0.1,0-0.1,0-0.2,0h-8.4c-0.7,0.1-1.2,0.7-1.2,1.4
			c0.1,0.6,0.5,1.1,1.2,1.2h3.4l2.7,5.3L48.5,60c-5.9-2.5-12.6,0.2-15.2,6.1s0.2,12.6,6.1,15.2c5.9,2.5,12.6-0.2,15.1-6.1
			c0.4-1,0.7-2.2,0.9-3.3h7.2l1,2c-0.7,0.1-1.1,0.8-1,1.5c0.1,0.6,0.6,1,1.3,1h3.7c0.7,0,1.3-0.5,1.3-1.2c0-0.7-0.5-1.3-1.2-1.3l0,0
			h-1.2l-1.6-3.1l12.3-15.5l1.2,4.6c-5.9,2.3-8.9,9-6.6,14.9c2.3,5.9,9,8.9,14.9,6.6c5.9-2.3,8.9-9,6.6-14.9
			C91.6,61.9,87.4,59,82.6,59L82.6,59z M49.5,63.4c1.9,1.4,3.1,3.5,3.4,5.9h-6.7L49.5,63.4z M44,79.6c-5,0-9-4.1-9-9c0-5,4.1-9,9-9
			c1.1,0,2.2,0.2,3.2,0.6l-4.4,7.8c-0.3,0.6-0.1,1.4,0.5,1.7c0.2,0.1,0.4,0.2,0.6,0.2h8.9C52.3,76.3,48.5,79.6,44,79.6z M55.5,69.3
			c-0.4-3.2-2.1-6.2-4.7-8.1l3.4-6.1l7.2,14.2H55.5z M82.6,79.6c-5,0-9-4.1-9-9c0-3.6,2.2-6.8,5.5-8.2l2.3,8.6c0.1,0.6,0.6,1,1.2,1
			c0.1,0,0.2,0,0.3,0c0.7-0.2,1.1-0.9,0.9-1.5c0,0,0,0,0,0l0,0l-2.3-8.6c0.3,0,0.7-0.1,1-0.1c5,0,9,4,9,9s-4,9-9,9L82.6,79.6z"/>
	</g>
</g>
<g id="Group_467">
	<g id="Group_466">
		<path id="Path_447" class="st0" d="M70.7,51.3L70.7,51.3c-0.7,0-1.3,0.5-1.3,1.2c0,0.7,0.5,1.3,1.2,1.3c0,0,0,0,0,0l0,0
			c0.7,0,1.3-0.5,1.3-1.2C71.9,51.9,71.4,51.3,70.7,51.3L70.7,51.3z"/>
	</g>
</g>
</svg>
