<?xml version="1.0" encoding="utf-8"?>
<!-- Generator: Adobe Illustrator 24.2.1, SVG Export Plug-In . SVG Version: 6.00 Build 0)  -->
<svg version="1.1" id="Layer_1" xmlns="http://www.w3.org/2000/svg" xmlns:xlink="http://www.w3.org/1999/xlink" x="0px" y="0px"
	 viewBox="0 0 127 127" style="enable-background:new 0 0 127 127;" xml:space="preserve">
<style type="text/css">
	.st0{fill:#212B4D;}
	.st1{fill:#D4A0AF;}
	.st2{fill:none;stroke:#D4A0AF;stroke-width:2;stroke-miterlimit:10;}
</style>
<circle id="Ellipse_43" class="st0" cx="63.5" cy="63.5" r="63.5"/>
<path id="Path_274" class="st1" d="M40.8,77l1.1,12.7l6.3-6.4l11.3,4.9l5.5-6.5l7.2,0.8l3.9-4.3l4,7.6l5.8-0.5l1-14.4l-0.4-20
	l-6.8-0.1l-3.5,4.7l-12-14.8L40.7,55.1l6.2,13.4l5.1,6.2L40.8,77z"/>
<g id="Group_203">
	<path class="st2" d="M59.8,63.9c-0.7,0-1.3-0.6-1.3-1.3c0-0.4,0.2-0.9,0.6-1.1l8-4.6l1.7-0.3L61.5,44l-1.1,1.3l-1.6,0.9
		c-0.2,0.1-0.4,0.2-0.6,0.2c-0.5,0-0.9-0.3-1.1-0.7c-0.3-0.6-0.1-1.4,0.5-1.7l1.2-0.7l2.1-2.5l5.9-3.4c0.1-0.1,0.3-0.1,0.5-0.1
		c0.6,0,1,0.4,1,1l-0.2,2.9c0,0.3,0.1,0.5,0.4,0.6l2.3,1.2c0.3,0.2,0.6,0.5,0.5,0.9l-0.2,2.5c0,0.3,0.1,0.5,0.3,0.6l2.3,1.1
		c0.4,0.2,0.6,0.6,0.5,1l-0.2,2.6c0,0.3,0.1,0.5,0.4,0.6l2.6,1.2c0.2,0.1,0.3,0.2,0.4,0.4c0.1,0.2,0.2,0.5,0.1,0.7
		c-0.1,0.2-0.2,0.5-0.5,0.6l-5.9,3.4L68,59.4l-7.6,4.4C60.2,63.9,60,63.9,59.8,63.9z M65.4,41.1L65.4,41.1l-1.7,0.9
		c-0.2,0.1-0.2,0.3-0.1,0.4l7.5,13.1c0.1,0.1,0.2,0.2,0.3,0.2c0.1,0,0.1,0,0.2,0l1.6-0.9c0.1-0.1,0.1-0.2,0-0.3l-0.7-0.3
		c-0.6-0.3-1-1-0.9-1.6l0.2-2.4c0-0.1,0-0.1-0.1-0.2L69.4,49c-0.6-0.3-1-0.9-0.9-1.6l0.2-2.4c0-0.1,0-0.1-0.1-0.2l-2.2-1.1
		c-0.6-0.3-1-0.9-1-1.6v-0.7C65.5,41.2,65.4,41.1,65.4,41.1z"/>
	<path id="Path_275" class="st2" d="M60.1,44.9l1-1.2c0.2-0.2,0.5-0.2,0.7-0.1c0,0,0,0,0,0c0,0,0.1,0.1,0.1,0.1l7.3,12.7
		c0.1,0.2,0,0.5-0.2,0.7c0,0-0.1,0.1-0.2,0.1l-1.6,0.3L59.4,62c-0.3,0.2-0.5,0.6-0.3,1l0,0c0.2,0.3,0.6,0.5,1,0.3l7.7-4.4l3.2-0.6
		l5.9-3.3c0.2-0.1,0.3-0.4,0.2-0.6c0-0.1-0.1-0.2-0.2-0.2l-2.6-1.3c-0.4-0.2-0.7-0.6-0.6-1.1l0.2-2.6c0-0.2-0.1-0.4-0.3-0.5
		l-2.3-1.1c-0.4-0.2-0.7-0.6-0.6-1.1l0.2-2.6c0-0.2-0.1-0.4-0.3-0.5l-2.3-1.2c-0.4-0.2-0.7-0.6-0.6-1.1l0.2-2.9
		c0-0.3-0.2-0.5-0.4-0.5c0,0,0,0,0,0c-0.1,0-0.2,0-0.3,0.1l-5.8,3.4l-2.1,2.4l-1.3,0.7c-0.3,0.2-0.5,0.6-0.3,1l0,0
		c0.2,0.3,0.6,0.5,1,0.3L60.1,44.9z M66,41.3v0.7c0,0.5,0.2,0.9,0.7,1.2l2.2,1.1c0.2,0.1,0.4,0.4,0.4,0.6l-0.2,2.4
		c0,0.5,0.2,0.9,0.7,1.2l2.2,1.1c0.2,0.1,0.4,0.4,0.4,0.6l-0.2,2.4c0,0.5,0.2,0.9,0.7,1.2l0.7,0.3c0.3,0.2,0.5,0.6,0.3,0.9
		c-0.1,0.1-0.1,0.2-0.3,0.3l-1.6,0.9c-0.4,0.2-0.9,0.1-1.1-0.3l-7.6-13.1c-0.2-0.4-0.1-0.9,0.3-1.1l1.6-0.9c0.3-0.2,0.7-0.1,0.9,0.2
		c0,0,0,0,0,0C66,41.1,66,41.2,66,41.3L66,41.3z"/>
	<path class="st2" d="M47.7,72.2c-0.6,0-1-0.4-1-1c0,0,0-0.1,0-0.1l0.2-3.1c0,0,0-0.1-0.1-0.1l-2.6-1.3c-0.4-0.2-0.6-0.6-0.6-1
		l0.2-2.9c0,0,0-0.1,0-0.1l-2.6-1.3c-0.4-0.2-0.6-0.6-0.6-1l0.2-2.9c0,0,0-0.1,0-0.1L38,56c-0.2-0.1-0.3-0.2-0.4-0.4
		c-0.1-0.2-0.2-0.5-0.1-0.8c0.1-0.3,0.3-0.5,0.5-0.7l5.8-3.3l3.2-0.6l8.1-4.7c0.6-0.3,1.4-0.1,1.7,0.5c0.3,0.6,0.1,1.4-0.5,1.7
		l-7.6,4.4c-0.6,0.3-1.2,0.6-1.8,0.7l-0.7,0.1l7.4,12.7L54,65c0.4-0.4,0.8-0.8,1.3-1.1l1.3-0.8c0.2-0.1,0.4-0.2,0.6-0.2
		c0.7,0,1.3,0.6,1.3,1.3c0,0.4-0.2,0.9-0.6,1.1l-1.7,1l-2,2.4l-5.8,3.3C48.2,72.2,48,72.2,47.7,72.2L47.7,72.2z M41.7,54.8
		L41.7,54.8c0,0,0,0.1,0,0.2l0.8,0.4c0.6,0.3,0.9,0.9,0.9,1.5l-0.2,2.6c0,0,0,0.1,0.1,0.1l2.3,1.1c0.6,0.3,0.9,0.9,0.9,1.5l-0.2,2.5
		c0,0.1,0,0.1,0,0.1l2.3,1.1c0.6,0.3,0.9,0.9,0.9,1.5l-0.1,0.9c0,0.1,0.1,0.1,0.1,0.1l1.9-1.1c0,0,0.1,0,0.1-0.1c0,0,0-0.1,0-0.1
		l-7.7-13.4c0,0-0.1-0.1-0.1-0.1L41.7,54.8z"/>
	<path id="Path_276" class="st2" d="M41.4,60.9l2.6,1.3c0.2,0.1,0.4,0.3,0.3,0.6l-0.2,2.9c0,0.2,0.1,0.4,0.3,0.5l2.6,1.3
		c0.2,0.1,0.4,0.3,0.3,0.6l-0.2,3.1c0,0.3,0.2,0.6,0.5,0.6c0,0,0,0,0,0c0.1,0,0.2,0,0.3-0.1l5.7-3.3l2.1-2.5l1.7-1
		c0.3-0.2,0.5-0.6,0.3-1l0,0c-0.2-0.3-0.6-0.5-1-0.3l-1.3,0.8c-0.4,0.3-0.8,0.6-1.1,1L53.9,66c-0.2,0.2-0.4,0.3-0.7,0.1
		c0,0-0.1-0.1-0.1-0.1c0,0-0.1-0.1-0.1-0.1l-7.3-12.8c-0.1-0.2-0.1-0.5,0.2-0.7H46l0.7-0.1c0.6-0.1,1.2-0.3,1.7-0.6l7.6-4.4
		c0.3-0.2,0.5-0.6,0.3-1l0,0c-0.2-0.3-0.6-0.5-1-0.3l-8.2,4.6l-3.2,0.6l-5.7,3.3c-0.3,0.2-0.4,0.5-0.2,0.8c0.1,0.1,0.1,0.2,0.2,0.2
		l2.8,1.4c0.2,0.1,0.4,0.3,0.3,0.6l-0.3,2.9C41.1,60.6,41.2,60.8,41.4,60.9z M41.4,54.4l1.8-1.1c0.3-0.2,0.7-0.1,0.9,0.2l7.7,13.4
		c0.2,0.3,0.1,0.7-0.2,0.9l0,0l-1.8,1.1c-0.3,0.2-0.7,0.1-0.8-0.2c-0.1-0.1-0.1-0.2-0.1-0.3l0.1-0.9c0-0.4-0.2-0.8-0.6-1l-2.3-1.1
		c-0.2-0.1-0.4-0.3-0.3-0.6l0.2-2.6c0-0.4-0.2-0.8-0.6-1L43,60c-0.2-0.1-0.4-0.3-0.3-0.6l0.2-2.6c0-0.4-0.2-0.8-0.6-1l-0.8-0.4
		c-0.3-0.2-0.4-0.5-0.2-0.8c0,0,0,0,0,0C41.3,54.5,41.3,54.4,41.4,54.4L41.4,54.4z"/>
	<path class="st2" d="M57.5,60.6c-0.5,0-1-0.1-1.5-0.2c-3.1-0.8-5-4-4.1-7.1c0.7-2.5,3-4.3,5.6-4.3c0.5,0,1,0.1,1.5,0.2
		c2.9,0.8,4.7,3.6,4.2,6.5l0,0l-0.2,0.6C62.4,58.8,60.1,60.6,57.5,60.6L57.5,60.6z M57.5,51.5c-1.5,0-2.8,1-3.2,2.4
		c-0.5,1.8,0.6,3.6,2.4,4c0.8,0.2,1.7,0.1,2.4-0.3h0.1c1.6-1,2-3,1.1-4.6C59.7,52.1,58.6,51.5,57.5,51.5L57.5,51.5z"/>
	<path id="Path_277" class="st2" d="M62.6,56.2c0.8-2.8-0.9-5.8-3.8-6.5c-2.8-0.8-5.8,0.9-6.5,3.8s0.9,5.8,3.8,6.5c0,0,0,0,0,0l0,0
		c0.5,0.1,0.9,0.2,1.4,0.2C59.9,60.1,62,58.4,62.6,56.2L62.6,56.2z M59.4,58.1c-1.8,1-4.1,0.4-5.2-1.4c-1-1.8-0.4-4.1,1.4-5.2
		c1.8-1,4.1-0.4,5.2,1.4c0.5,0.9,0.6,1.9,0.4,2.9C60.9,56.7,60.3,57.6,59.4,58.1z"/>
	<path class="st2" d="M83.2,87.6c-0.7,0-1.3-0.6-1.3-1.3s0.6-1.3,1.3-1.3c0,0,0,0,0,0h2.8L84,80.6c0-0.1-0.1-0.1-0.2-0.1h-2.2
		c-0.1,0-0.1,0-0.2,0.1l-1.9,4.5h0.5c0.7,0,1.3,0.6,1.3,1.3c0,0.7-0.6,1.3-1.3,1.3h-2.7c-0.1,0-0.3,0-0.4-0.1
		c-0.5-0.2-0.8-0.8-0.6-1.3c0,0,0,0,0-0.1l2.5-5.9c-1.8-0.6-3-2.2-3-4.1V60c0-1.9,1.2-3.5,3-4.1l-2.6-6c0-0.1-0.1-0.2-0.1-0.4
		c0-0.3,0.1-0.5,0.3-0.7c0.2-0.2,0.4-0.3,0.7-0.3h5.1c0.7,0.1,1.2,0.7,1.2,1.4C83.5,50.5,83,51,82.4,51h-2.8l2,4.6H84l2-4.6h-0.5
		c-0.7-0.1-1.2-0.7-1.2-1.4c0.1-0.6,0.5-1.1,1.2-1.2h2.8c0.1,0,0.3,0,0.4,0.1c0.2,0.1,0.4,0.3,0.5,0.5c0.1,0.2,0.1,0.5,0,0.8l-2.6,6
		c1.8,0.6,3,2.2,3,4.1v10.3c0,0.7-0.5,1.3-1.2,1.3c0,0,0,0,0,0h-0.4v-0.1c-0.5-0.2-0.9-0.7-0.9-1.2v-1l-8.7,0.1l0.1,2.9
		c0,0.1,0.1,0.2,0.2,0.2h3.4c0.7-0.1,1.3,0.5,1.4,1.2c0.1,0.7-0.5,1.3-1.2,1.4c-0.1,0-0.2,0-0.2,0h-3.5c-0.1,0-0.2,0.1-0.2,0.2l0,0
		v1.1c0,1,0.8,1.8,1.8,1.8h5.1c1,0,1.8-0.8,1.8-1.8v-2.9c0.1-0.7,0.7-1.2,1.4-1.2c0.6,0.1,1.1,0.5,1.2,1.2v2.9c0,1.9-1.2,3.5-3,4.1
		l2.5,5.9c0.1,0.1,0.1,0.3,0.1,0.4c0,0.6-0.4,1-1,1L83.2,87.6z M80.2,58.2c-1,0-1.8,0.8-1.8,1.8v6.8c0,0,0,0.1,0.1,0.1H87
		c0,0,0.1,0,0.1-0.1c0,0,0,0,0,0v-2.8c0-0.1-0.1-0.2-0.2-0.2l0,0h-3.5c-0.3,0-0.7-0.1-0.9-0.4c-0.2-0.2-0.4-0.6-0.4-0.9
		c0-0.7,0.6-1.3,1.2-1.3c0,0,0,0,0,0H87c0.1,0,0.1-0.1,0.2-0.2V60c0-1-0.8-1.8-1.8-1.8L80.2,58.2z"/>
	<path id="Path_278" class="st2" d="M88.4,71c0.4,0,0.8-0.3,0.8-0.8c0,0,0,0,0,0l0,0V60c0-1.7-1.1-3.2-2.8-3.7
		c-0.2,0-0.3-0.2-0.2-0.4c0,0,0,0,0,0l0,0l2.6-6.1c0.1-0.2,0-0.5-0.2-0.6c0,0,0,0,0,0c-0.1,0-0.1,0-0.2,0h-2.8
		c-0.4,0-0.8,0.3-0.8,0.8l0,0c0,0.4,0.3,0.8,0.8,0.8c0,0,0,0,0,0h0.7c0.2,0,0.3,0.2,0.3,0.3c0,0,0,0.1,0,0.1L84.4,56
		c-0.1,0.1-0.2,0.2-0.3,0.2h-2.6c-0.1,0-0.3-0.1-0.3-0.2l-2.1-5c-0.1-0.2,0-0.4,0.2-0.4c0,0,0.1,0,0.1,0h3c0.4,0,0.7-0.3,0.8-0.7
		c0,0,0,0,0,0l0,0c0-0.4-0.3-0.8-0.8-0.8c0,0,0,0,0,0h-5.1c-0.3,0-0.5,0.2-0.5,0.5c0,0,0,0,0,0c0,0.1,0,0.1,0,0.2l2.6,6.1
		c0.1,0.2,0,0.4-0.2,0.4c0,0,0,0,0,0l0,0c-1.6,0.5-2.8,2-2.8,3.7v16.2c0,1.6,1.1,3.1,2.6,3.6c0.3,0.1,0.4,0.4,0.3,0.6l0,0l-2.5,5.9
		c-0.1,0.3,0,0.6,0.3,0.7c0,0,0,0,0,0c0.1,0,0.1,0,0.2,0h2.7c0.4,0,0.8-0.3,0.8-0.8c0,0,0,0,0,0l0,0c0-0.4-0.3-0.8-0.8-0.8
		c0,0,0,0,0,0h-0.9c-0.1,0-0.2-0.1-0.2-0.2c0,0,0-0.1,0-0.1l2.1-4.9c0.1-0.2,0.4-0.4,0.6-0.4h2.2c0.3,0,0.5,0.2,0.6,0.4l2.1,4.9
		c0,0.1,0,0.2-0.1,0.3c0,0,0,0,0,0h-0.1h-3.2c-0.4,0-0.8,0.3-0.8,0.8c0,0,0,0,0,0l0,0c0,0.4,0.3,0.8,0.8,0.8c0,0,0,0,0,0h5
		c0.3,0,0.5-0.2,0.5-0.5l0,0c0-0.1,0-0.1,0-0.2l-2.5-5.9c-0.1-0.3,0-0.5,0.3-0.7c0,0,0,0,0,0h0.1c1.6-0.5,2.6-2,2.6-3.6v-2.9
		c0-0.4-0.3-0.8-0.8-0.8c0,0,0,0,0,0l0,0c-0.4,0-0.8,0.3-0.8,0.8l0,0v2.9c0,1.3-1,2.3-2.3,2.3h-5.1c-1.3,0-2.3-1-2.3-2.3l0,0V75
		c0-0.4,0.3-0.7,0.7-0.7l0,0h3.5c0.4,0,0.8-0.3,0.8-0.8l0,0c0-0.4-0.3-0.8-0.8-0.8c0,0,0,0,0,0h-3.5c-0.4,0-0.7-0.3-0.7-0.6
		c0,0,0,0,0,0v-3c0-0.2,0.2-0.4,0.4-0.4h8.8c0.2,0,0.4,0.2,0.4,0.4c0,0,0,0,0,0v1c0,0.4,0.3,0.8,0.8,0.8c0,0,0,0,0,0l0,0L88.4,71z
		 M78,66.7V60c0-1.3,1-2.3,2.3-2.3h5.1c1.3,0,2.3,1,2.3,2.3l0,0v1.1c0,0.4-0.3,0.7-0.7,0.7h-3.5c-0.4,0-0.8,0.3-0.8,0.8c0,0,0,0,0,0
		l0,0c0,0.4,0.3,0.8,0.8,0.8c0,0,0,0,0,0H87c0.4,0,0.7,0.3,0.7,0.7l0,0l0,0v2.8c0,0.3-0.2,0.6-0.6,0.6c0,0,0,0,0,0h-8.5
		C78.2,67.3,78,67.1,78,66.7C78,66.8,78,66.8,78,66.7L78,66.7z"/>
	<path class="st2" d="M43.9,89.7c-1.6,0-3-1.1-3.2-2.7l-0.2-1.5l0,0v-0.1c0-0.3,0-0.6,0.2-0.9c0.2-0.3,0.5-0.5,0.8-0.5h0.2
		c0.6,0,1.1,0.4,1.2,1l0.3,1.5c0.1,0.4,0.4,0.6,0.8,0.6c0.2,0,0.3-0.1,0.5-0.2l4.2-3.4c-0.7-1.3-1-2.8-1-4.2c0-0.4,0-0.7,0.1-1.1
		l-5.1-1.8c-0.1,0-0.2,0-0.3,0c-0.4,0-0.7,0.4-0.8,0.8c0,0,0,0.1,0,0.1l0.8,4.7c0.1,0.7-0.3,1.3-1,1.5h-0.2c-0.6,0-1.1-0.4-1.2-1.1
		l-0.8-4.7c0-0.2-0.1-0.4-0.1-0.6c0-1.8,1.5-3.3,3.3-3.3c0.4,0,0.7,0.1,1.1,0.2l5,1.7c2-4.8,7.4-7.1,12.2-5.1
		c1.3,0.5,2.5,1.4,3.4,2.4l4.2-3.4c1.4-1.1,3.5-0.9,4.6,0.5c0.3,0.4,0.6,1,0.7,1.5l0.3,1.7c0.1,0.7-0.3,1.3-1,1.5h-0.2
		c-0.6,0-1.1-0.4-1.2-1l-0.3-1.7c-0.1-0.4-0.4-0.6-0.8-0.6c-0.2,0-0.3,0.1-0.5,0.2l-4.4,3.6c0.6,1.3,1,2.7,1,4.1c0,0.3,0,0.7,0,1
		l5.3,1.8c0.1,0,0.2,0,0.3,0c0.4,0,0.8-0.3,0.8-0.8c0,0,0-0.1,0-0.1l-0.8-4.5c-0.1-0.7,0.3-1.3,1-1.5h0.2c0.6,0,1.1,0.4,1.2,1
		l0.8,4.5c0,0.2,0,0.4,0,0.6c0,0.4-0.1,0.7-0.2,1.1c-0.5,1.3-1.7,2.2-3.1,2.2c-0.4,0-0.7-0.1-1.1-0.2l-5.1-1.8
		c-1.9,4.8-7.3,7.3-12.1,5.4c-1.4-0.5-2.6-1.4-3.6-2.5L46,89C45.4,89.5,44.7,89.7,43.9,89.7z M52.9,84.9c1.2,0.9,2.6,1.4,4.1,1.4H57
		c3.7,0,6.8-3,6.8-6.8h-1.6c-0.7,0-1.3-0.6-1.3-1.3s0.6-1.3,1.3-1.3c0,0,0,0,0,0h1.2c-0.1-0.2-0.1-0.3-0.2-0.5h-2.8
		c-0.7,0-1.3-0.6-1.3-1.3s0.6-1.3,1.3-1.3c0,0,0,0,0,0h0.7c-3-2.3-7.3-1.7-9.6,1.3c-0.9,1.2-1.4,2.6-1.4,4.1h1.6
		c0.7,0,1.3,0.6,1.3,1.3s-0.6,1.3-1.3,1.3c0,0,0,0,0,0h-1.1c0.1,0.2,0.1,0.4,0.2,0.5h2.8c0.7,0.1,1.2,0.7,1.2,1.4
		c-0.1,0.6-0.5,1.1-1.2,1.2H52.9z"/>
	<path id="Path_279" class="st2" d="M73,75.9L73,75.9c-0.4,0.1-0.7,0.5-0.6,0.9c0,0,0,0,0,0l0,0l0.8,4.5c0,0.1,0,0.2,0,0.2
		c0,0.7-0.6,1.2-1.3,1.3c-0.1,0-0.3,0-0.4-0.1l-5.7-2c0.1-0.4,0.1-0.9,0.1-1.3c0-1.5-0.4-3-1.1-4.3l4.7-3.8c0.5-0.5,1.3-0.4,1.8,0.1
		c0.2,0.2,0.3,0.4,0.3,0.6l0.3,1.7c0.1,0.4,0.5,0.7,0.9,0.6l0,0c0.4-0.1,0.7-0.5,0.6-0.9c0,0,0,0,0,0l0,0L73,71.8
		c-0.3-1.5-1.7-2.5-3.3-2.3c-0.5,0.1-0.9,0.3-1.3,0.6l-4.6,3.7c-3.1-3.8-8.7-4.5-12.5-1.4c-1.3,1-2.3,2.4-2.8,4l-5.4-1.9
		c-0.3-0.1-0.6-0.1-0.9-0.2c-1.5,0-2.8,1.2-2.8,2.8c0,0.2,0,0.3,0,0.5l0.8,4.7c0.1,0.4,0.5,0.7,0.9,0.6l0,0c0.4-0.1,0.7-0.5,0.6-0.9
		c0,0,0,0,0,0l0,0l-0.7-4.6c0-0.1,0-0.2,0-0.2c0-0.7,0.6-1.3,1.3-1.3c0.1,0,0.3,0,0.4,0.1l5.5,1.9c-0.1,0.5-0.1,1-0.1,1.4
		c0,1.5,0.4,3,1.1,4.3l-4.5,3.7c-0.2,0.2-0.5,0.3-0.8,0.3c-0.6,0-1.1-0.4-1.3-1l-0.3-1.5c-0.1-0.4-0.5-0.7-0.9-0.6l0,0
		c-0.4,0.1-0.7,0.5-0.6,0.9l0,0l0.3,1.5c0.3,1.5,1.7,2.5,3.2,2.3c0.5-0.1,0.9-0.3,1.3-0.6l4.4-3.7c3.1,3.8,8.7,4.4,12.5,1.3
		c1.3-1.1,2.3-2.5,2.8-4.1l5.6,1.9c1.4,0.5,3-0.2,3.5-1.7c0,0,0,0,0,0c0.2-0.5,0.2-0.9,0.1-1.4l-0.8-4.5
		C73.8,76.1,73.4,75.9,73,75.9C73,75.9,73,75.9,73,75.9L73,75.9z M57,86.8c-2.1,0-4-0.9-5.4-2.4h2c0.4,0,0.8-0.3,0.8-0.8
		c0,0,0,0,0,0l0,0c0-0.4-0.3-0.8-0.8-0.8h-3.1c-0.3-0.5-0.5-1-0.6-1.5h1.9c0.4,0,0.8-0.3,0.8-0.8l0,0c0-0.4-0.3-0.8-0.8-0.8
		c0,0,0,0,0,0h-2.1v-0.4c0-4.1,3.2-7.4,7.3-7.4c2.1,0,4.1,0.9,5.5,2.4h-2c-0.4,0-0.8,0.3-0.8,0.8c0,0,0,0,0,0l0,0
		c0,0.4,0.3,0.8,0.8,0.8c0,0,0,0,0,0h3.1c0.3,0.5,0.5,1,0.6,1.5h-1.9c-0.4,0-0.8,0.3-0.8,0.8c0,0,0,0,0,0l0,0c0,0.4,0.3,0.8,0.8,0.8
		c0,0,0,0,0,0h2.1v0.4C64.3,83.4,61.1,86.7,57,86.8L57,86.8z"/>
	<path class="st2" d="M80.4,63.8c-0.7,0-1.3-0.6-1.3-1.3s0.6-1.3,1.3-1.3c0,0,0,0,0,0c0.7,0,1.3,0.6,1.3,1.3S81.1,63.7,80.4,63.8
		C80.4,63.8,80.4,63.8,80.4,63.8z"/>
	<path id="Path_280" class="st2" d="M80.4,61.7L80.4,61.7c0.4,0,0.8,0.3,0.8,0.8l0,0c0,0.4-0.3,0.8-0.8,0.8l0,0
		c-0.4,0-0.8-0.3-0.8-0.8c0,0,0,0,0,0l0,0C79.6,62.1,80,61.7,80.4,61.7C80.4,61.7,80.4,61.7,80.4,61.7z"/>
	<path class="st2" d="M85.2,74.9c-0.7,0-1.3-0.6-1.3-1.3c0-0.7,0.6-1.3,1.3-1.3c0.7,0,1.3,0.6,1.3,1.3c0,0,0,0,0,0
		C86.4,74.3,85.9,74.9,85.2,74.9C85.2,74.9,85.2,74.9,85.2,74.9L85.2,74.9L85.2,74.9z"/>
	<path id="Path_281" class="st2" d="M85.2,72.9L85.2,72.9c0.4,0,0.8,0.3,0.8,0.8c0,0,0,0,0,0l0,0c0,0.4-0.3,0.8-0.7,0.8c0,0,0,0,0,0
		l0,0c-0.4,0-0.8-0.3-0.8-0.8c0,0,0,0,0,0l0,0C84.4,73.2,84.8,72.9,85.2,72.9C85.2,72.9,85.2,72.9,85.2,72.9L85.2,72.9z"/>
	<path class="st2" d="M57.4,76.4c-0.7,0-1.3-0.6-1.2-1.3c0-0.7,0.6-1.3,1.3-1.2c0.7,0,1.2,0.6,1.2,1.3
		C58.6,75.9,58.1,76.4,57.4,76.4z"/>
	<path id="Path_282" class="st2" d="M57.4,74.4L57.4,74.4c0.4,0,0.8,0.3,0.8,0.8c0,0,0,0,0,0l0,0c0,0.4-0.3,0.8-0.8,0.8c0,0,0,0,0,0
		l0,0c-0.4,0-0.8-0.3-0.8-0.8l0,0C56.6,74.8,56.9,74.4,57.4,74.4C57.4,74.4,57.4,74.4,57.4,74.4L57.4,74.4z"/>
	<path class="st2" d="M56.6,84.9c-0.7-0.1-1.2-0.7-1.2-1.4c0.1-0.6,0.5-1.1,1.2-1.2c0.7-0.1,1.3,0.5,1.4,1.2
		c0.1,0.7-0.5,1.3-1.2,1.4C56.8,84.9,56.7,84.9,56.6,84.9z"/>
	<path id="Path_283" class="st2" d="M56.6,82.8L56.6,82.8c0.4,0,0.8,0.3,0.8,0.8l0,0c0,0.4-0.3,0.8-0.8,0.8l0,0
		c-0.4,0-0.8-0.3-0.8-0.8c0,0,0,0,0,0l0,0C55.9,83.2,56.2,82.8,56.6,82.8z"/>
</g>
<path id="Path_284" class="st0" d="M60.1,44.9l1-1.2c0.2-0.2,0.5-0.2,0.7-0.1c0,0,0,0,0,0c0,0,0.1,0.1,0.1,0.1l7.3,12.7
	c0.1,0.2,0,0.5-0.2,0.7c0,0-0.1,0.1-0.2,0.1l-1.6,0.3L59.4,62c-0.3,0.2-0.5,0.6-0.3,1l0,0c0.2,0.3,0.6,0.5,1,0.3l7.7-4.4l3.2-0.6
	l5.9-3.3c0.2-0.1,0.3-0.4,0.2-0.6c0-0.1-0.1-0.2-0.2-0.2l-2.6-1.3c-0.4-0.2-0.7-0.6-0.6-1.1l0.2-2.6c0-0.2-0.1-0.4-0.3-0.5l-2.3-1.1
	c-0.4-0.2-0.7-0.6-0.6-1.1l0.2-2.6c0-0.2-0.1-0.4-0.3-0.5l-2.3-1.2c-0.4-0.2-0.7-0.6-0.6-1.1l0.2-2.9c0-0.3-0.2-0.5-0.4-0.5
	c0,0,0,0,0,0c-0.1,0-0.2,0-0.3,0.1l-5.8,3.4l-2.1,2.4l-1.3,0.7c-0.3,0.2-0.5,0.6-0.3,1l0,0c0.2,0.3,0.6,0.5,1,0.3L60.1,44.9z
	 M66,41.3v0.7c0,0.5,0.2,0.9,0.7,1.2l2.2,1.1c0.2,0.1,0.4,0.4,0.4,0.6l-0.2,2.4c0,0.5,0.2,0.9,0.7,1.2l2.2,1.1
	c0.2,0.1,0.4,0.4,0.4,0.6l-0.2,2.4c0,0.5,0.2,0.9,0.7,1.2l0.7,0.3c0.3,0.2,0.5,0.6,0.3,0.9c-0.1,0.1-0.1,0.2-0.3,0.3l-1.6,0.9
	c-0.4,0.2-0.9,0.1-1.1-0.3l-7.6-13.1c-0.2-0.4-0.1-0.9,0.3-1.1l1.6-0.9c0.3-0.2,0.7-0.1,0.9,0.2c0,0,0,0,0,0
	C66,41.1,66,41.2,66,41.3L66,41.3z"/>
<path id="Path_285" class="st0" d="M41.4,60.9l2.6,1.3c0.2,0.1,0.4,0.3,0.3,0.6l-0.2,2.9c0,0.2,0.1,0.4,0.3,0.5l2.6,1.3
	c0.2,0.1,0.4,0.3,0.3,0.6l-0.2,3.1c0,0.3,0.2,0.6,0.5,0.6c0,0,0,0,0,0c0.1,0,0.2,0,0.3-0.1l5.7-3.3l2.1-2.5l1.7-1
	c0.3-0.2,0.5-0.6,0.3-1l0,0c-0.2-0.3-0.6-0.5-1-0.3l-1.3,0.8c-0.4,0.3-0.8,0.6-1.1,1L53.9,66c-0.2,0.2-0.4,0.3-0.7,0.1
	c0,0-0.1-0.1-0.1-0.1c0,0-0.1-0.1-0.1-0.1l-7.3-12.8c-0.1-0.2-0.1-0.5,0.2-0.7H46l0.7-0.1c0.6-0.1,1.2-0.3,1.7-0.6l7.6-4.4
	c0.3-0.2,0.5-0.6,0.3-1l0,0c-0.2-0.3-0.6-0.5-1-0.3l-8.2,4.6l-3.2,0.6l-5.7,3.3c-0.3,0.2-0.4,0.5-0.2,0.8c0.1,0.1,0.1,0.2,0.2,0.2
	l2.8,1.4c0.2,0.1,0.4,0.3,0.3,0.6l-0.3,2.9C41.1,60.6,41.2,60.8,41.4,60.9z M41.4,54.4l1.8-1.1c0.3-0.2,0.7-0.1,0.9,0.2c0,0,0,0,0,0
	l7.7,13.4c0.2,0.3,0.1,0.7-0.2,0.9l0,0l-1.8,1.1c-0.3,0.2-0.7,0.1-0.8-0.2c-0.1-0.1-0.1-0.2-0.1-0.3l0.1-0.9c0-0.4-0.2-0.8-0.6-1
	l-2.3-1.1c-0.2-0.1-0.4-0.3-0.3-0.6l0.2-2.6c0-0.4-0.2-0.8-0.6-1L43,60c-0.2-0.1-0.4-0.3-0.3-0.6l0.2-2.6c0-0.4-0.2-0.8-0.6-1
	l-0.8-0.4c-0.3-0.2-0.4-0.5-0.2-0.8c0,0,0,0,0,0C41.3,54.5,41.3,54.4,41.4,54.4L41.4,54.4z"/>
<path id="Path_286" class="st0" d="M62.6,56.2c0.8-2.8-0.9-5.8-3.8-6.5c-2.8-0.8-5.8,0.9-6.5,3.8s0.9,5.8,3.8,6.5c0,0,0,0,0,0l0,0
	c0.5,0.1,0.9,0.2,1.4,0.2C59.9,60.1,62,58.4,62.6,56.2L62.6,56.2z M59.4,58.1c-1.8,1-4.1,0.4-5.2-1.4c-1-1.8-0.4-4.1,1.4-5.2
	c1.8-1,4.1-0.4,5.2,1.4c0.5,0.9,0.6,1.9,0.4,2.9C60.9,56.7,60.3,57.6,59.4,58.1z"/>
<path id="Path_287" class="st0" d="M88.4,71c0.4,0,0.8-0.3,0.8-0.8c0,0,0,0,0,0l0,0V60c0-1.7-1.1-3.2-2.8-3.7
	c-0.2,0-0.3-0.2-0.2-0.4c0,0,0,0,0,0l0,0l2.6-6.1c0.1-0.2,0-0.5-0.2-0.6c0,0,0,0,0,0c-0.1,0-0.1,0-0.2,0h-2.8
	c-0.4,0-0.8,0.3-0.8,0.8l0,0c0,0.4,0.3,0.8,0.8,0.8h0.7c0.2,0,0.3,0.1,0.3,0.3c0,0,0,0,0,0c0,0,0,0.1,0,0.1L84.4,56
	c-0.1,0.1-0.2,0.2-0.3,0.2h-2.6c-0.1,0-0.3-0.1-0.3-0.2l-2.1-5c-0.1-0.2,0-0.4,0.2-0.4c0,0,0.1,0,0.1,0h3c0.4,0,0.8-0.3,0.8-0.8
	c0,0,0,0,0,0l0,0c0-0.4-0.3-0.8-0.8-0.8h-5.1c-0.3,0-0.5,0.2-0.5,0.5c0,0.1,0,0.1,0,0.2l2.6,6.1c0.1,0.2,0,0.4-0.2,0.4c0,0,0,0,0,0
	l0,0c-1.6,0.5-2.8,2-2.8,3.7v16.2c0,1.7,1.1,3.1,2.6,3.6c0.3,0.1,0.4,0.4,0.3,0.6l0,0l-2.5,5.9c-0.1,0.3,0,0.6,0.3,0.7
	c0.1,0,0.1,0,0.2,0h2.7c0.4,0,0.8-0.3,0.8-0.8c0,0,0,0,0,0l0,0c0-0.4-0.3-0.8-0.8-0.8c0,0,0,0,0,0h-0.9c-0.1,0-0.2-0.1-0.2-0.2
	c0,0,0-0.1,0-0.1l2.1-4.9c0.1-0.2,0.4-0.4,0.6-0.4h2.2c0.3,0,0.5,0.2,0.6,0.4l2.1,4.9c0,0.1,0,0.2-0.1,0.3c0,0,0,0,0,0h-0.1h-3.2
	c-0.4,0-0.8,0.3-0.8,0.8c0,0,0,0,0,0l0,0c0,0.4,0.3,0.8,0.8,0.8c0,0,0,0,0,0h5c0.3,0,0.5-0.2,0.5-0.5l0,0c0-0.1,0-0.1,0-0.2
	l-2.5-5.9c-0.1-0.3,0-0.5,0.3-0.7c0,0,0,0,0,0h0.1c1.6-0.5,2.6-2,2.6-3.6v-2.9c0-0.4-0.3-0.8-0.8-0.8c0,0,0,0,0,0l0,0
	c-0.4,0-0.8,0.3-0.8,0.8l0,0v2.9c0,1.3-1,2.3-2.3,2.3h-5.1c-1.3,0-2.3-1-2.3-2.3l0,0V75c0-0.4,0.3-0.7,0.7-0.7l0,0h3.5
	c0.4,0,0.8-0.3,0.8-0.8l0,0c0-0.4-0.3-0.8-0.8-0.8h-3.5c-0.4,0-0.7-0.3-0.7-0.6c0,0,0,0,0,0v-3c0-0.2,0.2-0.4,0.4-0.4c0,0,0,0,0,0
	h8.8c0.2,0,0.4,0.2,0.4,0.4c0,0,0,0,0,0v1c0,0.4,0.3,0.8,0.8,0.8c0,0,0,0,0,0l0,0L88.4,71z M78,66.7V60c0-1.3,1-2.3,2.3-2.3h5.1
	c1.3,0,2.3,1,2.3,2.3l0,0v1.1c0,0.4-0.3,0.7-0.7,0.7h-3.5c-0.4,0-0.8,0.3-0.8,0.8c0,0,0,0,0,0l0,0c0,0.4,0.3,0.8,0.8,0.8
	c0,0,0,0,0,0H87c0.4,0,0.6,0.3,0.7,0.7l0,0v2.8c0,0.3-0.3,0.6-0.6,0.6h-8.5C78.2,67.3,78,67.1,78,66.7C78,66.8,78,66.8,78,66.7
	L78,66.7z"/>
<path id="Path_288" class="st0" d="M73,75.9L73,75.9c-0.4,0.1-0.7,0.5-0.6,0.9c0,0,0,0,0,0l0,0l0.8,4.5c0,0.1,0,0.2,0,0.2
	c0,0.7-0.6,1.2-1.3,1.3c-0.1,0-0.3,0-0.4-0.1l-5.7-2c0.1-0.4,0.1-0.9,0.1-1.3c0-1.5-0.4-3-1.1-4.3l4.7-3.8c0.5-0.5,1.3-0.4,1.8,0.1
	c0.2,0.2,0.3,0.4,0.3,0.6l0.3,1.7c0.1,0.4,0.5,0.7,0.9,0.6c0,0,0,0,0,0l0,0c0.4-0.1,0.7-0.5,0.6-0.9c0,0,0,0,0,0l0,0L73,71.8
	c-0.3-1.5-1.7-2.5-3.3-2.3c-0.5,0.1-0.9,0.3-1.3,0.6l-4.6,3.7c-3.1-3.8-8.7-4.5-12.5-1.4c-1.3,1-2.3,2.4-2.8,4l-5.4-1.9
	c-0.3-0.1-0.6-0.1-0.9-0.2c-1.5,0-2.8,1.2-2.8,2.8c0,0.2,0,0.3,0,0.5l0.8,4.7c0.1,0.4,0.5,0.7,0.9,0.6l0,0c0.4-0.1,0.7-0.5,0.6-0.9
	c0,0,0,0,0,0l0,0l-0.7-4.6c0-0.1,0-0.2,0-0.2c0-0.7,0.6-1.2,1.2-1.2c0.1,0,0.3,0,0.4,0.1l5.5,1.9c-0.1,0.5-0.1,1-0.1,1.4
	c0,1.5,0.4,3,1.1,4.3l-4.5,3.7c-0.2,0.2-0.5,0.3-0.8,0.3c-0.6,0-1.1-0.4-1.3-1l-0.3-1.5c-0.1-0.4-0.5-0.7-0.9-0.6l0,0
	c-0.4,0.1-0.7,0.5-0.6,0.9l0,0l0.3,1.5c0.3,1.5,1.7,2.5,3.2,2.3c0.5-0.1,0.9-0.3,1.3-0.6l4.4-3.7c3.1,3.8,8.7,4.4,12.5,1.3
	c1.3-1.1,2.3-2.5,2.8-4.1l5.6,1.9c1.4,0.5,3-0.2,3.5-1.7c0,0,0,0,0,0c0.2-0.5,0.2-0.9,0.1-1.4l-0.8-4.5C73.8,76.1,73.4,75.9,73,75.9
	C73,75.9,73,75.9,73,75.9L73,75.9z M57,86.8c-2.1,0-4-0.9-5.4-2.4h2c0.4,0,0.8-0.3,0.8-0.8c0,0,0,0,0,0l0,0c0-0.4-0.3-0.8-0.8-0.8
	h-3.1c-0.3-0.5-0.5-1-0.6-1.5h1.9c0.4,0,0.8-0.3,0.8-0.7c0,0,0,0,0,0l0,0c0-0.4-0.3-0.7-0.7-0.8c0,0,0,0,0,0h-2.1v-0.4
	c0-4.1,3.2-7.4,7.3-7.4c2.1,0,4.1,0.9,5.5,2.4h-2c-0.4,0-0.8,0.3-0.8,0.8c0,0,0,0,0,0l0,0c0,0.4,0.3,0.8,0.8,0.8c0,0,0,0,0,0h3.1
	c0.3,0.5,0.5,1,0.6,1.5h-1.9c-0.4,0-0.8,0.3-0.8,0.8c0,0,0,0,0,0l0,0c0,0.4,0.3,0.8,0.8,0.8c0,0,0,0,0,0h2.1v0.4
	C64.3,83.4,61.1,86.7,57,86.8L57,86.8z"/>
<path id="Path_289" class="st0" d="M80.4,61.7L80.4,61.7c0.4,0,0.8,0.3,0.8,0.8c0,0,0,0,0,0l0,0c0,0.4-0.3,0.8-0.8,0.8c0,0,0,0,0,0
	l0,0c-0.4,0-0.8-0.3-0.8-0.8c0,0,0,0,0,0l0,0C79.6,62.1,80,61.7,80.4,61.7C80.4,61.7,80.4,61.7,80.4,61.7z"/>
<path id="Path_290" class="st0" d="M85.2,72.9L85.2,72.9c0.4,0,0.8,0.3,0.8,0.8c0,0,0,0,0,0l0,0c0,0.4-0.3,0.8-0.8,0.8l0,0
	c-0.4,0-0.8-0.3-0.8-0.8c0,0,0,0,0,0l0,0C84.4,73.2,84.8,72.9,85.2,72.9C85.2,72.9,85.2,72.9,85.2,72.9L85.2,72.9z"/>
<path id="Path_291" class="st0" d="M57.4,74.4L57.4,74.4c0.4,0,0.8,0.3,0.8,0.8c0,0,0,0,0,0l0,0c0,0.4-0.3,0.8-0.8,0.8c0,0,0,0,0,0
	l0,0c-0.4,0-0.8-0.3-0.8-0.8l0,0C56.6,74.8,56.9,74.4,57.4,74.4C57.4,74.4,57.4,74.4,57.4,74.4L57.4,74.4z"/>
<path id="Path_292" class="st0" d="M56.6,82.8L56.6,82.8c0.4,0,0.8,0.3,0.8,0.8l0,0c0,0.4-0.3,0.8-0.8,0.8l0,0
	c-0.4,0-0.8-0.3-0.8-0.8c0,0,0,0,0,0l0,0C55.9,83.2,56.2,82.8,56.6,82.8z"/>
</svg>
