<svg id="Layer_1" data-name="Layer 1" xmlns="http://www.w3.org/2000/svg" viewBox="0 0 175.18 75.02"><defs><style>.cls-1{fill:#607dc6;}.cls-2{fill:#12214f;}</style></defs><path class="cls-1" d="M182.54-223.86" transform="translate(-16.5 -52.36)"/><path class="cls-2" d="M189.64,93.67a8.7,8.7,0,0,0-4.28-2.28,4.34,4.34,0,0,1-1-.1c-1.09-.23-1.75-1-1.75-4V69.49c0-13.13-5-17.13-17.44-17.13-10.23,0-17.38,4.31-17.38,11.36,0,4,2.17,7,6.49,7,3.68,0,7.42-2.7,7.42-6.5,0-.36,0-.71-.05-1A3.71,3.71,0,0,0,158.4,60c-.2-.63-.14-.13-.14-.67,0-2.45,2.35-3.39,5.48-3s5.42,1.9,5.42,11.77v3.47c0,1.75-.53,2.65-2.25,2.65H166a46.5,46.5,0,0,0-6.47.23h-.06c-6.07.11-12.82.84-17,5.21-2.66,2.77-3.93,6.71-3.82,11.7a110.81,110.81,0,0,1-1.49,20.14s0,0,0,0a3.34,3.34,0,0,0-.16.38c-1.89,5.4-5.64,8.13-11,8.13-4,0-6.63-1.35-8.25-4.28-1.49-2.7-2.19-6.76-2.19-12.83a1.94,1.94,0,0,0-.06-.4V75.11a2.42,2.42,0,0,1,2.13-1.29h21.62a2.44,2.44,0,0,0,2.43-2.47c-.26-11.77-6.18-17.88-17.7-17.88a29.8,29.8,0,0,0-5.51.49.12.12,0,0,0-.08,0c-12.37,1.78-16,11-17,16.63a10.51,10.51,0,0,0-4.3,2.51c-2.43,2.42-3.33,5.92-2.66,10.4.49,3.44.23,5.59-1.26,7.09a9.64,9.64,0,0,1-5.52,2.27h-6a1.77,1.77,0,0,1-1.77-1.79v-19c0-7.44,3.82-14.22,8-14.22,1.42,0,1.54.6,1.54,1.19a3.2,3.2,0,0,1-.18,1.09A3.4,3.4,0,0,0,86,63.52c0,4.58,2.6,7.3,7,7.3s7.12-3.09,7.12-8.26c0-6-3.87-9.92-9.83-9.92a11.51,11.51,0,0,0-9,3.92.85.85,0,0,1-.93.25.73.73,0,0,1-.46-.7v-.18a2.41,2.41,0,0,0-2.41-2.41H67.14a.5.5,0,0,0-.17,0H59.3a1.63,1.63,0,0,0-1.64,1.62v.71a1.63,1.63,0,0,0,1.64,1.64h5.14a1.77,1.77,0,0,1,1.42,1.75V91.09a1.77,1.77,0,0,1-1.78,1.79h-3.9c-3,0-4.7.4-6.37,2a7.44,7.44,0,0,0-2.13,5.65v10a8.09,8.09,0,0,0,2.12,6.4A7.89,7.89,0,0,0,59.18,119h.25c4.8,0,7-3.29,7.08-6.35,0-1.09,0-2.5-.05-3.75-.2-5.53,1.32-6.34,2.81-6.4a2.68,2.68,0,0,1,2.16.61c.62.63.86,1.85.72,3.75,0,.22,0,.5,0,.75v.23c0,9.9,2.94,10.93,6.25,11.16a5.6,5.6,0,0,0,4.81-1.36,5.12,5.12,0,0,0,1.2-1.72c1-1.93,1.13-4.48,1.14-7.17h0c.15-3.29.51-5.74,3-5.66s2.31,4.38,2.31,4.38l-.23,8.67a23.12,23.12,0,0,1-.27,2.39,1.05,1.05,0,0,1-.06.3.89.89,0,0,1-.1.33,2.05,2.05,0,0,1-.3.47l-.2.19a1,1,0,0,1-.23.17.4.4,0,0,1-.18.1,3,3,0,0,1-.4.16,1.07,1.07,0,0,1-.36.1l-46.36.15H41.11a12.43,12.43,0,0,1-3-.71l0,0a8.26,8.26,0,0,1-1.57-.94,12,12,0,0,1-3.08-3.7c-1.5-2.7-2.19-6.76-2.19-12.83a1.53,1.53,0,0,0-.14-.6V72.91C31.26,59.67,34.27,55,40.75,55c3.75,0,5.51,1.83,5.51,4.28a6.94,6.94,0,0,1-.19,1.52,1.23,1.23,0,0,1-1.22,1h-.76a1.25,1.25,0,0,0-1.22,1,12.22,12.22,0,0,0-.2,2.14c0,4.2,2.71,6.38,6.46,6.38s6.3-2.45,6.3-7.34c0-6.73-5.32-11.11-15.29-11.11a30.58,30.58,0,0,0-3.22.16h0a.85.85,0,0,0-.23,0c-.36,0-.73.08-1.09.13l-.53.1a1.81,1.81,0,0,0-.23,0c-.17,0-.32.05-.46.09l-.9.18a3.43,3.43,0,0,0-.46.11l-.12,0a7.68,7.68,0,0,0-1,.26l-.17.05c-.46.13-.91.3-1.35.46l-.07,0h0l-.14,0-.26.11c-.18.09-.36.15-.55.23l-.28.14a12.41,12.41,0,0,0-1.27.62l-.66.4a17.27,17.27,0,0,0-2.48,1.8l0,0c-7.12,6.1-8,15.85-8.15,17.54a2.43,2.43,0,0,0,0,.25v25.14h0v1.06c0,.45,0,.88,0,1.31s0,.68.07,1c.83,12.69,8.65,19.93,21.74,19.93H90.56a2.14,2.14,0,0,0,.57,0,4,4,0,0,0,1.52-.52,0,0,0,0,1,0,0,.57.57,0,0,0,.18-.12.07.07,0,0,0,.08-.05,3.65,3.65,0,0,0,1.29-1.4,5.64,5.64,0,0,0,.27-.55l.15-.31c.11-.32.23-.65.33-1s.13-.49.18-.77a16,16,0,0,0,.31-2.93v-7a4.56,4.56,0,0,1,0-.51c.13-1.44.66-10-7-10s-7.2,8.51-7.08,9.69v0c0,2.61.17,5.36-.78,6.3a2.39,2.39,0,0,1-2.59.16c-1.21-.54-1.77-3-1.77-7.29v-.38a2.76,2.76,0,0,1,0-.41c.08-1.12.35-4.55-1.87-6.83a6.66,6.66,0,0,0-5.32-1.85c-3.24.13-7.06,2.1-6.75,10.73,0,1.11,0,2.45,0,3.46,0,.69-.32,2.29-3.08,2.29a4,4,0,0,1-2.6-.92,4.29,4.29,0,0,1-.89-3.36V100.24a3.32,3.32,0,0,1,.86-2.42,5.71,5.71,0,0,1,3.59-1h26.8c.66,0,1.4,0,1.87,0a8.37,8.37,0,0,0,6.91-2.93c2.43-2.53,3.37-6.18,2.66-11-.46-3.11,0-5.41,1.49-6.84a4.66,4.66,0,0,1,1-.76v26.22l.08,1.52c0,14.13,7.77,21.79,21.62,21.79,10,0,16.06-4.19,18.5-12.73a.27.27,0,0,0,0-.14,5.72,5.72,0,0,0,.17-.59c0-.15.08-.32.11-.46l.17-.9a105.07,105.07,0,0,0,1.11-18.78c-.1-3.92.77-6.78,2.66-8.74a10.73,10.73,0,0,1,1.29-1.11,12,12,0,0,0-1,5.06c0,8.53,6.95,11.17,13.49,11.17a13.79,13.79,0,0,0,9.21-3.22c1.32-1.17,2.76,0,3.54.66,1.83,1.64,5.4,2.61,9,2.45a22.07,22.07,0,0,0,2.37-.22c.54-.08,2.63-.08,3.49.75a2.4,2.4,0,0,1,.79,2.41c-.23,3.67-12.28,3.29-20,3-7.54-.28-13.19-.11-16.55.85a5.5,5.5,0,0,0-.16,10.58c1.53.54,5.63.53,14.61.36,4.53-.1,9.24-.18,11.42,0,1.13,0,4.35.45,5.71,2a2.75,2.75,0,0,1,.59,2.37v.25c-.05.71-1.26,2.06-5.44,2.06H152.13a1.4,1.4,0,0,0-1.21,1.42V125a1.13,1.13,0,0,0,1.21,1.11h25.61c3.67,0,6.36-.88,8-2.58a5.37,5.37,0,0,0,1.57-3.46,6.93,6.93,0,0,0-1.57-5.47c-2.81-3.26-8.15-3.46-8.61-3.47-2.29-.18-6.88-.1-11.74,0s-12,.21-13.16-.12a1.4,1.4,0,0,1-.08-2.73,35.89,35.89,0,0,1,9.17-.84c1.8,0,3.89.08,6.09.17,10.89.41,23.26.89,24.18-7C191.94,97.56,191.29,95.24,189.64,93.67ZM123,55.62c5,0,6.3,3.81,6.33,13.35a2.42,2.42,0,0,1-2.41,2.43h-9.19a2.41,2.41,0,0,1-2.41-2.54C115.87,59.1,118.35,55.62,123,55.62Zm46.11,28.91c-.4,4.91-1.8,6.89-5.24,7.67-2.59.6-3.77-1.16-3.74-6,0-5.85,1.39-8.33,7.86-8.33h1.12Z" transform="translate(-16.5 -52.36)"/><path class="cls-2" d="M149,124a3.39,3.39,0,1,1-3.39-3.37A3.38,3.38,0,0,1,149,124Z" transform="translate(-16.5 -52.36)"/><path class="cls-2" d="M16.51,75.47v.25a2.43,2.43,0,0,1,0-.25Z" transform="translate(-16.5 -52.36)"/></svg>