<?xml version="1.0" encoding="utf-8"?>
<!-- Generator: Adobe Illustrator 24.2.1, SVG Export Plug-In . SVG Version: 6.00 Build 0)  -->
<svg version="1.1" id="Layer_1" xmlns="http://www.w3.org/2000/svg" xmlns:xlink="http://www.w3.org/1999/xlink" x="0px" y="0px"
	 viewBox="0 0 126.6 126.6" style="enable-background:new 0 0 126.6 126.6;" xml:space="preserve">
<style type="text/css">
	.st0{fill:#212B4D;}
	.st1{fill:#D4A0AF;}
</style>
<circle id="Ellipse_35" class="st0" cx="63.3" cy="63.3" r="63.3"/>
<path class="st0" d="M85.1,63.3c0,1.4-1.2,2.6-2.6,2.6c0,0,0,0-0.1,0H65.9v16.5c0,1.4-1.1,2.6-2.5,2.7c0,0,0,0-0.1,0
	c-1.5,0-2.7-1.2-2.7-2.7v0V65.9H44.2c-1.4,0-2.6-1.1-2.7-2.5c0,0,0,0,0,0c0-1.5,1.2-2.7,2.7-2.7h16.5V44.2c0-1.5,1.2-2.7,2.7-2.7
	c1.4,0,2.6,1.2,2.6,2.6c0,0,0,0,0,0v16.4h16.5C83.9,60.6,85.1,61.8,85.1,63.3C85.1,63.3,85.1,63.3,85.1,63.3z"/>
<path class="st1" d="M63.3,93c-2.9,0-5.2-2.4-5.2-5.2V68.6H38.8c-2.9,0-5.2-2.4-5.2-5.3c0-2.9,2.4-5.2,5.2-5.2h19.2V38.8
	c-0.1-2.9,2.1-5.3,5-5.5c2.9-0.1,5.3,2.1,5.5,5c0,0.2,0,0.3,0,0.5V58h19.2c2.9,0,5.2,2.4,5.2,5.2c0,2.9-2.4,5.3-5.2,5.3H68.6v19.2
	C68.6,90.7,66.2,93,63.3,93z"/>
<path class="st1" d="M92.2,63.3c0,2.5-2,4.4-4.4,4.5H67.7v20c0.1,2.5-1.8,4.5-4.2,4.7c-2.5,0.1-4.5-1.8-4.7-4.2c0-0.1,0-0.3,0-0.4
	v-20h-20c-2.5,0-4.4-2-4.4-4.5c0-2.5,2-4.4,4.4-4.4h20.1v-20c-0.1-2.5,1.8-4.5,4.2-4.7c2.5-0.1,4.5,1.8,4.7,4.2c0,0.1,0,0.3,0,0.4
	v20h20C90.2,58.8,92.2,60.8,92.2,63.3C92.2,63.3,92.2,63.3,92.2,63.3z"/>
<path class="st0" d="M83.9,63.3c0,1.2-1,2.1-2.1,2.1l0,0H65.5v22.3c0,1.2-1,2.2-2.2,2.2c-1.2,0-2.2-1-2.2-2.2V65.5H38.8
	c-1.2,0-2.2-1-2.2-2.1c0-1.2,1-2.2,2.2-2.2h22.3V38.9c0-1.2,1-2.2,2.2-2.2c1.2,0,2.2,1,2.2,2.2v22.3h16.3
	C83,61.2,83.9,62.2,83.9,63.3z"/>
<circle class="st0" cx="87.7" cy="63.3" r="2.2"/>
</svg>
