<?xml version="1.0" encoding="utf-8"?>
<!-- Generator: Adobe Illustrator 24.2.1, SVG Export Plug-In . SVG Version: 6.00 Build 0)  -->
<svg version="1.1" id="Layer_1" xmlns="http://www.w3.org/2000/svg" xmlns:xlink="http://www.w3.org/1999/xlink" x="0px" y="0px"
	 viewBox="0 0 125.9 125.9" style="enable-background:new 0 0 125.9 125.9;" xml:space="preserve">
<style type="text/css">
	.st0{fill:#212B4D;}
	.st1{fill:#D4A0AF;}
</style>
<g id="Group_486">
	<circle id="Ellipse_36" class="st0" cx="63" cy="63" r="63"/>
	<g id="Group_180">
		<g id="Group_176">
			<g id="Group_175">
				<g id="Group_174">
					<path id="Path_236" class="st1" d="M76.1,51.3c-0.6,0-1.2-0.2-1.7-0.5c-1.5-1-1.9-3-0.9-4.5s3-1.9,4.5-0.9s1.9,3,0.9,4.5
						c-0.6,0.9-1.5,1.4-2.5,1.4C76.3,51.3,76.1,51.3,76.1,51.3z"/>
					<path id="Path_237" class="st1" d="M75.6,49c0.5,0.3,1.1,0.2,1.4-0.2c0.3-0.5,0.2-1.1-0.2-1.4c-0.5-0.3-1.1-0.2-1.4,0.2
						c0,0,0,0,0,0.1l-0.1,0.2C75,48.2,75.2,48.7,75.6,49z"/>
					<path id="Path_238" class="st1" d="M62.1,89.9c-3.4-0.1-6.1-2.9-6.1-6.3v-0.9l-11.3,3.6c-0.5,0.2-1.1,0.3-1.7,0.3
						c-3,0-5.5-2.5-5.5-5.5v0c0-0.6,0.1-1.1,0.3-1.7L51,38.2c0.4-1.3,1.6-2.2,3-2.2c7.4,0,14.7,2.4,20.6,6.8c1.5,0.9,2,2.8,1.2,4.3
						c-0.9,1.5-2.8,2-4.3,1.2c-0.2-0.1-0.4-0.3-0.6-0.5l0,0c-3.4-2.5-7.3-4.2-11.4-5c7.1,1.7,13.4,6,17.6,12
						c1.5,2.2,2.7,4.6,3.6,7.2c0.4,1.1,0.7,2.2,1,3.4c-0.8-4.3-2.5-8.4-5.2-11.9c-1-1.4-0.8-3.4,0.6-4.4c1.4-1,3.4-0.8,4.4,0.6l0,0
						c4.5,5.9,6.9,13.1,6.9,20.6c0,1.4-0.9,2.6-2.2,3L80.3,75v5c0,1.5-0.6,2.9-1.6,4c-2.2,2.2-5.7,2.2-7.9,0c-1.1-1.1-1.6-2.5-1.6-4
						v-1.4l-0.7,0.2v4.9C68.4,87.2,65.6,90,62.1,89.9L62.1,89.9z M47.8,75.1c1,0,1.9,0.2,2.8,0.6c-0.1-0.6-0.2-1.2-0.2-1.8
						c0-0.8,0.1-1.5,0.3-2.3c-1.2,1.1-2.8,1.8-4.5,1.9l-0.6,1.8C46.4,75.2,47.1,75.1,47.8,75.1L47.8,75.1z M58.1,72.5
						c-0.4,0-0.7,0.2-1,0.4c-0.6,0.5-0.6,1.4,0,2c0,0,0,0,0,0l0,0c0.6,0.6,1.5,0.6,2.1,0c0.6-0.5,0.6-1.4,0-2c0,0,0,0,0,0l0,0
						C58.9,72.6,58.6,72.5,58.1,72.5L58.1,72.5z M58.1,66.2c3.9,0,7.2,2.9,7.7,6.8l5.5-1.8c1-0.3,2-0.1,2.8,0.4l0.1,0.1
						c0.3-1,1-1.7,2-2.1c-0.2-0.9-0.4-1.8-0.6-2.6h-0.4c-3.8,0-6.9-3.1-6.9-6.9c0,0,0,0,0,0c0-1.6,0.5-3.2,1.6-4.4
						c-4.1-4.2-9.6-6.9-15.4-7.7l-3.7,11.7c0.1,0.1,0.3,0.2,0.4,0.4c1.5,1.5,2.3,3.5,2.3,5.5c0,0.8-0.1,1.6-0.3,2.3
						C54.5,66.8,56.3,66.1,58.1,66.2L58.1,66.2z"/>
					<path id="Path_239" class="st1" d="M79.8,50.9c-0.4-0.4-1.1-0.3-1.4,0.1c-0.2,0.3-0.3,0.7-0.1,1l0,0c3.8,5,5.9,11.1,6.1,17.4
						l-3.8,1.2c-0.3-2.7-1-5.4-1.9-8l0,0c-0.8-2.4-2-4.6-3.4-6.7l0,0c-5.1-7-13.1-11.5-21.8-12.1l1.2-3.7c6.3,0.1,12.4,2.2,17.5,6
						c0.2,0.1,0.4,0.2,0.6,0.2c0.6,0,1-0.4,1-1c0-0.3-0.2-0.6-0.4-0.8C67.7,40.3,61,38.1,54,38.1c-0.4,0-0.8,0.3-0.9,0.7l-7.4,23.1
						l-2.6,8l0,0l-3.3,10.2c-0.4,1.2-0.1,2.5,0.8,3.3c0.9,0.9,2.2,1.2,3.4,0.8l14.2-4.5v3.9c0,2.2,1.7,4,3.9,4.1h0.1
						c1.1,0,2.1-0.4,2.8-1.2c0.8-0.7,1.2-1.8,1.2-2.9v-6.5l5.1-1.6V80c-0.1,1.9,1.4,3.5,3.2,3.6s3.5-1.4,3.6-3.2c0-0.1,0-0.2,0-0.4
						v-6.6l7.4-2.3c0.4-0.1,0.7-0.5,0.7-0.9C86.3,63.2,84,56.5,79.8,50.9L79.8,50.9z M74.1,57.7c1,1.6,1.8,3.3,2.5,5
						c-1.3,0.8-3,0.3-3.8-1c-0.8-1.3-0.3-3,1-3.8l0,0L74.1,57.7z M48.2,68.4c-0.8,0.8-1.8,1.2-2.9,1.1l2.2-6.8c1.7,1,2.3,3.3,1.2,5
						C48.6,67.9,48.4,68.2,48.2,68.4z M45,81.9c0-1.5,1.2-2.7,2.8-2.7c0.9,0,1.7,0.4,2.2,1.1L45,81.9z M60.7,76.5
						c-1.4,1.4-3.7,1.4-5.1,0c-1.4-1.4-1.4-3.6,0-5l0,0c1.4-1.4,3.7-1.4,5.1,0C62.1,72.9,62.1,75.1,60.7,76.5L60.7,76.5z M76.9,71.8
						c-0.4,0.1-0.7,0.5-0.7,0.9V80c0,0.4-0.2,0.7-0.4,1c-0.6,0.6-1.6,0.6-2.1,0c-0.3-0.3-0.4-0.6-0.4-1v-5.7c0-0.6-0.4-1-1-1
						c-0.1,0-0.2,0-0.3,0l-7,2.2c-0.4,0.1-0.7,0.5-0.7,0.9v7.2c0,0.6-0.2,1.1-0.6,1.5c-0.4,0.4-1,0.6-1.6,0.6c-1.1-0.1-2-1-2-2.2V79
						c0.7-0.3,1.4-0.7,2-1.3l0,0c2.1-2.2,2.1-5.6,0-7.8l0,0c-2.2-2.1-5.7-2.1-7.9,0c-2.1,2.2-2.1,5.6,0,7.8l0,0
						c0.3,0.3,0.7,0.6,1.1,0.8l-3.4,1.1c-1.2-2.3-4-3.2-6.3-2c-1.5,0.8-2.5,2.4-2.5,4.2c0,0.2,0,0.4,0,0.6c-0.4,0-0.8-0.1-1.1-0.4
						c-0.4-0.3-0.5-0.9-0.3-1.4l3-9.4c0.3,0,0.6,0.1,0.9,0.1c1.5,0,2.9-0.6,4-1.7c2.2-2.2,2.2-5.7,0.1-7.9c0,0,0,0,0,0l-0.1-0.1
						c-0.4-0.4-0.9-0.7-1.5-1l4.9-15.1c7.8,0.6,15,4.3,20,10.4c-2.3,1.3-3.1,4.1-1.9,6.4c0.8,1.5,2.4,2.4,4.2,2.4
						c0.7,0,1.4-0.1,2-0.4c0.7,2.2,1.2,4.4,1.5,6.7L76.9,71.8z"/>
					<path id="Path_240" class="st1" d="M58.4,62.6c-4.4,0-8-3.6-8-8l0,0c0-4.4,3.6-8,8-8s8,3.6,8,8S62.8,62.6,58.4,62.6z
						 M58.4,52.9c-0.5,0-0.9,0.2-1.2,0.5c-0.3,0.3-0.5,0.7-0.5,1.2c0,0.5,0.2,0.9,0.5,1.2c0.7,0.7,1.8,0.7,2.5,0
						c0.7-0.6,0.7-1.7,0-2.3c0,0,0,0,0,0l0,0C59.3,53.1,58.9,52.9,58.4,52.9z"/>
					<path id="Path_241" class="st1" d="M64.3,54.6c0-1.5-0.6-3-1.7-4.1c-2.3-2.3-6-2.3-8.3,0c-2.3,2.3-2.3,5.9,0,8.2c0,0,0,0,0,0
						l0,0c2.3,2.3,6,2.3,8.3,0C63.7,57.6,64.3,56.1,64.3,54.6L64.3,54.6z M61.2,57.3c-1.6,1.5-4,1.5-5.6,0c-1.5-1.5-1.5-3.9,0-5.4
						c0,0,0,0,0,0v-0.1c1.6-1.5,4-1.5,5.6,0C62.7,53.3,62.7,55.8,61.2,57.3C61.2,57.3,61.2,57.3,61.2,57.3L61.2,57.3z"/>
					<path id="Path_242" class="st1" d="M67.2,72.6c-0.9,0-1.7-0.4-2.3-1l-5.8-6c-1.2-1.3-1.2-3.2,0.1-4.4c1.4-1.3,3.2-2.1,5.1-2.1
						c2,0,3.9,0.8,5.3,2.3c2.8,2.9,2.7,7.6-0.2,10.4C68.9,72.3,68.1,72.6,67.2,72.6z"/>
					<path id="Path_243" class="st1" d="M68.1,62.9c-2-2-5.2-2.1-7.3-0.1c0,0,0,0,0,0c-0.2,0.2-0.3,0.4-0.3,0.7
						c0,0.3,0.1,0.5,0.3,0.7l5.8,6c0.4,0.4,1,0.4,1.4,0l0,0C70,68.2,70,64.9,68.1,62.9L68.1,62.9z M67.2,68l-4.2-4.4
						c1.6-0.8,3.5-0.2,4.3,1.4C67.7,65.9,67.7,67,67.2,68z"/>
				</g>
			</g>
		</g>
		<path id="Path_244" class="st1" d="M40.4,81.9l14.4-41.8l20.5,7.7l6.8,8.4l2.3,13.2L40.4,81.9z"/>
		<g id="Group_179">
			<g id="Group_178">
				<g id="Group_177">
					<path id="Path_245" class="st0" d="M75.6,49c0.3,0.2,0.8,0.2,1.1,0c0.3-0.2,0.4-0.6,0.3-1c0-0.6-0.4-1-1-1c-0.6,0-1,0.4-1,1
						c0,0.2,0,0.4,0.1,0.5C75.2,48.7,75.4,48.9,75.6,49L75.6,49z"/>
					<path id="Path_246" class="st0" d="M79.8,50.9c-0.4-0.4-1.1-0.3-1.4,0.1c-0.2,0.3-0.3,0.7-0.1,1l0,0c3.8,5,5.9,11.1,6.1,17.4
						l-3.8,1.2c-0.3-2.7-1-5.4-1.9-8l0,0c-0.8-2.4-2-4.6-3.4-6.7l0,0c-5.1-7-13.1-11.5-21.8-12.1l1.2-3.7c6.3,0.1,12.4,2.2,17.4,6
						c0.5,0.2,1.1,0,1.3-0.5c0.1-0.3,0.1-0.7-0.2-1c-5.6-4.2-12.3-6.4-19.3-6.4c-0.4,0-0.8,0.3-0.9,0.7l-7.4,23.1l-2.6,8l0,0
						l-3.3,10.2c-0.5,1.8,0.4,3.6,2.2,4.2c0.6,0.2,1.3,0.2,2,0l14.2-4.5v3.9c0,2.2,1.8,4,4,4.1h0.1c1.1,0,2.1-0.4,2.8-1.1
						c0.8-0.8,1.2-1.8,1.2-2.9v-6.5l5.1-1.6V80c0,1.9,1.5,3.4,3.4,3.4c0.9,0,1.8-0.4,2.4-1c0.6-0.6,1-1.5,1-2.4v-6.6l7.4-2.4
						c0.4-0.1,0.7-0.5,0.7-0.9C86.3,63.2,84.1,56.5,79.8,50.9L79.8,50.9z M74.1,57.7c1,1.6,1.8,3.3,2.5,5c-1.3,0.8-3,0.3-3.8-1
						c-0.8-1.3-0.3-3,1-3.8l0,0L74.1,57.7z M48.2,68.4c-0.8,0.8-1.8,1.2-2.9,1.1l2.2-6.8c1.7,1,2.3,3.3,1.2,5
						C48.6,67.9,48.4,68.2,48.2,68.4z M45,81.9c0-1.5,1.3-2.7,2.8-2.7c0.9,0,1.7,0.4,2.2,1.1L45,81.9z M60.7,76.5
						c-1.4,1.4-3.7,1.4-5.1,0c-1.4-1.4-1.4-3.6,0-5l0,0c1.4-1.4,3.7-1.4,5.1,0C62.1,72.9,62.1,75.1,60.7,76.5L60.7,76.5z M76.9,71.8
						c-0.4,0.1-0.7,0.5-0.7,0.9V80c0,0.4-0.2,0.7-0.4,1c-0.6,0.6-1.6,0.6-2.1,0c-0.3-0.3-0.4-0.6-0.4-1v-5.7c0-0.6-0.4-1-1-1
						c-0.1,0-0.2,0-0.3,0l-7,2.2c-0.4,0.1-0.7,0.5-0.7,0.9v7.2c0,0.6-0.2,1.1-0.6,1.5c-0.4,0.4-1,0.6-1.6,0.6c-1.1-0.1-2-1-2-2.2
						v-4.6c0.7-0.3,1.4-0.7,2-1.3l0,0c2.1-2.1,2.1-5.6,0-7.8c0,0,0,0,0,0l0,0c-2.2-2.1-5.7-2.1-7.9,0c-2.1,2.2-2.1,5.6,0,7.8l0,0
						c0.3,0.3,0.7,0.6,1.1,0.9l-3.4,1.1c-1.2-2.3-4.1-3.1-6.4-1.9c-1.5,0.8-2.5,2.4-2.5,4.1c0,0.2,0,0.4,0,0.5
						c-0.8,0.1-1.4-0.5-1.5-1.3c0-0.2,0-0.3,0.1-0.5l3-9.4c0.3,0,0.6,0.1,0.9,0.1c3.1,0,5.6-2.5,5.6-5.6c0-1.5-0.6-2.9-1.6-4
						c-0.4-0.4-0.9-0.8-1.5-1.1l4.9-15.1c7.8,0.6,15,4.3,20,10.4c-2.3,1.3-3.1,4.1-1.9,6.4c0.8,1.5,2.4,2.4,4.2,2.4
						c0.7,0,1.4-0.1,2-0.4c0.7,2.2,1.2,4.4,1.5,6.7L76.9,71.8z"/>
					<path id="Path_247" class="st0" d="M64.3,54.6c0-1.5-0.6-3-1.7-4.1c-2.3-2.3-6-2.3-8.3,0c-2.3,2.3-2.3,5.9,0,8.2c0,0,0,0,0,0
						l0,0c2.3,2.3,6,2.3,8.3,0C63.7,57.6,64.3,56.1,64.3,54.6L64.3,54.6z M61.2,57.3c-1.6,1.5-4,1.5-5.6,0c-1.5-1.5-1.5-4,0-5.5
						c0,0,0,0,0,0l0,0c1.6-1.5,4-1.5,5.6,0C62.7,53.3,62.7,55.8,61.2,57.3C61.2,57.3,61.2,57.3,61.2,57.3z"/>
					<path id="Path_248" class="st0" d="M68.1,62.9c-2-2-5.2-2.1-7.3-0.1c0,0,0,0,0,0c-0.2,0.2-0.3,0.4-0.3,0.7
						c0,0.3,0.1,0.5,0.3,0.7l5.8,6c0.2,0.2,0.4,0.3,0.7,0.3c0.3,0,0.5-0.1,0.7-0.3C70,68.2,70,64.9,68.1,62.9L68.1,62.9z M67.2,68
						l-4.2-4.4c1.6-0.8,3.5-0.2,4.3,1.4C67.7,65.9,67.7,67.1,67.2,68z"/>
				</g>
			</g>
		</g>
	</g>
</g>
</svg>
