<?xml version="1.0" encoding="utf-8"?>
<!-- Generator: Adobe Illustrator 24.2.1, SVG Export Plug-In . SVG Version: 6.00 Build 0)  -->
<svg version="1.1" id="Layer_1" xmlns="http://www.w3.org/2000/svg" xmlns:xlink="http://www.w3.org/1999/xlink" x="0px" y="0px"
	 viewBox="0 0 126.6 126.6" style="enable-background:new 0 0 126.6 126.6;" xml:space="preserve">
<style type="text/css">
	.st0{fill:#212B4D;}
	.st1{fill:#D4A0AF;}
</style>
<g id="Group_490">
	<circle id="Ellipse_35" class="st0" cx="63.3" cy="63.3" r="63.3"/>
	<g id="Group_169">
		<path id="Path_226" class="st1" d="M72.9,87.2h-20l-6.5-11l-1.1-13l-1-8.3l7.5-2l1.8-5.2L47.9,41l3.8-1.4l6.7,2.1l4.8-1.8l3.4,5.6
			l5.7,6.5l1.4,6.2l3.4,1.9L72.9,87.2z"/>
		<g id="Group_166">
			<g id="Group_165">
				<path id="Path_227" class="st1" d="M50.6,90.9c-2.6-0.1-4.7-2-5-4.6l-2.8-15.5c-2.5-1.1-3.7-4-2.6-6.6c0.2-0.5,0.5-0.9,0.9-1.3
					c-0.4-1-0.5-2.1-0.6-3.2c-0.1-1.9,0.5-3.8,1.9-5.2c1-0.7,2.3-1.1,3.5-1h0.4c0.5-0.5,1.1-1,1.7-1.4c0-1.2,0.2-2.4,0.5-3.6
					l-0.2-0.3c-1.4-1.7-2.1-3.9-2.1-6.1c-0.1-1.9,0.6-3.8,1.9-5.2c1-0.7,2.3-1.1,3.5-1.1c2,0,4,0.6,5.7,1.8c2.3-1.4,4.9-2.1,7.6-2.1
					c1.6,0,3.2,0.3,4.7,0.9c1.4,0.5,2.1,2.1,1.6,3.5c-0.2,0.6-0.7,1.1-1.3,1.5c-1.9,0.9-2,1-1.7,2.4c1,0.3,1.9,0.7,2.7,1.2l7-7
					c2.1-2,5.4-1.9,7.4,0.2c1.9,2,1.9,5.2,0,7.2l0,0L77,53.7c0.8,0.7,1.5,1.6,2.1,2.5c0.9,1.7,1.4,3.6,1.2,5.5
					c2,0.7,3.3,2.6,3.3,4.7c0,2-1.2,3.8-3,4.6l-2.8,15.5c-0.3,2.5-2.4,4.5-5,4.6H50.6z M64.4,85.4c-1.1-1-1.1-2.8-0.1-3.9
					c0,0,0,0,0,0c0.5-0.5,1.2-0.8,2-0.8h7l1.7-9.4H48.5l1.7,9.4h7c1.5,0,2.7,1.2,2.7,2.7c0,0.7-0.3,1.5-0.8,2H64.4z M74.9,61.3
					c0.1-0.8-0.1-1.7-0.5-2.4c-0.2-0.3-0.4-0.6-0.6-0.8c-0.3,0.4-0.6,0.7-0.9,1c0.1,0.8,0.1,1.5,0,2.3L74.9,61.3z M67.3,61.3
					c0.1-0.4,0.1-0.7,0.1-1.1c0-0.1,0-0.3,0-0.4c-1.2,0-2.3,0.6-3.2,1.4l-0.1,0.1L67.3,61.3z M58.2,61.3c0.3-1.3,0.9-2.6,1.8-3.6
					c1.4-1.7,3.4-2.8,5.5-3.2c0.7-0.1,1.3-0.2,2-0.2c0.7,0,1.4,0.1,2,0.3c0.1-0.2,0.2-0.5,0.2-0.7c0.2-1.1-0.1-2.2-0.7-3.1l-0.1-0.2
					c-0.2-0.2-0.5-0.5-0.7-0.7c-0.8,1.8-2.1,3.4-3.7,4.6c-1.2,1-2.9,0.8-3.9-0.4c-1-1.2-0.8-2.9,0.4-3.9c0.1,0,0.1-0.1,0.2-0.1l0,0
					c2.4-1.8,2.2-2.7,1.7-4.4c-0.5-1.4-0.5-2.8-0.2-4.2c-0.7,0.2-1.4,0.4-2,0.8c0.3,0.8,0.4,1.7,0.4,2.5c-0.2,3.3-2.6,6-5.9,6.5
					c1.1,0.3,2.2,0.7,3.1,1.3c1.2,0.9,1.6,2.6,0.7,3.8c-0.8,1.2-2.4,1.5-3.6,0.8c-0.7-0.5-1.6-0.8-2.5-0.8c0.2,0.2,0.3,0.4,0.5,0.6
					c1.1,1.2,1.8,2.7,1.9,4.4L58.2,61.3z M49.8,61.3c-0.1-0.3-0.3-0.6-0.6-0.9c-0.8-0.9-1.9-1.4-3.1-1.5c-0.1,0.8,0,1.6,0.3,2.3
					H49.8z M51.8,41.5c-0.2,1.2,0.1,2.4,0.8,3.3c0.7,0.8,1.1,0.9,1.2,0.9l0.4,0.1c0.3,0,0.6-0.1,0.9-0.3c0.3-0.2,0.5-0.6,0.5-1
					c0-0.3,0-0.7-0.7-1.5C54.1,42.1,53,41.5,51.8,41.5L51.8,41.5z"/>
				<path id="Path_228" class="st1" d="M85,41.7c0-1.9-1.6-3.5-3.5-3.5c-0.9,0-1.8,0.4-2.4,1L71,47.4c-1.2-1.1-2.7-1.8-4.3-2
					c0-0.2-0.1-0.4-0.2-0.6c-0.5-2-0.8-3.1,2.5-4.7c0.5-0.2,0.7-0.8,0.5-1.3c0,0,0,0,0,0c-0.1-0.2-0.3-0.4-0.5-0.5
					c-4-1.4-8.4-0.7-11.8,1.8c-2.1-2.2-5.3-2.8-8-1.5c-0.9,1.1-1.3,2.5-1.2,3.8c0,1.8,0.6,3.6,1.7,5c0.3,0.3,0.6,0.6,0.9,0.9
					c-0.6,1.6-0.9,3.3-0.8,5c-1.1,0.5-2.1,1.2-2.8,2.1c-1.2-0.3-2.5-0.1-3.5,0.6c-0.9,1.1-1.4,2.4-1.2,3.8c0,1.3,0.3,2.6,0.9,3.8
					c-1.5,0.9-2,2.9-1.1,4.5c0.5,0.8,1.3,1.4,2.3,1.5L47.3,86c0.2,1.7,1.6,3.1,3.3,3.2h22.3c1.7-0.1,3.1-1.4,3.3-3.1l3-16.5
					c1.8-0.2,3-1.9,2.8-3.7c-0.2-1.6-1.6-2.8-3.2-2.8h-0.3c0.5-2,0.2-4.2-0.8-6c-0.8-1.3-1.9-2.4-3.3-3.2l9.6-9.7
					C84.7,43.5,85,42.7,85,41.7L85,41.7z M50.5,40c2.1-0.5,4.3,0.2,5.7,1.9c0.7,0.7,1.1,1.6,1.1,2.6l0,0c-0.1,1.7-1.5,3.1-3.2,3
					c-0.1,0-0.3,0-0.4,0h-0.1c-1-0.2-1.8-0.8-2.4-1.6C49.9,44.2,49.6,41.9,50.5,40L50.5,40z M51.1,54.9L51.1,54.9
					c0.1,0,0.2,0,0.3-0.1c1.7-0.4,3.5-0.1,5,0.9c0.5,0.3,1.1,0.2,1.4-0.3c0,0,0,0,0,0c0.3-0.5,0.2-1.1-0.3-1.4c0,0,0,0,0,0
					c-1.6-1.1-3.6-1.5-5.6-1.3c0-1.2,0.1-2.3,0.5-3.5c0.3,0.1,0.7,0.2,1,0.3c0.3,0,0.5,0.1,0.8,0.1c2.9,0,5.2-2.4,5.1-5.2
					c0,0,0,0,0,0c0-1-0.3-2-0.9-2.8c2.2-1.5,4.9-2.2,7.6-2c-0.7,0.6-1.3,1.3-1.6,2.2c-0.3,1.2-0.2,2.4,0.2,3.6
					c0.5,2,0.9,3.7-2.4,6.2c-0.4,0.3-0.5,1-0.2,1.4c0.3,0.4,1,0.5,1.4,0.2c2-1.2,3.3-3.3,3.5-5.6c1.3,0.3,2.4,1,3.3,1.9l0,0l0.2,0.2
					c1,1.3,1.4,2.9,1.1,4.5c-0.1,1-0.7,2-1.7,2.5c-1.2-0.7-2.6-0.8-3.9-0.5c-1.8,0.4-3.4,1.3-4.6,2.7c-1,1.1-1.6,2.5-1.5,4V63h-6.3
					c0.1-0.3,0.1-0.7,0.1-1c0-1.5-0.5-2.9-1.5-4c-0.8-0.9-1.8-1.6-2.9-2.1C49.7,55.5,50.4,55.1,51.1,54.9L51.1,54.9z M61.8,62.8
					L61.8,62.8c0-1,0.4-2,1.1-2.7c1.4-1.7,3.6-2.4,5.7-1.9c0.4,0.6,0.6,1.3,0.5,1.9c0,1-0.2,2-0.6,2.9h-6.7
					C61.8,63,61.8,62.9,61.8,62.8L61.8,62.8z M44.8,57.5c2.1-0.5,4.3,0.2,5.7,1.9c0.7,0.7,1.1,1.6,1.1,2.6V62c0,0.3-0.1,0.7-0.2,1
					h-6.1C44.2,61.4,44,59.3,44.8,57.5L44.8,57.5z M72.9,87.2H50.6c-1,0-1.2-1.2-1.3-1.4l-0.2-1.2h8.1c0.6,0,1-0.4,1-1
					c0-0.6-0.4-1-1-1h-8.5l-2.3-12.9H77l-2.3,12.9h-8.5c-0.6,0-1,0.4-1,1c0,0.6,0.4,1,1,1h8.1l-0.2,1.2C74.1,86,73.8,87.2,72.9,87.2
					L72.9,87.2z M79.9,66.4c0,0.7-0.6,1.2-1.2,1.2l0,0H44.8c-0.7,0-1.3-0.5-1.3-1.2c0-0.7,0.5-1.3,1.2-1.3h34
					C79.4,65.1,79.9,65.7,79.9,66.4C79.9,66.3,79.9,66.3,79.9,66.4L79.9,66.4z M75.8,58.1c0.8,1.5,1,3.3,0.5,5h-5.6
					c0.5-1.5,0.5-3.2,0.1-4.7c1.1-0.6,1.9-1.6,2.3-2.7C74.2,56.2,75.2,57,75.8,58.1z M82.5,42.8l-9.1,9.1c-0.2-1.1-0.6-2.1-1.2-3
					l8.2-8.2c0.6-0.6,1.5-0.6,2.1,0C83.1,41.3,83.1,42.2,82.5,42.8L82.5,42.8L82.5,42.8L82.5,42.8z"/>
				<path id="Path_229" class="st1" d="M61.8,86.2c-1.5,0-2.7-1.2-2.7-2.7c0-1.5,1.2-2.7,2.7-2.7s2.7,1.2,2.7,2.7c0,0,0,0,0,0l0,0
					C64.5,85,63.3,86.2,61.8,86.2z"/>
				<path id="Path_230" class="st1" d="M61.8,82.4c-0.6,0-1,0.4-1,1c0,0.6,0.4,1,1,1l0,0c0.6,0,1-0.4,1-1
					C62.8,82.9,62.3,82.4,61.8,82.4z"/>
			</g>
		</g>
		<g id="Group_168">
			<g id="Group_167">
				<path id="Path_231" class="st0" d="M85,41.7c0-1.9-1.6-3.5-3.5-3.5c-0.9,0-1.8,0.4-2.4,1L71,47.4c-1.2-1.1-2.7-1.8-4.3-2
					c0-0.2-0.1-0.4-0.2-0.6c-0.5-2-0.8-3.1,2.5-4.7c0.5-0.2,0.7-0.8,0.5-1.3c0,0,0,0,0,0c-0.1-0.2-0.3-0.4-0.5-0.5
					c-4-1.4-8.4-0.7-11.8,1.8c-2.1-2.2-5.3-2.8-8-1.5c-0.9,1.1-1.4,2.4-1.3,3.8c0,1.8,0.6,3.6,1.7,5c0.3,0.3,0.6,0.6,0.9,0.9
					c-0.6,1.6-0.8,3.3-0.7,5c-1.1,0.5-2.1,1.2-2.8,2.1c-1.2-0.3-2.5-0.1-3.5,0.6c-0.9,1.1-1.4,2.4-1.2,3.8c0,1.3,0.3,2.6,0.9,3.8
					c-1.5,0.9-2.1,2.9-1.2,4.4c0.5,0.8,1.4,1.4,2.3,1.6L47.3,86c0.2,1.7,1.6,3.1,3.3,3.2h22.3c1.7-0.1,3.1-1.4,3.3-3.1l3-16.5
					c1.8-0.2,3-1.9,2.8-3.7c-0.2-1.6-1.6-2.8-3.2-2.8h-0.3c0.5-2,0.2-4.2-0.8-6c-0.8-1.3-1.9-2.4-3.3-3.2l9.6-9.7
					C84.7,43.6,85,42.7,85,41.7L85,41.7z M50.5,40c2.1-0.5,4.3,0.2,5.7,1.9c0.7,0.7,1.1,1.6,1.1,2.6l0,0c-0.1,1.7-1.5,3.1-3.2,3
					c-0.1,0-0.3,0-0.4,0h-0.1c-1-0.2-1.8-0.8-2.4-1.6C49.9,44.2,49.6,41.9,50.5,40L50.5,40z M51.1,54.9L51.1,54.9
					c0.1,0,0.2,0,0.3-0.1c1.7-0.4,3.5-0.1,5,0.9c0.5,0.3,1.1,0.2,1.4-0.3c0,0,0,0,0,0c0.3-0.5,0.2-1.1-0.3-1.4c0,0,0,0,0,0
					c-1.6-1.1-3.6-1.5-5.6-1.3c0-1.2,0.1-2.3,0.5-3.5c0.3,0.1,0.7,0.2,1,0.3c0.3,0,0.5,0.1,0.8,0.1c2.9,0,5.2-2.4,5.1-5.2
					c0,0,0,0,0,0c0-1-0.3-2-0.9-2.8c2.2-1.5,4.9-2.2,7.6-2c-0.7,0.6-1.3,1.3-1.6,2.2c-0.3,1.2-0.2,2.4,0.2,3.6
					c0.5,2,0.9,3.7-2.4,6.2c-0.4,0.3-0.5,1-0.2,1.4c0.3,0.4,1,0.5,1.4,0.2c2-1.2,3.3-3.3,3.5-5.6c1.3,0.3,2.4,1,3.3,1.9l0,0
					c0.1,0.1,0.1,0.1,0.2,0.2c1,1.3,1.4,2.9,1.1,4.5c-0.1,1-0.7,2-1.7,2.5c-1.2-0.7-2.6-0.8-3.9-0.5c-1.8,0.4-3.4,1.3-4.5,2.7
					c-1,1.1-1.6,2.5-1.5,4V63h-6.3c0.1-0.3,0.1-0.7,0.1-1c0-1.5-0.5-2.9-1.5-4c-0.8-0.9-1.8-1.6-2.9-2.1
					C49.7,55.5,50.4,55.1,51.1,54.9L51.1,54.9z M61.8,62.8L61.8,62.8c0-1,0.4-2,1.1-2.7c1.4-1.7,3.6-2.4,5.7-1.9
					c0.4,0.6,0.5,1.3,0.5,1.9c0,1-0.2,2-0.6,2.9h-6.7C61.8,63,61.8,62.9,61.8,62.8L61.8,62.8z M44.8,57.5c2.1-0.5,4.3,0.2,5.7,1.9
					c0.7,0.7,1.1,1.6,1.1,2.6V62c0,0.3-0.1,0.7-0.2,1h-6.1C44.2,61.4,44,59.3,44.8,57.5L44.8,57.5z M72.9,87.2H50.6
					c-1,0-1.2-1.2-1.3-1.4l-0.2-1.2h8.1c0.6,0,1-0.4,1-1c0-0.6-0.4-1-1-1h-8.5l-2.3-12.9H77l-2.3,12.9h-8.5c-0.6,0-1,0.4-1,1
					c0,0.6,0.4,1,1,1h8.1l-0.2,1.2C74.1,86,73.8,87.2,72.9,87.2L72.9,87.2z M79.9,66.4c0,0.7-0.6,1.2-1.2,1.2l0,0H44.8
					c-0.7,0-1.3-0.5-1.3-1.2c0-0.7,0.5-1.3,1.2-1.3h34C79.4,65.1,79.9,65.7,79.9,66.4L79.9,66.4z M75.8,58.1c0.8,1.5,1,3.3,0.5,5
					h-5.6c0.5-1.5,0.6-3.2,0.2-4.7c1.1-0.6,1.9-1.6,2.3-2.7C74.2,56.2,75.2,57,75.8,58.1z M82.5,42.8l-9.1,9.1
					c-0.2-1.1-0.6-2.1-1.2-3l8.2-8.2c0.6-0.6,1.5-0.6,2.1,0C83.1,41.3,83.1,42.2,82.5,42.8L82.5,42.8L82.5,42.8L82.5,42.8z"/>
				<path id="Path_232" class="st0" d="M61.8,82.4c-0.6,0-1,0.4-1,1c0,0.6,0.4,1,1,1l0,0c0.6,0,1-0.4,1-1
					C62.8,82.9,62.3,82.4,61.8,82.4z"/>
			</g>
		</g>
	</g>
</g>
</svg>
