<?xml version="1.0" encoding="utf-8"?>
<!-- Generator: Adobe Illustrator 24.2.1, SVG Export Plug-In . SVG Version: 6.00 Build 0)  -->
<svg version="1.1" id="Layer_1" xmlns="http://www.w3.org/2000/svg" xmlns:xlink="http://www.w3.org/1999/xlink" x="0px" y="0px"
	 viewBox="0 0 119 119" style="enable-background:new 0 0 119 119;" xml:space="preserve">
<style type="text/css">
	.st0{fill:#F5B6AB;stroke:#12214F;stroke-width:5;stroke-miterlimit:10;}
	.st1{fill:#212B4D;}
</style>
<circle class="st0" cx="59.5" cy="59.5" r="57"/>
<path class="st1" d="M87.6,54.6L60.4,34.7c-0.5-0.4-1.2-0.4-1.8,0L31.4,54.6c-0.7,0.5-0.8,1.4-0.3,2.1c0.5,0.7,1.4,0.8,2.1,0.3l0,0
	l25.2-18.4c0.7-0.5,1.6-0.5,2.3,0L85.9,57c0.3,0.2,0.6,0.3,0.9,0.3c0.5,0,0.9-0.2,1.2-0.6C88.4,56,88.3,55.1,87.6,54.6
	C87.6,54.6,87.6,54.6,87.6,54.6z"/>
<path class="st1" d="M80.3,69.1c-0.8,0.1-1.4,0.7-1.4,1.5v11c0,0.5-0.4,0.9-0.9,0.9c0,0,0,0,0,0H67.9c-0.5,0-0.9-0.4-0.9-0.9V69.8
	c0-4.1-3.3-7.5-7.4-7.5s-7.5,3.3-7.5,7.4l0,0v12.1c0,0.5-0.4,0.9-0.9,0.9c0,0,0,0,0,0H41c-0.5,0-0.9-0.4-0.9-0.9c0,0,0,0,0,0V52.6
	c0-0.8-0.6-1.5-1.4-1.5c-0.8,0-1.5,0.6-1.6,1.4c0,0,0,0.1,0,0.1v31.5c0,0.8,0.7,1.5,1.5,1.5h14.9c0.8,0,1.4-0.6,1.5-1.4
	c0,0,0-0.1,0-0.1V69.7c0-2.5,1.9-4.5,4.4-4.6c2.5-0.1,4.5,1.9,4.6,4.4c0,0,0,0.1,0,0.1v14.5c0,0,0,0.1,0,0.1
	c0.1,0.8,0.7,1.4,1.5,1.4h15c0.8,0,1.5-0.7,1.5-1.5V70.6C81.9,69.8,81.2,69.1,80.3,69.1C80.4,69.1,80.4,69.1,80.3,69.1z"/>
<circle class="st1" cx="80.4" cy="64.6" r="1.4"/>
<path class="st1" d="M80.4,60c-0.8,0-1.5-0.7-1.5-1.5v-6.8c-0.1-0.8,0.4-1.6,1.3-1.7c0.8-0.1,1.6,0.4,1.7,1.3c0,0.2,0,0.3,0,0.5v6.8
	C81.9,59.3,81.2,60,80.4,60z"/>
</svg>
