<?xml version="1.0" encoding="utf-8"?>
<!-- Generator: Adobe Illustrator 24.2.1, SVG Export Plug-In . SVG Version: 6.00 Build 0)  -->
<svg version="1.1" id="Layer_1" xmlns="http://www.w3.org/2000/svg" xmlns:xlink="http://www.w3.org/1999/xlink" x="0px" y="0px"
	 viewBox="0 0 114 114" style="enable-background:new 0 0 114 114;" xml:space="preserve">
<style type="text/css">
	.st0{fill:#F5B6AB;}
	.st1{fill:#212B4D;}
</style>
<circle class="st0" cx="57" cy="57" r="57"/>
<path class="st1" d="M85.1,51.6l-27.2-20c-0.5-0.4-1.2-0.4-1.8,0l-27.2,20c-0.7,0.4-1,1.3-0.6,2c0.4,0.7,1.3,1,2,0.6
	c0.1-0.1,0.2-0.1,0.3-0.2l25.2-18.4c0.7-0.5,1.6-0.5,2.3,0L83.4,54c0.3,0.2,0.6,0.3,0.9,0.3c0.5,0,0.9-0.2,1.2-0.6
	C85.9,53,85.8,52.1,85.1,51.6z"/>
<path class="st1" d="M77.8,66.1c-0.8,0.1-1.4,0.7-1.4,1.5v11c0,0.5-0.4,0.9-0.9,0.9c0,0,0,0,0,0H65.4c-0.5,0-0.9-0.4-0.9-0.9V66.8
	c0-4.1-3.3-7.5-7.4-7.5c-4.1,0-7.5,3.3-7.5,7.4v12.1c0,0.5-0.4,0.9-0.9,0.9c0,0,0,0,0,0H38.5c-0.5,0-0.9-0.4-0.9-0.9c0,0,0,0,0,0
	V49.6c0-0.8-0.6-1.5-1.4-1.5c-0.8,0-1.5,0.6-1.6,1.4c0,0,0,0,0,0.1v31.5c0,0.8,0.7,1.5,1.5,1.5c0,0,0,0,0,0H51
	c0.8,0,1.4-0.6,1.5-1.4c0,0,0-0.1,0-0.1V66.7c0-2.5,2-4.5,4.5-4.5s4.5,2,4.5,4.5v14.5c0,0,0,0.1,0,0.1c0.1,0.8,0.7,1.4,1.5,1.4h14.9
	c0.8,0,1.5-0.7,1.5-1.5c0,0,0,0,0,0V67.6C79.4,66.8,78.7,66.1,77.8,66.1C77.9,66.1,77.9,66.1,77.8,66.1z"/>
<circle class="st1" cx="77.9" cy="61.6" r="1.4"/>
<path class="st1" d="M77.9,57c-0.8,0-1.5-0.7-1.5-1.5v-6.8c0.1-0.8,0.9-1.4,1.7-1.3c0.6,0.1,1.1,0.6,1.3,1.3v6.8
	C79.4,56.3,78.7,57,77.9,57z"/>
</svg>
