<svg id="Layer_1" data-name="Layer 1" xmlns="http://www.w3.org/2000/svg" viewBox="0 0 200 200"><defs><style>.cls-1{fill:#f5b6ab;stroke:#12214f;stroke-miterlimit:10;stroke-width:5px;}.cls-2{fill:#212b4d;}</style></defs><circle class="cls-1" cx="100" cy="100" r="57"/><path class="cls-2" d="M128.12,95.12,100.88,75.18a1.47,1.47,0,0,0-1.76,0L71.88,95.12a1.49,1.49,0,1,0,1.76,2.41L98.83,79.09a2,2,0,0,1,2.34,0l25.19,18.44a1.43,1.43,0,0,0,.88.29,1.47,1.47,0,0,0,1.2-.61A1.49,1.49,0,0,0,128.12,95.12Z"/><path class="cls-2" d="M120.83,109.61a1.52,1.52,0,0,0-1.42,1.53v11a.94.94,0,0,1-.94.94H108.4a.94.94,0,0,1-.93-.94V110.27a7.47,7.47,0,1,0-14.94-.11v12.09a.87.87,0,0,1-.88.88H81.47a.87.87,0,0,1-.88-.88V93.12a1.52,1.52,0,0,0-1.42-1.53,1.49,1.49,0,0,0-1.57,1.49v31.54a1.5,1.5,0,0,0,1.5,1.5H94a1.49,1.49,0,0,0,1.48-1.38.41.41,0,0,0,0-.12V110.24a4.54,4.54,0,0,1,4.37-4.56,4.48,4.48,0,0,1,4.59,4.48v14.46a.41.41,0,0,0,0,.12,1.49,1.49,0,0,0,1.48,1.38H120.9a1.5,1.5,0,0,0,1.5-1.5V111.1A1.49,1.49,0,0,0,120.83,109.61Z"/><circle class="cls-2" cx="120.9" cy="105.06" r="1.43"/><path class="cls-2" d="M120.9,100.5A1.51,1.51,0,0,1,119.39,99V92.18a1.52,1.52,0,1,1,3,0V99A1.51,1.51,0,0,1,120.9,100.5Z"/></svg>