<?xml version="1.0" encoding="utf-8"?>
<!-- Generator: Adobe Illustrator 24.2.1, SVG Export Plug-In . SVG Version: 6.00 Build 0)  -->
<svg version="1.1" id="Layer_1" xmlns="http://www.w3.org/2000/svg" xmlns:xlink="http://www.w3.org/1999/xlink" x="0px" y="0px"
	 viewBox="0 0 127 127" style="enable-background:new 0 0 127 127;" xml:space="preserve">
<style type="text/css">
	.st0{fill:#212B4D;}
	.st1{fill:#D4A0AF;}
</style>
<circle class="st0" cx="63.5" cy="63.5" r="63.5"/>
<path class="st1" d="M56.6,98.6c-1.3,0-2.4-0.9-2.6-2.2l-2.7-17.5c-0.8-0.1-1.5-0.5-2-1.1l-2.2-2.3c-0.7-0.7-1.1-1.6-1.1-2.6v-5.9
	c-1.1-0.2-1.9-1.2-1.9-2.3v-4.3c0-1.2,0.9-2.2,2.1-2.4c0.3-1.9,0.9-3.7,1.8-5.4c-1.3-2.4-2-5.2-2-7.9c0-9.2,7.6-16.4,17.4-16.4
	s17.4,7.2,17.4,16.4c0,2.7-0.7,5.4-2,7.8c0.9,1.7,1.5,3.6,1.8,5.5c1-0.1,1.9,0.5,2.1,1.5l0.1,0.1v5.2c0,1.1-0.9,2.1-2,2.2v6
	c0,0.8-0.3,1.7-0.9,2.3L77.2,78c-0.5,0.5-1.1,0.8-1.8,0.9L74.5,85c-0.1,0.7-0.5,1.2-1.1,1.6c0,0,0.1,0.1,0.1,0.1
	c0.4,0.5,0.6,1.2,0.5,1.9c-0.1,0.8-0.6,1.5-1.3,1.9c0.5,0.5,0.8,1.2,0.7,1.9l-0.6,3.8c-0.2,1.4-1.4,2.4-2.8,2.4L56.6,98.6z
	 M68.2,93.6l0.2-1.9c0.1-0.7,0.6-1.3,1.2-1.7c-0.1-0.1-0.1-0.1-0.2-0.2c-0.4-0.5-0.6-1.2-0.5-1.9c0.1-0.7,0.5-1.4,1.1-1.8
	c-0.1-0.1-0.1-0.1-0.2-0.2c-0.4-0.5-0.5-1.1-0.4-1.6l0.8-5.3H56.5l2.2,14.6L68.2,93.6z"/>
<path class="st1" d="M82.3,59.8v5.1c0,0.9-0.8,1.7-1.7,1.7h-0.3v6.5c0,0.7-0.3,1.4-0.8,1.9l-2.6,2.6c-0.5,0.5-1.2,0.8-1.9,0.8
	l-0.9,6.5c-0.1,0.8-0.8,1.4-1.7,1.4c0.3,0.1,0.6,0.4,0.8,0.6c0.3,0.4,0.5,1,0.4,1.5c-0.1,1-1,1.8-2,1.8h-0.3c-0.5-0.1-1-0.4-1.3-0.8
	c-0.3-0.4-0.5-1-0.4-1.5c0.1-0.9,0.8-1.7,1.7-1.8c-0.4-0.1-0.7-0.3-0.9-0.6c-0.3-0.4-0.4-0.8-0.3-1.3l0.9-5.8H56l2.4,15.6h10.4
	l0.3-2.4c0.1-0.8,0.8-1.4,1.7-1.4h0.3l0.6,0.1c0.9,0.1,1.6,1,1.4,1.9l-0.6,3.8c-0.2,1.2-1.2,2-2.3,2H56.6c-1.1,0-2-0.8-2.1-1.8
	l-2.7-17.9c-0.8-0.1-1.5-0.4-2-1l-2.2-2.3c-0.6-0.6-0.9-1.4-0.9-2.3v-6.3l0,0c-1,0-1.9-0.8-1.9-1.9c0,0,0,0,0,0v-4.2
	c0-1,0.8-1.9,1.9-1.9c0,0,0,0,0,0h0.2c0.3-2,0.9-4,1.9-5.8c0-0.1,0-0.2,0-0.2c-1.3-2.4-2-5.1-2-7.8c0-8.9,7.4-15.9,16.9-15.9
	s16.9,7,16.9,15.9c0,2.7-0.7,5.4-2.1,7.8c1,1.9,1.7,3.9,1.9,6h0.4C82.1,58.6,82.4,59.4,82.3,59.8L82.3,59.8z"/>
<path class="st0" d="M80.6,59.8h-0.8c-0.3,0-0.6-0.2-0.6-0.6c-0.2-2-0.8-4-1.8-5.8c-0.2-0.4-0.2-0.8,0-1.2c1.3-2.2,1.9-4.8,1.9-7.3
	C79.3,36,71.9,30,63.5,30s-15.8,6-15.8,14.8c0,2.6,0.6,5.1,1.9,7.3c0.2,0.4,0.2,0.9,0,1.3c-1,1.8-1.6,3.7-1.8,5.7
	c0,0.3-0.3,0.6-0.6,0.6h-0.5c-0.5,0-0.8,0.4-0.8,0.8v4.2c0,0.5,0.4,0.8,0.8,0.8H47c0.4,0,0.6,0.3,0.6,0.6c0,0,0,0,0,0V73
	c0,0.6,0.2,1.1,0.6,1.5l2.2,2.3c0.4,0.4,1,0.7,1.6,0.7l0,0c0.4,0,0.7,0.3,0.7,0.6l2.8,18.1c0.1,0.5,0.5,0.9,1.1,0.9h13.4
	c0.6,0,1.2-0.5,1.3-1.1l0.6-3.8c0.1-0.4-0.2-0.7-0.5-0.7c0,0,0,0,0,0l-0.6-0.1c-0.4-0.1-0.7,0.2-0.8,0.5c0,0,0,0,0,0l-0.4,2.4
	c-0.1,0.5-0.5,0.8-1,0.8H58.3c-0.5,0-1-0.4-1.1-0.9l-2.4-16.1c0-0.3,0.2-0.6,0.5-0.6c0,0,0.1,0,0.1,0h16.1c0.3,0,0.6,0.3,0.6,0.6
	c0,0,0,0.1,0,0.1l-1,6.3c-0.1,0.4,0.2,0.7,0.5,0.7l0.7,0.1c0.4,0,0.7-0.2,0.7-0.5l1-6.6c0.1-0.4,0.4-0.8,0.9-0.8H75
	c0.4,0,0.9-0.2,1.2-0.5l2.6-2.6c0.3-0.3,0.5-0.7,0.5-1.2v-7c0-0.3,0.3-0.6,0.6-0.6h0.7c0.4,0,0.7-0.3,0.7-0.7v-5
	c-0.1-0.3-0.4-0.3-0.6-0.3L80.6,59.8z M49.6,44.9c0-7.8,6.5-12.9,13.9-12.9s13.8,5.1,13.8,12.9c0,2-0.4,3.9-1.3,5.7
	c-0.1,0.2-0.4,0.3-0.6,0.2c0,0-0.1-0.1-0.1-0.1c-0.6-0.6-1.2-1.2-1.8-1.7c-0.1-0.1-0.2-0.2-0.2-0.3v-6c0-0.4-0.3-0.7-0.7-0.7h0h-0.5
	c-0.4,0-0.7,0.3-0.7,0.7v0v10.1c0,0.6-0.4,1-1,1s-1-0.4-1-1v-4c0-3.8-5.9-3.8-5.9,0c0,0.6-0.4,1-1,1c-0.1,0-0.2,0-0.3,0
	c-0.8-0.2-0.8-1-0.8-1.7c0-1.2,0-2.3,0-3.5c0-0.4-0.3-0.8-0.8-0.8c0,0,0,0,0,0h-0.4c-0.4,0-0.8,0.4-0.8,0.8v0v1.2
	c0,0.2-0.2,0.5-0.4,0.5c-3,0.7-5.7,2.3-7.8,4.7l-0.1,0.1C50.2,49.2,49.6,47.1,49.6,44.9L49.6,44.9z M58.8,48.4
	c0.3-0.1,0.6,0.1,0.7,0.3c0,0,0,0.1,0,0.1c0,1.4,1,2.6,2.4,2.9c1.6,0.3,3.2-0.8,3.5-2.4c0-0.2,0.1-0.4,0.1-0.6
	c0.2-0.5,0.7-0.8,1.3-0.7c0.3,0.1,0.6,0.3,0.7,0.7v4c0,1.7,1.4,3,3,3c0.3,0,0.6-0.1,1-0.2c1.8-0.6,2-2.3,2-3.9c0,0,0-0.1,0.1-0.1
	c0,0,0,0,0,0c2.1,2,3.4,4.7,3.7,7.5c0,0.3-0.2,0.6-0.5,0.7c0,0-0.1,0-0.1,0H50.3c-0.3,0-0.6-0.3-0.6-0.6c0,0,0,0,0-0.1
	C50.4,54.1,53.9,49.9,58.8,48.4z M78.9,63.7h-4.8c-0.5,0-0.8,0.4-0.8,0.8v0.3c0,0.5,0.4,0.8,0.8,0.8h2.6c0.4,0,0.6,0.3,0.6,0.6v6.1
	c0,0.4-0.2,0.9-0.5,1.2l-1.5,1.5c-0.3,0.3-0.7,0.5-1.2,0.5H52.9c-0.6,0-1.2-0.2-1.6-0.7l-1.1-1.1c-0.4-0.4-0.6-1-0.6-1.5v-5.8
	c0-0.4,0.3-0.7,0.7-0.7c0,0,0,0,0,0h20.3c0.4,0,0.8-0.3,0.8-0.8c0,0,0,0,0,0v-0.5c0-0.4-0.3-0.8-0.8-0.8H48.4
	c-0.4,0-0.7-0.3-0.7-0.7v0v-0.5c0-0.4,0.3-0.7,0.7-0.7h0h30.2c0.3,0,0.6,0.3,0.6,0.6v1C79.3,63.6,79.1,63.8,78.9,63.7L78.9,63.7z"/>
<path class="st0" d="M70.6,88.3L70.6,88.3c0.1-0.6,0.6-1,1.1-0.9l0,0c0.5,0.1,0.9,0.6,0.8,1.1v0.1c-0.1,0.5-0.6,0.9-1.1,0.8l0,0
	C70.9,89.3,70.5,88.8,70.6,88.3z"/>
<path class="st0" d="M56.5,51.8L56.5,51.8c0.6,0,1,0.4,1,1l0,0c0,0.6-0.4,1-1,1l0,0c-0.6,0-1-0.4-1-1l0,0
	C55.5,52.3,56,51.8,56.5,51.8z"/>
<path class="st0" d="M56.5,36L56.5,36c0.6,0,1,0.4,1,1l0,0c0,0.6-0.4,1-1,1l0,0c-0.6,0-1-0.4-1-1l0,0C55.5,36.5,56,36,56.5,36z"/>
<path class="st0" d="M60.5,36L60.5,36c0.6,0,1,0.4,1,1l0,0c0,0.6-0.4,1-1,1l0,0c-0.6,0-1-0.4-1-1l0,0C59.5,36.5,59.9,36,60.5,36z"/>
<path class="st0" d="M52.6,67.7L52.6,67.7c0.6,0,1,0.4,1,1l0,0c0,0.6-0.4,1-1,1l0,0c-0.6,0-1-0.4-1-1l0,0
	C51.6,68.1,52,67.7,52.6,67.7z"/>
<path class="st0" d="M56.5,67.7L56.5,67.7c0.6,0,1,0.4,1,1l0,0c0,0.6-0.4,1-1,1l0,0c-0.6,0-1-0.4-1-1l0,0
	C55.5,68.1,56,67.7,56.5,67.7z"/>
<polygon class="st1" points="55.9,78.5 58.3,94 69.4,94.1 71.7,78.5 "/>
</svg>
