<?xml version="1.0" encoding="utf-8"?>
<!-- Generator: Adobe Illustrator 24.2.1, SVG Export Plug-In . SVG Version: 6.00 Build 0)  -->
<svg version="1.1" id="Layer_1" xmlns="http://www.w3.org/2000/svg" xmlns:xlink="http://www.w3.org/1999/xlink" x="0px" y="0px"
	 viewBox="0 0 127 127" style="enable-background:new 0 0 127 127;" xml:space="preserve">
<style type="text/css">
	.st0{fill:#212B4D;}
	.st1{fill:#D4A0AF;}
</style>
<circle class="st0" cx="63.5" cy="63.5" r="63.5"/>
<path class="st0" d="M78.8,81.6H48.2c-0.8,0.1-1.4-0.5-1.5-1.3c-0.1-0.8,0.5-1.4,1.3-1.5c0.1,0,0.2,0,0.2,0h30.7
	c0.8-0.1,1.4,0.5,1.5,1.3c0.1,0.8-0.5,1.4-1.3,1.5C79,81.6,78.9,81.6,78.8,81.6z"/>
<path class="st0" d="M63.5,76c-0.8,0-1.4-0.6-1.4-1.4l0,0V47.5c-0.1-0.8,0.5-1.4,1.3-1.5c0.8-0.1,1.4,0.5,1.5,1.3c0,0.1,0,0.2,0,0.2
	v27.2C64.9,75.4,64.3,76,63.5,76z"/>
<path class="st0" d="M73.3,57.9c-0.4,0-0.7-0.1-1-0.4l-8.8-8.8l-8.8,8.8c-0.6,0.6-1.4,0.6-2,0s-0.6-1.4,0-2l9.8-9.8
	c0.5-0.6,1.4-0.6,2,0c0,0,0,0,0,0l9.8,9.8c0.5,0.6,0.5,1.4,0,2C74,57.7,73.6,57.9,73.3,57.9L73.3,57.9z"/>
<polygon class="st1" points="35.4,42.5 40.6,78.7 47.4,85.6 92,85.6 91.3,51.4 74.2,41.1 "/>
<path class="st1" d="M48.7,89.7c-2.9,0-5.4-1.8-6.2-4.6c-0.1-0.2-0.1-0.4-0.2-0.6c-2.6-0.5-4.8-2.5-5.4-5.1
	c-3.1-0.8-5.3-3.6-5.3-6.8V47.4c0-5.6,4.5-10.1,10.1-10.2h36c3.2,0,6,2.1,6.8,5.2c2.4,0.6,4.3,2.4,5,4.8c3.3,0.3,5.8,3.1,5.9,6.4
	v29.5c0,3.6-2.9,6.5-6.5,6.5L48.7,89.7z M47.5,83.2c0,0.1,0,0.3,0.1,0.4c0.2,0.5,0.7,0.9,1.2,0.9H89c0.7,0,1.3-0.6,1.3-1.3v-6.3
	l-6-4.6c0,0-0.1,0-0.1,0c0,0-0.1,0-0.1,0L79,76l1.6,1.6c0.9,1.1,0.8,2.7-0.3,3.7c-1,0.9-2.5,0.8-3.5-0.1L66,70.1h-0.8v-0.8l-5.2-5.4
	c0,0-0.1-0.1-0.2-0.1c0,0-0.1,0-0.1,0L47.5,74.5L47.5,83.2z M43.9,47.5c-1,0-1.9,0.8-2,1.8c0,0.1,0,0.1,0,0.2v28.1
	c0,0.4,0.1,0.7,0.3,1v-25c0-2.9,2-5.5,4.8-6.2L43.9,47.5z M59.7,58.6c1.5,0,2.9,0.6,3.9,1.6l11.6,12l5.6-4c1.9-1.4,4.5-1.4,6.4,0.1
	l2.9,2.2V53.8c0-0.7-0.6-1.3-1.3-1.3H48.7c-0.7,0-1.3,0.6-1.3,1.3v13.9l8.8-7.7C57.2,59.1,58.4,58.6,59.7,58.6z M41.7,42.5
	c-2.7,0-4.9,2.2-4.9,4.9c0,0,0,0,0,0v0.7c0.6-2.8,2.7-4.9,5.4-5.6L41.7,42.5z M66.9,47.3c-1.3-0.6-1.9-2.1-1.3-3.4
	c0.3-0.6,0.8-1.1,1.4-1.3h-7.5c1.3,0.5,2,2.1,1.4,3.4c-0.3,0.6-0.7,1.1-1.3,1.4H66.9z"/>
<path class="st0" d="M79.3,54.6c-2.8,0-5.1,2.3-5.1,5.1s2.3,5.1,5.1,5.1c2.8,0,5.1-2.3,5.1-5.1l0,0C84.4,56.9,82.1,54.6,79.3,54.6z
	 M79.3,62.4c-1.5,0-2.7-1.2-2.7-2.7s1.2-2.7,2.7-2.7s2.7,1.2,2.7,2.7C82,61.2,80.8,62.4,79.3,62.4C79.3,62.4,79.3,62.4,79.3,62.4z"
	/>
<path class="st0" d="M88.9,48.7h-0.5c-0.3-2.7-2.4-4.7-5.1-5c-0.3-2.8-2.7-5-5.6-5h-36c-4.8,0-8.7,3.9-8.7,8.7v25.2
	c0,2.9,2.2,5.3,5.1,5.6c0.3,2.8,2.7,5,5.5,5c0,0.5,0.1,1,0.2,1.4c0.7,2.2,2.7,3.6,4.9,3.6H89c2.8,0,5.1-2.3,5.1-5.1V53.8
	C94,50.9,91.8,48.7,88.9,48.7C88.9,48.7,88.9,48.7,88.9,48.7z M91.6,53.7v19.5l-5.2-3.9c-1.4-1.1-3.4-1.1-4.8,0l-6.6,4.8L62.6,61.2
	c-1.5-1.5-3.9-1.6-5.5-0.2L46,70.8v-17c0-1.5,1.1-2.7,2.6-2.7c0,0,0.1,0,0.1,0H89C90.4,51.1,91.6,52.3,91.6,53.7z M91.6,83.2
	c0,1.5-1.2,2.7-2.7,2.7H48.7c-1.2,0-2.2-0.8-2.6-1.9c-0.1-0.3-0.1-0.5-0.1-0.8v-9.3l12.7-11.2c0.6-0.6,1.6-0.5,2.2,0.1l5.6,5.8l0,0
	l11.2,11.6c0.2,0.2,0.5,0.4,0.8,0.4c0.3,0,0.6-0.1,0.8-0.3c0.5-0.5,0.5-1.2,0-1.7l-2.7-2.8l6.3-4.6c0.6-0.4,1.4-0.4,1.9,0l6.6,5
	L91.6,83.2z M40.4,77.7V49.5c0-0.1,0-0.2,0-0.3c0.2-1.8,1.7-3.1,3.5-3.1h14.6c0.7,0,1.2-0.5,1.2-1.2c0-0.7-0.5-1.2-1.2-1.2H43.9
	c-3.2,0-5.8,2.6-5.8,5.8v26.3c-1.6-0.3-2.7-1.6-2.7-3.2V47.4c0-3.5,2.8-6.3,6.3-6.4h36c1.6,0,2.9,1.1,3.2,2.6H68
	c-0.7,0-1.2,0.5-1.2,1.2c0,0.7,0.5,1.2,1.2,1.2h14.8c1.5,0,2.9,1.1,3.2,2.6H48.7c-2.8,0-5.1,2.3-5.1,5.1v19.7l0,0v7.5
	C41.9,80.9,40.5,79.5,40.4,77.7z"/>
<path class="st0" d="M62.2,45.3c0,0.1,0.1,0.1,0.1,0.2c0,0.1,0.1,0.1,0.1,0.2c0.1,0.1,0.1,0.1,0.2,0.2c0.1,0,0.1,0.1,0.2,0.1
	l0.2,0.1c0.1,0,0.2,0,0.2,0c0.1,0,0.2,0,0.2,0l0.2-0.1c0.1,0,0.1-0.1,0.2-0.1c0.1,0,0.1-0.1,0.2-0.2c0.1-0.1,0.1-0.1,0.2-0.2
	c0-0.1,0.1-0.1,0.1-0.2c0-0.1,0-0.1,0.1-0.2c0-0.1,0-0.2,0-0.2c0-0.1,0-0.2,0-0.2c0-0.1,0-0.1-0.1-0.2c0-0.1-0.1-0.1-0.1-0.2
	c0-0.1-0.1-0.1-0.2-0.2C64,44,64,43.9,63.9,43.9l-0.2-0.1l-0.2-0.1c-0.2,0-0.3,0-0.5,0l-0.2,0.1l-0.2,0.1c-0.1,0-0.1,0.1-0.2,0.2
	c-0.1,0.1-0.1,0.1-0.1,0.2c0,0.1-0.1,0.1-0.1,0.2c0,0.1-0.1,0.1-0.1,0.2c0,0.1,0,0.2,0,0.2c0,0.1,0,0.2,0,0.2
	C62.1,45.2,62.1,45.3,62.2,45.3z"/>
</svg>
