<?xml version="1.0" encoding="utf-8"?>
<!-- Generator: Adobe Illustrator 24.2.1, SVG Export Plug-In . SVG Version: 6.00 Build 0)  -->
<svg version="1.1" id="Layer_1" xmlns="http://www.w3.org/2000/svg" xmlns:xlink="http://www.w3.org/1999/xlink" x="0px" y="0px"
	 viewBox="0 0 127 127" style="enable-background:new 0 0 127 127;" xml:space="preserve">
<style type="text/css">
	.st0{fill:#212B4D;}
	.st1{fill:#D4A0AF;stroke:#D4A0AF;stroke-miterlimit:10;}
	.st2{fill:#E8E8E8;}
</style>
<circle class="st0" cx="63.5" cy="63.5" r="63.5"/>
<path class="st1" d="M44.6,88.1c-1.4,0.1-2.6-1-2.7-2.4c-0.1-1.4,1-2.6,2.4-2.7c0.1,0,0.2,0,0.3,0H51v-0.1c0-1.4,1.1-2.6,2.6-2.6
	h1.8l0.1-0.3H39.2c-2.9,0-5.3-2.4-5.2-5.3V44.2c0-2.9,2.4-5.2,5.2-5.3h48.6c2.9,0,5.2,2.4,5.2,5.3v30.6c0,2.9-2.3,5.3-5.2,5.3H71.6
	l0.1,0.3h1.8c1.4,0,2.6,1.2,2.6,2.6V83h8.2c1.4,0.1,2.5,1.3,2.4,2.7c-0.1,1.3-1.1,2.3-2.4,2.4L44.6,88.1z M66.2,80.3L66.2,80h-5.3
	l-0.1,0.3H66.2z M38.8,75.2c0.1,0,0.3,0.1,0.4,0.1h48.9l0.1-1.1H38.7L38.8,75.2C38.7,75.1,38.8,75.2,38.8,75.2z M88.3,69.5V44.2
	c0-0.2-0.1-0.4-0.3-0.6H39.2c-0.2,0.1-0.4,0.4-0.4,0.6v25.3h7.2l-0.3-7.4v-0.2l0.7-4.3c-1.1-1.2-1.6-2.8-1.6-4.5
	c0-2.9,2.7-5.6,3.5-6.4c1-0.9,2.5-0.9,3.5,0c1.2,1.1,2.2,2.4,2.9,3.8l1.1-2.7c0.4-0.9,1.3-1.5,2.3-1.5c1,0,1.9,0.6,2.3,1.4l1.1,2.6
	v-2.1c0-1.3,1.1-2.4,2.4-2.4h0H71c1.4,0,2.6,1.1,2.6,2.6v9.6l1.1-2c0.2-0.5,0.6-0.9,1.1-1.1c0.4-0.2,0.8-0.3,1.2-0.3
	c1,0,1.9,0.5,2.3,1.4l2.1,4l0.1,0.4l0.1,0.6v8.2H88.3z M77.2,69.5V65h-0.3v4.5H77.2z M69,69.5V69h-1c-0.7,0-1.4-0.2-1.9-0.7v1.2H69z
	 M58.2,69.5V58.4H58v11.1H58.2z M66.1,65c0.4-0.4,0.9-0.7,1.5-0.8c-0.5-0.8-0.5-1.8,0-2.5c-0.6,0-1.1-0.3-1.6-0.7L66.1,65z
	 M66.1,57.8c0.4-0.4,0.9-0.7,1.5-0.8c-0.2-0.4-0.3-0.8-0.3-1.2c0-0.5,0.1-0.9,0.4-1.3c-0.6,0-1.1-0.3-1.6-0.7V57.8z M50.1,52.3
	c-0.2,0.3-0.3,0.6-0.4,0.9c0,0.4,0.2,0.8,0.5,1c-0.1-0.1,0.3-0.4,0.3-1C50.4,52.9,50.2,52.6,50.1,52.3L50.1,52.3z"/>
<path class="st1" d="M50.5,77.3c-1.4,0-2.6-1.2-2.5-2.6c0-1.4,1.2-2.6,2.6-2.5c1.4,0,2.5,1.2,2.5,2.6C53.1,76.2,51.9,77.3,50.5,77.3
	C50.5,77.3,50.5,77.3,50.5,77.3z"/>
<path class="st1" d="M40.9,47.9c-1.3,0.1-2.5-1-2.6-2.3c0,0,0-0.1,0-0.1c0-1.3,1.1-2.4,2.4-2.4c0.1,0,0.1,0,0.2,0h7.2
	c1.3-0.1,2.5,0.9,2.6,2.2c0,0.1,0,0.1,0,0.2c0,1.3-1.1,2.4-2.4,2.4c0,0-0.1,0-0.1,0L40.9,47.9z"/>
<path class="st1" d="M40.9,50.8c-1.4,0-2.5-1.2-2.5-2.6c0-1.4,1.2-2.5,2.6-2.5c1.4,0,2.5,1.2,2.5,2.6C43.5,49.6,42.4,50.8,40.9,50.8
	C40.9,50.8,40.9,50.8,40.9,50.8z"/>
<path class="st1" d="M83.3,71c-1.4,0-2.6-1.1-2.6-2.6c0-1.4,1.1-2.6,2.6-2.6l0,0h3.6c1.4,0,2.6,1.1,2.6,2.6c0,1.4-1.1,2.6-2.6,2.6
	l0,0H83.3z"/>
<path class="st1" d="M86.9,68.3c-1.4,0-2.6-1.2-2.5-2.6c0-1.4,1.2-2.6,2.6-2.5c1.4,0,2.5,1.2,2.6,2.6C89.5,67.2,88.3,68.3,86.9,68.3
	C86.9,68.3,86.9,68.3,86.9,68.3z"/>
<path class="st2" d="M87.8,41H39.2c-2,0-3.6,1.6-3.6,3.6v30.6c0,2,1.6,3.6,3.6,3.6h18.6l-1.2,3.6h-3c-0.5,0-0.9,0.4-0.9,0.9l0,0v1.8
	h-8.1c-0.5,0-0.9,0.4-0.9,0.9s0.4,0.9,0.9,0.9h39.6c0.5,0,0.9-0.4,0.9-0.9s-0.4-0.9-0.9-0.9h-9.9v-1.8c0-0.5-0.4-0.9-0.9-0.9l0,0h-3
	l-1.2-3.6h18.6c2,0,3.6-1.6,3.6-3.6V44.6C91.4,42.6,89.8,41,87.8,41z M72.5,84.2v0.9h-18v-0.9H72.5z M58.5,82.4l1.2-3.6h7.7l1.2,3.6
	H58.5z M90,75.6c0,1-0.8,1.8-1.8,1.8h0h-49c-1,0-2-0.7-2.1-1.8V73h52.8L90,75.6z M51.4,63.5L51,71.6h-2l-0.3-8.1H51.4z M48.7,61.7
	l0.6-3.6h1.5l0.6,3.6H48.7z M50,56.3c-1,0-2.1-1.2-2.1-2.7c0-0.9,1.2-2.6,2.1-3.6c0.8,0.9,2.1,2.7,2.1,3.6
	C52.2,54.9,51.3,56.1,50,56.3z M59.8,54.5l0.1,0.2v0.7h-3.6v-0.7l0.1-0.2H59.8z M57.3,52.7l0.8-1.6l0.8,1.6H57.3z M59.9,57.2v14.3
	c0,0,0,0.1,0,0.1h-3.6V57.2H59.9z M68,53.4h2.7v2.2h-0.9c-0.5,0-0.9,0.2-0.9,0.7s0.4,0.6,0.9,0.6h0.9v2.2H68c-0.5,0-0.9,0.3-0.9,0.8
	s0.4,0.7,0.9,0.7h2.7v2.2h-0.9c-0.5,0-0.9,0.2-0.9,0.7s0.4,0.6,0.9,0.6h0.9v2.2H68c-0.5,0-0.9,0.2-0.9,0.7s0.4,0.7,0.9,0.7h2.7v3.8
	h-6.3v-21c0-0.3,0.3-0.9,0.6-0.9h5.7V52H68c-0.5,0-0.9,0.2-0.9,0.7S67.5,53.4,68,53.4z M78.8,63.8v7.7c0,0,0,0.1,0,0.1h-3.6
	c0,0,0-0.1,0-0.1v-7.7L78.8,63.8z M75.2,62.6v-0.7l1.8-3.6l1.8,3.6v0.7H75.2z M89.9,71.6h-10c0,0,0-0.1,0-0.1v-9.8l-0.1-0.4l-2-3.8
	c-0.2-0.4-0.8-0.6-1.2-0.4c-0.2,0.1-0.3,0.2-0.4,0.4l-2.1,3.8L74,61.7v9.8c0,0,0,0.1,0,0.1h-2V49.1c0-0.5-0.4-0.9-0.9-0.9H64
	c-0.4,0-0.7,0.3-0.8,0.8v22.8l-2.1-0.1V54.5l-0.1-0.4l-2.1-5c-0.2-0.4-0.8-0.6-1.2-0.4c-0.2,0.1-0.3,0.2-0.4,0.4l-2.1,5l-0.1,0.4
	v17.1h-2.8l0.4-9c0,0,0,0,0-0.1l0,0c0,0,0-0.1,0-0.1l0,0l-0.8-5c1.1-0.9,1.8-2.4,1.8-3.9c0-2.3-2.7-4.9-3-5.2
	c-0.3-0.3-0.9-0.3-1.2,0c-0.3,0.3-3,2.8-3,5.2c-0.1,1.5,0.6,3,1.8,3.9l-0.8,5l0,0c0,0,0,0.1,0,0.1v0.1l0.4,9H37.1v-27
	c0.1-1.1,1-2.1,2.1-2.2h48.9c1,0,1.8,1.2,1.8,2.2L89.9,71.6z"/>
<path class="st2" d="M50.5,74.3L50.5,74.3c-0.5,0-0.9,0.4-0.9,0.9s0.4,0.9,0.9,0.9l0,0c0.5,0,0.9-0.4,0.9-0.9S51,74.3,50.5,74.3z"/>
<path class="st2" d="M40.9,46.7h7.2c0.5,0,0.9-0.2,0.9-0.8s-0.4-0.7-0.9-0.7h-7.2c-0.5,0-0.9,0.2-0.9,0.7S40.4,46.7,40.9,46.7z"/>
<path class="st2" d="M40.9,49.6L40.9,49.6c0.5,0,0.9-0.4,0.9-0.9s-0.4-0.9-0.9-0.9l0,0c-0.5,0-0.9,0.4-0.9,0.9S40.4,49.6,40.9,49.6z
	"/>
<path class="st2" d="M83.3,69.8h3.6c0.5,0,0.9-0.4,0.9-0.9S87.4,68,86.9,68l0,0h-3.6c-0.5,0-0.9,0.4-0.9,0.9S82.8,69.8,83.3,69.8z"
	/>
<path class="st2" d="M86.9,67.1L86.9,67.1c0.5,0,0.9-0.4,0.9-0.9s-0.4-0.9-0.9-0.9l0,0l0,0c-0.5,0-0.9,0.4-0.9,0.9
	S86.4,67.1,86.9,67.1z"/>
<path class="st1" d="M39.9,77.2c-1.3,0.1-2.5-1-2.6-2.3c0,0,0-0.1,0-0.1c0-1.3,1.1-2.4,2.4-2.4c0.1,0,0.1,0,0.2,0h7.2
	c1.3-0.1,2.5,0.9,2.6,2.2c0,0.1,0,0.1,0,0.2c0,1.3-1.1,2.4-2.5,2.4c0,0-0.1,0-0.1,0H39.9z"/>
<path class="st2" d="M39.9,75.9h7.2c0.5,0,0.9-0.2,0.9-0.8s-0.4-0.7-0.9-0.7h-7.2c-0.5,0-0.9,0.2-0.9,0.7S39.4,75.9,39.9,75.9z"/>
<rect x="38.3" y="43.1" class="st1" width="49.8" height="31"/>
<path class="st0" d="M87.8,41H39.2c-2,0-3.6,1.6-3.6,3.6v30.6c0,2,1.6,3.6,3.6,3.6h18.6l-1.2,3.6h-3c-0.5,0-0.9,0.4-0.9,0.9
	c0,0,0,0,0,0v1.8h-8.1c-0.5,0-0.9,0.4-0.9,0.9s0.4,0.9,0.9,0.9h39.6c0.5,0,0.9-0.4,0.9-0.9s-0.4-0.9-0.9-0.9h-9.9v-1.8
	c0-0.5-0.4-0.9-0.9-0.9l0,0h-3l-1.2-3.6h18.6c2,0,3.6-1.6,3.6-3.6V44.6C91.2,42.7,89.7,41.1,87.8,41z M72.5,84.2v0.9h-18v-0.9H72.5z
	 M58.5,82.4l1.2-3.6h7.7l1.2,3.6H58.5z M90,75.6c0,1-0.8,1.8-1.8,1.8h0h-49c-1,0-2-0.7-2.1-1.8V73h52.8L90,75.6z M51.3,63.5L51,71.6
	h-2l-0.3-8.1H51.3z M48.6,61.7l0.6-3.6h1.5l0.6,3.6H48.6z M50,56.3c-1,0-2-1.2-2-2.7c0-0.9,1.2-2.6,2.1-3.6c0.8,0.9,2.1,2.7,2.1,3.6
	C52.2,54.9,51.3,56.1,50,56.3z M59.8,54.5l0.1,0.2v0.7h-3.6v-0.7l0.1-0.2H59.8z M57.3,52.7l0.8-1.6l0.8,1.6H57.3z M59.9,57.2v14.3
	c0,0,0,0.1,0,0.1h-3.6V57.2H59.9z M68,53.4h2.7v2.2h-0.9c-0.5,0-0.9,0.2-0.9,0.7s0.4,0.6,0.9,0.6h0.9v2.2H68c-0.5,0-0.9,0.3-0.9,0.8
	s0.4,0.7,0.9,0.7h2.7v2.2h-0.9c-0.5,0-0.9,0.2-0.9,0.7s0.4,0.6,0.9,0.6h0.9v2.2H68c-0.5,0-0.9,0.2-0.9,0.7s0.4,0.7,0.9,0.7h2.7v3.8
	h-6.3v-21c0-0.3,0.3-0.9,0.6-0.9h5.7V52H68c-0.5,0-0.9,0.2-0.9,0.7S67.5,53.4,68,53.4z M78.8,63.8v7.7c0,0,0,0.1,0,0.1h-3.6
	c0,0,0-0.1,0-0.1v-7.7L78.8,63.8z M75.2,62.6v-0.7l1.8-3.6l1.8,3.6v0.7H75.2z M89.9,71.6h-10c0,0,0-0.1,0-0.1v-9.8l-0.1-0.4l-2-3.8
	C77.6,57,77,56.8,76.6,57c-0.2,0.1-0.3,0.2-0.4,0.4l-2.1,3.8L74,61.7v9.8c0,0,0,0.1,0,0.1h-2V49.1c0-0.5-0.4-0.9-0.9-0.9H64
	c-0.4,0-0.8,0.3-0.8,0.8v22.8l-2.1-0.1V54.5L61,54.1l-2.1-5c-0.2-0.4-0.8-0.6-1.2-0.4c-0.2,0.1-0.3,0.2-0.4,0.4l-2.1,5l-0.1,0.4
	v17.1h-2.8l0.4-9c0,0,0,0,0-0.1l0,0c0,0,0-0.1,0-0.1l0,0l-0.8-5c1.1-0.9,1.8-2.4,1.7-3.9c0-2.3-2.7-4.9-3-5.2
	c-0.3-0.3-0.9-0.3-1.2,0c-0.3,0.3-3,2.8-3,5.2c-0.1,1.5,0.6,3,1.8,3.9l-0.8,5l0,0c0,0,0,0.1,0,0.1v0.1l0.4,9H37.1v-27
	c0.1-1.1,1-2.1,2.1-2.2h48.9c1,0,1.8,1.2,1.8,2.2V71.6z"/>
<path class="st0" d="M50.4,74.3L50.4,74.3c-0.5,0-0.9,0.4-0.9,0.9s0.4,0.9,0.9,0.9l0,0c0.5,0,0.9-0.4,0.9-0.9S50.9,74.3,50.4,74.3z"
	/>
<path class="st0" d="M40.8,46.7H48c0.5,0,0.9-0.2,0.9-0.8s-0.4-0.7-0.9-0.7h-7.2c-0.5,0-0.9,0.2-0.9,0.7S40.3,46.7,40.8,46.7z"/>
<path class="st0" d="M40.8,49.6L40.8,49.6c0.5,0,0.9-0.4,0.9-0.9s-0.4-0.9-0.9-0.9l0,0c-0.5,0-0.9,0.4-0.9,0.9S40.4,49.6,40.8,49.6z
	"/>
<path class="st0" d="M83.3,69.8h3.6c0.5,0,0.9-0.4,0.9-0.9S87.4,68,86.9,68h-3.6c-0.5,0-0.9,0.4-0.9,0.9S82.8,69.8,83.3,69.8z"/>
<path class="st0" d="M86.9,67.1L86.9,67.1c0.5,0,0.9-0.4,0.9-0.9s-0.4-0.9-0.9-0.9l0,0c-0.5,0-0.9,0.4-0.9,0.9S86.4,67.1,86.9,67.1z
	"/>
<path class="st0" d="M39.8,75.9H47c0.5,0,0.9-0.2,0.9-0.8s-0.4-0.7-0.9-0.7h-7.2c-0.5,0-0.9,0.2-0.9,0.7S39.3,75.9,39.8,75.9z"/>
</svg>
