<?xml version="1.0" encoding="utf-8"?>
<!-- Generator: Adobe Illustrator 24.2.1, SVG Export Plug-In . SVG Version: 6.00 Build 0)  -->
<svg version="1.1" id="Layer_1" xmlns="http://www.w3.org/2000/svg" xmlns:xlink="http://www.w3.org/1999/xlink" x="0px" y="0px"
	 viewBox="0 0 127 127" style="enable-background:new 0 0 127 127;" xml:space="preserve">
<style type="text/css">
	.st0{fill:#212B4D;}
	.st1{fill:#D4A0AF;}
</style>
<circle class="st0" cx="63.5" cy="63.5" r="63.5"/>
<path d="M44.8,50.2c-0.6-0.4-1.4-0.2-1.7,0.4c0,0,0,0,0,0c-7.1,11.3-3.8,26.2,7.5,33.3s26.2,3.8,33.3-7.5
	c7.1-11.3,3.8-26.2-7.5-33.3c-7.9-5-17.9-5-25.8,0c-0.6,0.4-0.8,1.1-0.4,1.7s1.1,0.8,1.7,0.4c10.1-6.4,23.5-3.3,29.8,6.8
	c6.4,10.1,3.3,23.5-6.8,29.8c-8.5,5.4-19.7,4.1-26.8-3c-7.1-7.2-8.3-18.3-3-26.8C45.6,51.4,45.4,50.6,44.8,50.2
	C44.8,50.2,44.8,50.2,44.8,50.2z"/>
<path class="st1" d="M63.5,97.4c-18.7,0.3-34.1-14.6-34.4-33.3S43.6,30,62.3,29.7c0.4,0,0.8,0,1.2,0c1.4,0,2.8,0.1,4.1,0.2
	c1.5,0.3,2.5,1.7,2.2,3.2c-0.2,1.2-1.2,2.2-2.5,2.2H67C51.5,33.4,37.3,44.5,35.4,60s9.2,29.7,24.7,31.6c15.6,1.9,29.7-9.2,31.6-24.7
	c0.1-1.1,0.2-2.3,0.2-3.5c0-5.1-1.3-10-3.9-14.4c-1.1,1-2.9,0.9-3.9-0.3c-0.4-0.5-0.7-1.1-0.7-1.8v-4.8c0-1.5,1.2-2.7,2.7-2.7l0,0
	H91c1.5,0,2.7,1.2,2.7,2.8c0,1.2-0.8,2.3-1.9,2.6c3.6,5.5,5.5,12,5.5,18.7C97.3,82.2,82.2,97.4,63.5,97.4
	C63.5,97.4,63.5,97.4,63.5,97.4L63.5,97.4z"/>
<path class="st1" d="M72.3,36.4c-1.5,0-2.7-1.2-2.7-2.7s1.2-2.7,2.7-2.7s2.7,1.2,2.7,2.7c0,0.7-0.3,1.4-0.8,1.9
	C73.7,36.1,73,36.4,72.3,36.4z"/>
<path d="M72.3,34.9c0.3,0,0.7-0.1,0.9-0.4c0.5-0.5,0.5-1.3,0-1.8c-0.2-0.2-0.6-0.4-0.9-0.4c-0.7-0.1-1.3,0.5-1.4,1.2
	c-0.1,0.7,0.5,1.3,1.2,1.4C72.1,34.9,72.2,34.9,72.3,34.9z"/>
<circle class="st1" cx="63.5" cy="63.5" r="29.5"/>
<path class="st0" d="M89,43.5h2c0.7,0.1,1.3-0.5,1.4-1.2S91.9,41,91.2,41c-0.1,0-0.2,0-0.2,0h-4.8c-0.7,0-1.3,0.6-1.3,1.3l0,0V47
	c0.1,0.7,0.7,1.2,1.4,1.2c0.6-0.1,1.1-0.5,1.2-1.2v-1.4c9.9,13.2,7.1,31.9-6.1,41.8c-13.2,9.9-31.9,7.1-41.8-6.1s-7.1-31.9,6.1-41.8
	c5.2-3.8,11.4-5.9,17.8-5.9c1.2,0,2.4,0.1,3.6,0.2c0.7,0.1,1.3-0.4,1.4-1.1c0.1-0.7-0.4-1.3-1.1-1.4c-17.8-2.2-33.9,10.4-36.1,28.2
	c-2.2,17.8,10.4,33.9,28.2,36.1s33.9-10.4,36.1-28.2C96.7,58.9,94.3,50.3,89,43.5z"/>
<path class="st0" d="M44.8,50.2c-0.6-0.4-1.4-0.2-1.7,0.4c0,0,0,0,0,0c-7.1,11.3-3.7,26.2,7.5,33.3s26.2,3.7,33.3-7.5
	c7.1-11.3,3.7-26.2-7.5-33.3c-7.9-5-17.9-5-25.7,0c-0.6,0.3-0.9,1.1-0.5,1.7c0.3,0.6,1.1,0.9,1.7,0.5c0.1,0,0.1-0.1,0.2-0.1
	c10.1-6.4,23.5-3.3,29.8,6.8c6.4,10.1,3.3,23.5-6.8,29.8c-8.5,5.4-19.7,4.1-26.8-3c-7.1-7.2-8.3-18.3-3-26.8
	C45.6,51.4,45.4,50.6,44.8,50.2z"/>
<path class="st0" d="M79.9,64.8h1.6c0.7,0.1,1.3-0.5,1.4-1.2s-0.5-1.3-1.2-1.4c-0.1,0-0.2,0-0.2,0h-1.6c-0.7,0.1-1.2,0.7-1.2,1.4
	C78.8,64.3,79.3,64.7,79.9,64.8z"/>
<path class="st0" d="M44.2,63.5c0,0.7,0.6,1.3,1.3,1.3h1.6c0.7-0.1,1.2-0.7,1.2-1.4c-0.1-0.6-0.5-1.1-1.2-1.2h-1.6
	C44.8,62.2,44.2,62.8,44.2,63.5C44.2,63.5,44.2,63.5,44.2,63.5z"/>
<path class="st0" d="M64.8,47.1v-1.6c0-0.7-0.6-1.3-1.3-1.3s-1.3,0.6-1.3,1.3c0,0,0,0,0,0v1.6c0,0.7,0.6,1.3,1.3,1.3
	S64.8,47.8,64.8,47.1C64.8,47.1,64.8,47.1,64.8,47.1z"/>
<path class="st0" d="M62.2,79.9v1.6c0.1,0.7,0.7,1.2,1.4,1.2c0.6-0.1,1.1-0.5,1.2-1.2v-1.6c0.1-0.7-0.5-1.3-1.2-1.4
	c-0.7-0.1-1.3,0.5-1.4,1.2C62.2,79.8,62.2,79.9,62.2,79.9z"/>
<path class="st0" d="M57.2,55.4c-0.5-0.5-1.3-0.5-1.8,0s-0.5,1.3,0,1.8l0,0l4.3,4.3c-0.3,0.6-0.5,1.3-0.5,2
	c-0.1,2.4,1.7,4.4,4.1,4.6s4.4-1.7,4.6-4.1c0-0.1,0-0.3,0-0.4c0-0.7-0.2-1.4-0.5-2l8.6-8.6c0.5-0.5,0.5-1.3,0-1.8
	c-0.5-0.5-1.3-0.5-1.8,0l-8.7,8.6c-0.6-0.3-1.3-0.5-2-0.5c-0.7,0-1.4,0.2-2,0.5L57.2,55.4z M65.3,63.5c0,1-0.8,1.8-1.8,1.8
	s-1.8-0.8-1.8-1.8s0.8-1.8,1.8-1.8c0,0,0,0,0,0C64.5,61.7,65.3,62.5,65.3,63.5z"/>
<path class="st0" d="M48.2,48.2c0.5-0.5,0.5-1.3,0-1.8c-0.5-0.5-1.3-0.5-1.8,0c-0.5,0.5-0.5,1.3,0,1.8
	C46.9,48.7,47.7,48.7,48.2,48.2z"/>
<path class="st0" d="M72.3,34.9c0.3,0,0.7-0.1,0.9-0.4c0.5-0.5,0.5-1.3,0-1.8c-0.2-0.2-0.6-0.4-0.9-0.4c-0.7-0.1-1.3,0.5-1.4,1.2
	c-0.1,0.7,0.5,1.3,1.2,1.4C72.1,34.9,72.2,34.9,72.3,34.9z"/>
</svg>
