<?xml version="1.0" encoding="utf-8"?>
<!-- Generator: Adobe Illustrator 24.2.1, SVG Export Plug-In . SVG Version: 6.00 Build 0)  -->
<svg version="1.1" id="Layer_1" xmlns="http://www.w3.org/2000/svg" xmlns:xlink="http://www.w3.org/1999/xlink" x="0px" y="0px"
	 viewBox="0 0 127 127" style="enable-background:new 0 0 127 127;" xml:space="preserve">
<style type="text/css">
	.st0{fill:#212B4D;}
	.st1{fill:#D4A0AF;}
	.st2{fill:#D4A0AF;stroke:#D4A0AF;stroke-miterlimit:10;}
</style>
<circle class="st0" cx="63.5" cy="63.5" r="63.5"/>
<path class="st1" d="M83.7,45.9v19.8l-9.9,9.9L73.3,76l-0.2,0.1c-0.1,0.1-0.2,0.1-0.3,0.1l-0.4,0.2v1.3h4c0.6,0,1.2,0.2,1.6,0.6
	c0.4-0.4,1-0.6,1.6-0.6c1.4,0,2.6,1.1,2.6,2.5c0,1.4-1.1,2.6-2.5,2.6c-0.7,0-1.3-0.3-1.8-0.7c-0.4,0.3-0.9,0.5-1.5,0.5h-4v1.8H36.9
	V43h35.6v1.5h4c1.4,0,2.5,1.1,2.4,2.5c0,0.1,0,0.3-0.1,0.4c0,0,0.1-0.1,0.1-0.1c0.9-0.9,2.1-1.4,3.3-1.3c0.4,0,0.8,0.1,1.2,0.2
	C83.6,46,83.6,45.9,83.7,45.9z"/>
<path class="st2" d="M94.6,51.3c-0.3-3.9-3.7-6.8-7.6-6.5c-1.2,0.1-2.3,0.5-3.3,1.1c-0.1,0-0.1,0.1-0.2,0.1
	c-0.4-0.1-0.8-0.2-1.2-0.2c-1.2,0-2.4,0.5-3.3,1.3c0,0.1-0.1,0.1-0.1,0.1c0-0.1,0.1-0.3,0.1-0.4c0-1.4-1.1-2.5-2.4-2.5h-4v-2.8
	c0-1.2-0.8-2.2-1.9-2.4l-0.3-0.1H70c-1.3,0-2.4,1.1-2.4,2.4v2.8h-19c-0.6,0-1.3,0.3-1.7,0.7c-0.5-0.5-1.1-0.7-1.7-0.7h-1.4v-2.8
	c0-1.2-0.8-2.2-1.9-2.4l-0.3-0.1h-0.2c-1.4,0-2.4,1.1-2.4,2.4v2.8h-3.9c-1.2,0-2.2,0.8-2.4,1.9c-0.1,0.7,0,1.5,0.5,2.1
	c0.5,0.6,1.2,0.9,1.9,0.9h4v10.9c0,0.5,0.2,1.1,0.6,1.4c0.4,0.4,0.8,0.6,1.3,0.5h0.8c0.5,0,0.9-0.2,1.3-0.5c0.5-0.4,0.8-1,0.8-1.6
	l0.1-3.6l11.9-6.8l11.9,7v5.1l-0.7,0.7v-2.6c0-1.8-1-3.5-2.5-4.4L58.2,52c-1.6-0.9-3.5-0.9-5.1,0l-6.2,3.5c-1.6,1.1-2.5,2.9-2.5,4.9
	c0,0.5,0.2,1,0.6,1.3c0.3,0.3,0.8,0.5,1.2,0.5h1.3c1,0,1.8-0.8,1.8-1.8l0,0c0-0.2,0.2-0.6,0.1-0.7l6.4-3.6l6.3,3.7l-0.1,7.4
	l-6.4,3.6l-6-3.5c-0.2-0.3-0.2-0.6-0.2-0.9l-0.3-1.6l0,0h-2.7c-0.5,0-0.9,0.2-1.3,0.5c-0.3,0.3-0.5,0.8-0.6,1.2
	c0,1.9,0.9,3.7,2.5,4.9l6.2,3.6c0.8,0.4,1.7,0.7,2.6,0.7c0.9,0,1.8-0.2,2.6-0.7l2.5-1.4c-0.1,0.3-0.2,0.6-0.3,0.9l-4.8,2.7l-11.8-7
	v-3.3c0-0.6-0.3-1.2-0.8-1.6c-0.3-0.3-0.8-0.5-1.3-0.5h-0.8c-0.5,0-1,0.2-1.3,0.6c-0.4,0.4-0.7,0.9-0.7,1.5v10.7h-4
	c-1.2,0-2.2,0.8-2.4,1.9c-0.1,0.7,0,1.5,0.5,2.1c0.5,0.6,1.2,0.9,1.9,0.9h4v2.8c0,1.2,0.8,2.2,1.9,2.4l0.3,0.1h0.2
	c1.4,0,2.4-1.1,2.4-2.4v-2.8h19.9c0.7,0,1.3-0.3,1.8-0.7c0.5,0.5,1.1,0.7,1.7,0.7h0.5v2.8c0,1.2,0.8,2.2,1.9,2.4l0.3,0.1H70
	c1.4,0,2.5-1.1,2.5-2.4c0,0,0,0,0,0v-2.8h4c0.5,0,1.1-0.2,1.5-0.5c0.5-0.3,0.8-0.8,0.9-1.4c0.1-0.2,0.1-0.4,0.1-0.6
	c0-0.1,0-0.3,0-0.4c-0.1-0.6-0.4-1.1-0.8-1.4c-0.5-0.4-1-0.6-1.6-0.6h-4v-1.3l0.4-0.2c0.1,0,0.2-0.1,0.3-0.1l0.2-0.1l0.4-0.3
	l9.9-9.9l4.1-4.1c0.4,0.1,0.7,0.1,1.1,0.1c1.2,0,2.4-0.5,3.2-1.3c1.2-1.2,1.6-2.9,1.2-4.6C94.3,54.6,94.8,52.9,94.6,51.3z
	 M43.7,77.7V76l2.8,1.7H43.7z M88.1,49.7c0.4,0.1,0.7,0.3,1,0.6c0.3,0.3,0.5,0.6,0.6,1L88.1,49.7z M83.7,58.9L73.3,69.3
	c-0.3-0.3-0.6-0.5-0.9-0.7c-0.1,0-0.2-0.1-0.2-0.1c-0.3-0.5-0.7-1-1.2-1.2c-0.2-0.4-0.5-0.8-0.8-1.1l10.5-10.5l3,3l0.2,0.2
	L83.7,58.9z M66.6,71.6c0.2,0.6,0.7,1,1.3,1.3l-0.2,0.1l-1.1-1.1L66.6,71.6z M67.6,49.3V51l-2.9-1.7H67.6z M77.7,51.6l-5.2,5.3v-7.6
	h4c0.5,0,1-0.2,1.5-0.5C77.6,49.7,77.5,50.7,77.7,51.6L77.7,51.6z M47.2,48.9L43.7,51v-1.7h1.4c0.7,0,1.3-0.2,1.8-0.7
	C47,48.7,47.1,48.8,47.2,48.9z"/>
<path class="st2" d="M41.1,66.1c-1.4,0-2.6-1.1-2.6-2.6s1.1-2.6,2.6-2.6c1.4,0,2.6,1.1,2.6,2.6c0,0,0,0,0,0
	C43.7,65,42.5,66.1,41.1,66.1z"/>
<circle class="st0" cx="41.1" cy="63.6" r="1"/>
<path class="st2" d="M46.7,66.1c-1.4,0-2.6-1.1-2.6-2.6s1.1-2.6,2.6-2.6c1.4,0,2.6,1.1,2.6,2.6c0,0,0,0,0,0
	C49.2,65,48.1,66.1,46.7,66.1C46.7,66.1,46.7,66.1,46.7,66.1z"/>
<circle class="st0" cx="46.7" cy="63.6" r="1"/>
<path class="st2" d="M82.2,80.2c0,1.4-1.1,2.5-2.5,2.5c0,0,0,0,0,0c-0.7,0-1.3-0.3-1.8-0.7c-0.4-0.4-0.7-0.9-0.8-1.5l0,0
	c0-0.1,0-0.2,0-0.3c0-0.2,0-0.3,0.1-0.5l0,0c0.1-0.6,0.4-1.1,0.9-1.4c0.4-0.4,1-0.6,1.6-0.6C81.1,77.8,82.2,78.9,82.2,80.2z"/>
<circle class="st0" cx="79.7" cy="80.2" r="1"/>
<path class="st0" d="M93,51.4c-0.1-1.1-0.5-2.1-1.2-3c-1.9-2.4-5.4-2.7-7.8-0.7c-0.1,0.1-0.2,0.1-0.2,0.2h-0.1
	c-1.5-0.8-3.4-0.3-4.2,1.2c-0.5,0.9-0.5,2,0,2.9l-8.7,8.7v-13h5.5c0.5,0,0.9-0.4,0.9-0.8c0-0.5-0.4-0.9-0.9-0.9h-5.5v-4.3
	c0-0.4-0.3-0.8-0.7-0.9c-0.5-0.1-0.9,0.3-1,0.7c0,0,0,0.1,0,0.1V46H48.6c-0.5,0-0.9,0.4-0.8,0.9c0,0.5,0.4,0.8,0.8,0.8h3.8
	l-10.3,5.9l0,0v-5.9h3c0.4,0,0.8-0.3,0.9-0.8c0.1-0.5-0.2-0.9-0.7-1c-0.1,0-0.1,0-0.2,0h-3v-4.3c0-0.4-0.3-0.8-0.7-0.9
	c-0.5-0.1-0.9,0.2-1,0.7c0,0.1,0,0.1,0,0.2V46h-5.5c-0.4,0-0.8,0.3-0.9,0.7c-0.1,0.5,0.2,0.9,0.7,1c0,0,0.1,0,0.1,0h5.5v12.5
	c0,0.2,0.2,0.4,0.4,0.4h0.8c0.3,0,0.5-0.2,0.5-0.5c0,0,0,0,0,0v-3.4c0-0.6,0.4-1.2,0.9-1.5l11.7-6.8c0.5-0.3,1.2-0.3,1.8,0l11.8,6.8
	c0.5,0.3,0.9,0.9,0.9,1.6v5.7l-3.8,3.8v-6.4c0-1.2-0.7-2.4-1.7-3l-6.2-3.6c-1.1-0.6-2.4-0.6-3.5,0l-6.2,3.6
	c-1.1,0.8-1.8,2.1-1.8,3.5c0,0.1,0.1,0.2,0.2,0.2h1.3c0.1,0,0.2-0.1,0.2-0.2l0,0c0-0.8,0.3-1.5,0.9-2l6.2-3.6c0.5-0.3,1.2-0.3,1.8,0
	l6.2,3.6c0.5,0.3,0.9,0.9,0.9,1.5v7.2c0,0.6-0.3,1.2-0.9,1.5l-6.2,3.5c-0.5,0.3-1.2,0.3-1.8,0l-6.2-3.6c-0.6-0.5-0.9-1.2-0.9-2
	c0-0.1-0.1-0.2-0.2-0.2l0,0h-1.2c-0.1,0-0.3,0.1-0.3,0.2c0,0,0,0,0,0c0,1.4,0.7,2.7,1.8,3.5l6.2,3.6c0.5,0.3,1.1,0.5,1.8,0.5
	c0.6,0,1.2-0.2,1.8-0.5l6.2-3.6l-1.7,4.8c-0.1,0.2-0.1,0.4-0.1,0.7l-5.3,3c-0.6,0.3-1.2,0.3-1.8,0L43,71.8c-0.5-0.3-0.9-0.9-0.9-1.6
	v-3.3c0-0.3-0.2-0.5-0.5-0.5h-0.8c-0.3,0-0.5,0.2-0.5,0.4c0,0,0,0,0,0v12.3h-5.5c-0.4,0-0.8,0.3-0.9,0.7c-0.1,0.5,0.2,0.9,0.7,1
	c0.1,0,0.1,0,0.2,0h5.5v4.4c0,0.4,0.3,0.8,0.7,0.9c0.5,0.1,0.9-0.2,1-0.7c0-0.1,0-0.1,0-0.2V81h21.5c0.5-0.1,0.8-0.5,0.8-1
	c0-0.4-0.4-0.7-0.8-0.8h-4.7l3.6-2.1c0.4,0.3,0.8,0.5,1.3,0.5c0.2,0,0.5,0,0.7-0.1l4.6-1.6v3.4h-2c-0.4,0-0.8,0.3-0.9,0.8
	c-0.1,0.5,0.3,0.9,0.8,1c0,0,0.1,0,0.1,0h2.1v4.4c0,0.4,0.3,0.8,0.7,0.9c0.5,0.1,1-0.2,1.1-0.7c0-0.1,0-0.1,0-0.2V81h5.5
	c0.3,0,0.6-0.2,0.7-0.4l0,0c0.1-0.1,0.2-0.3,0.2-0.4c0-0.1,0-0.3-0.1-0.4l0,0c-0.2-0.3-0.4-0.4-0.8-0.4h-5.5v-4l1.5-0.5
	c0,0,0,0,0.1,0l0,0c0,0,0,0,0.1,0l0,0l0,0l0,0c0,0,0,0,0.1,0l0,0l11-10.9l3.7-3.7c0.5,0.2,1,0.4,1.5,0.4c0.8,0,1.6-0.3,2.2-0.9
	c1-1,1.2-2.5,0.5-3.7C92.7,54.8,93.3,53.1,93,51.4z M42.1,79.3v-5.9l10.3,5.9H42.1z M69.1,53.7l-10.2-5.9h10.3L69.1,53.7L69.1,53.7
	L69.1,53.7z M63.9,75.9c-0.1,0-0.2,0-0.3-0.1c-0.1-0.1-0.1-0.2-0.1-0.3L64,74l1.3,1.3L63.9,75.9z M67.2,74.7l-2.5-2.5l1.5-4.2
	c0.5-0.1,1.1,0,1.6,0.3c0.3,0.3,0.4,1.1,0.2,2.1l0,0c0,0,0,0,0,0.1v0.1c0,0.5,0.5,0.9,1,0.8c0,0,0,0,0,0c0.7-0.2,1.4-0.2,2.1,0.2
	c0.3,0.5,0.4,1,0.3,1.6L67.2,74.7z M83.6,61.1L73,71.8c-0.1-0.5-0.4-1-0.7-1.4c-0.2-0.2-0.4-0.3-0.6-0.4c-0.2-0.1-0.5-0.2-0.8-0.2
	c-0.1-0.6-0.6-1.2-1.2-1.2c-0.2-1-1-1.9-2.1-2.1l13.1-13.1l3,3l2.4,2.4L83.6,61.1z M89.8,58.2c-0.5,0.5-1.4,0.5-1.9,0c0,0,0,0,0,0
	l-6.6-6.7c-0.6-0.5-0.6-1.4-0.1-1.9s1.4-0.6,1.9-0.1c0,0,0.1,0.1,0.1,0.1l6.6,6.6C90.4,56.8,90.4,57.6,89.8,58.2L89.8,58.2z
	 M90.4,54.3L85,49c1.5-1.2,3.7-1.1,5.1,0.2c0.7,0.7,1.1,1.7,1.1,2.7C91.3,52.8,91,53.7,90.4,54.3L90.4,54.3z"/>
</svg>
