<?xml version="1.0" encoding="utf-8"?>
<!-- Generator: Adobe Illustrator 24.2.1, SVG Export Plug-In . SVG Version: 6.00 Build 0)  -->
<svg version="1.1" id="Layer_1" xmlns="http://www.w3.org/2000/svg" xmlns:xlink="http://www.w3.org/1999/xlink" x="0px" y="0px"
	 viewBox="0 0 119 119" style="enable-background:new 0 0 119 119;" xml:space="preserve">
<style type="text/css">
	.st0{fill:#F5B6AB;stroke:#E8E8E8;stroke-width:5;stroke-miterlimit:10;}
	.st1{fill:#212B4D;stroke:#212B4D;stroke-width:0.1;stroke-miterlimit:10;}
</style>
<circle class="st0" cx="59.5" cy="59.5" r="57"/>
<path class="st1" d="M85,73.9c-0.2-0.8-0.5-1.5-0.9-2.2c-0.3-0.8-0.6-1.5-1-2.2c0-0.1-0.1-0.2-0.1-0.2c-0.5-0.9-1-1.9-1.6-2.7
	l-1.4,1.8c0.9,1.4,1.6,2.9,2.2,4.5c0.4,1.1,0.1,2.3-0.7,3.1c-2.5,2.6-5.4,4.7-8.7,6.3h-0.1c-0.4,0.2-0.8,0.4-1.2,0.6l-0.2,0.1
	c-0.4,0.2-0.7,0.3-1.1,0.4c-0.1,0.1-0.3,0.1-0.4,0.2l-0.9,0.3c-0.2,0-0.4,0.1-0.6,0.2l-0.9,0.2c-0.2,0.1-0.5,0.1-0.7,0.2
	c-0.2,0.1-0.5,0.1-0.8,0.2c-0.3,0.1-0.6,0.1-0.9,0.2l-0.7,0.1c-0.3,0.1-0.7,0.1-1,0.1c-0.2,0-0.4,0-0.6,0.1l-1.1,0.1
	c-0.2,0-0.3,0-0.5,0c-0.5,0-1.1,0-1.6,0s-1.1,0-1.6,0c-0.2,0-0.3,0-0.5,0L56.2,85c-0.2,0-0.4,0-0.6-0.1c-0.3,0-0.7-0.1-1-0.1
	l-0.7-0.1c-0.3-0.1-0.6-0.1-0.8-0.2c-0.3,0-0.5-0.1-0.8-0.2c-0.2,0-0.5-0.1-0.7-0.2l-0.9-0.2c-0.2-0.1-0.4-0.1-0.6-0.2l-1-0.3
	c-0.1-0.1-0.3-0.1-0.4-0.2c-0.3-0.1-0.7-0.3-1-0.4l-0.3-0.1c-0.4-0.2-0.8-0.3-1.2-0.6l0,0c-3.2-1.6-6.1-3.6-8.6-6.2
	c-0.9-0.9-1.1-2.2-0.7-3.4c2.5-6.8,7.9-12.1,14.7-14.5c0.3-0.1,0.6,0,0.9,0.1l0,0l0.3,0.2c0.3,0.1,0.7,0.3,1,0.5s0.5,0.2,0.8,0.3
	c0.1,0,0.1,0.1,0.2,0.1c1.5,0.6,3.1,0.8,4.7,0.8c1.6,0,3.2-0.3,4.7-0.8c0.1,0,0.1,0,0.2-0.1c0.3-0.1,0.5-0.2,0.8-0.3
	c0.3-0.2,0.7-0.3,1-0.5l0.3-0.2c0,0,0.1,0,0.1,0c0.2-0.1,0.5-0.2,0.8-0.1c2.7,1,5.2,2.4,7.5,4.2l1.1-1.9c-1.9-1.6-4.1-2.9-6.4-3.8
	c-0.2-0.1-0.3-0.4-0.2-0.6c0,0,0-0.1,0.1-0.1c2.9-2.8,4.4-6.6,4.3-10.6c-0.2-7.8-6.7-14-14.5-13.8s-14,6.7-13.8,14.5
	c0.1,3.7,1.7,7.3,4.4,9.9c0.1,0.1,0.1,0.4,0,0.5c0,0-0.1,0.1-0.1,0.1c-6.6,2.8-11.9,8.1-14.5,14.8v0.1c-0.4,0.7-1.6,2.8-0.8,3.8
	l0.2,0.3c3.3,4,7.4,7.1,12.2,9.1c0.1,0,0.1,0.1,0.2,0.1c0.4,0.2,0.8,0.3,1.2,0.5c0.2,0.1,0.3,0.1,0.5,0.2l1,0.3l0.7,0.2
	c0.3,0.1,0.6,0.2,0.9,0.2s0.5,0.1,0.8,0.2s0.5,0.1,0.8,0.2s0.6,0.1,0.9,0.2s0.5,0.1,0.7,0.1c0.3,0,0.7,0.1,1,0.2
	c0.2,0,0.5,0,0.7,0.1l1.2,0.1c0.2,0,0.4,0,0.5,0c0.6,0,1.2,0,1.8,0s1.2,0,1.7,0c0.2,0,0.4,0,0.6,0l1.2-0.1c0.2,0,0.4,0,0.7-0.1
	c0.3-0.1,0.7-0.1,1-0.2c0.3,0,0.5-0.1,0.8-0.1s0.6-0.1,0.9-0.2s0.5-0.1,0.8-0.2s0.5-0.2,0.8-0.2c0.3-0.1,0.6-0.1,0.9-0.2
	c0.2-0.1,0.5-0.2,0.7-0.2s0.7-0.2,1-0.3c0.2-0.1,0.3-0.1,0.4-0.2c0.4-0.1,0.8-0.3,1.2-0.5c0.1,0,0.1,0,0.2-0.1c4.8-2,9-5.2,12.4-9.2
	C85,75,85.1,74.4,85,73.9z M47.5,45.9c-0.1-6.6,5.2-12.1,11.9-12.1C66,33.7,71.4,39,71.5,45.6c0.1,4.1-2,8-5.4,10.3
	c-0.4,0.3-0.9,0.5-1.3,0.8c-0.1,0-0.1,0.1-0.2,0.1c-3.2,1.4-6.9,1.4-10.1,0c-0.1,0-0.1,0-0.1-0.1c-0.5-0.2-0.9-0.5-1.3-0.8
	C49.6,53.7,47.5,49.9,47.5,45.9z"/>
<path class="st1" d="M74.8,62.3c0.5,0.3,1.1,0.2,1.5-0.2c0,0,0.7-0.8-0.5-1.7L74.8,62.3z"/>
<path class="st1" d="M81.4,66.5c-0.4-0.4-1.1-0.4-1.5-0.1c0,0-0.9,0.8,0.1,1.9L81.4,66.5z"/>
<circle class="st1" cx="78.1" cy="64.2" r="1.3"/>
</svg>
