<svg id="Layer_1" data-name="Layer 1" xmlns="http://www.w3.org/2000/svg" viewBox="0 0 200 200"><defs><style>.cls-1{fill:#f5b6ab;stroke-width:5px;}.cls-1,.cls-2{stroke:#212b4d;stroke-miterlimit:10;}.cls-2{fill:#212b4d;stroke-width:0.1px;}</style></defs><circle class="cls-1" cx="100" cy="100" r="57"/><path class="cls-2" d="M125.48,114.36a9.82,9.82,0,0,0-.94-2.17c-.29-.75-.61-1.51-1-2.23a1.17,1.17,0,0,1-.11-.25,24.75,24.75,0,0,0-1.59-2.74l-1.44,1.76a23,23,0,0,1,2.2,4.51,3,3,0,0,1-.69,3.06,30.91,30.91,0,0,1-8.65,6.31h-.07c-.4.22-.79.37-1.19.55l-.25.1c-.36.18-.73.29-1.09.44-.14.07-.28.1-.43.18l-.94.32a5.2,5.2,0,0,0-.61.18l-.86.22a4.87,4.87,0,0,1-.73.18,6.8,6.8,0,0,1-.75.18c-.29.07-.58.11-.87.18l-.68.11a8.26,8.26,0,0,1-1,.14c-.18,0-.39,0-.61.07l-1.12.11a1.91,1.91,0,0,0-.47,0c-.54,0-1.08,0-1.62,0s-1.08,0-1.62,0a2.19,2.19,0,0,0-.51,0l-1.11-.11c-.22,0-.4,0-.62-.07a8.09,8.09,0,0,1-1-.14l-.69-.11c-.28-.07-.57-.11-.83-.18a6.1,6.1,0,0,1-.79-.18c-.21,0-.47-.11-.72-.18l-.87-.22a4.17,4.17,0,0,0-.57-.18l-1-.32c-.14-.08-.28-.11-.43-.18a9.84,9.84,0,0,1-1-.44l-.29-.1a8.47,8.47,0,0,1-1.19-.55h0a31.64,31.64,0,0,1-8.58-6.16,3.27,3.27,0,0,1-.72-3.39A24.17,24.17,0,0,1,92.12,98.6a1.17,1.17,0,0,1,.91.11h0l.29.18c.32.14.65.32,1,.47s.54.21.8.29c.07,0,.11.07.18.07a13.7,13.7,0,0,0,4.72.83,13.53,13.53,0,0,0,4.69-.83c.07,0,.11,0,.18-.07a8.39,8.39,0,0,0,.79-.29c.33-.15.65-.33,1-.47l.28-.18s.08,0,.11,0a.82.82,0,0,1,.76-.07,26.81,26.81,0,0,1,7.51,4.21l1.07-1.9A25.15,25.15,0,0,0,110,97.12a.42.42,0,0,1-.14-.65,14,14,0,0,0,4.29-10.56,14.19,14.19,0,1,0-24,10.6.35.35,0,0,1-.11.58,26.29,26.29,0,0,0-14.46,14.82l0,.07c-.36.65-1.55,2.77-.83,3.82l.25.29a31.69,31.69,0,0,0,12.19,9.09c.07,0,.11.07.18.07.39.18.76.32,1.15.47.15.07.33.1.47.18l1,.32.65.22c.29.07.61.18.9.25s.54.14.79.22.54.1.83.18.62.1.94.18.47.1.72.14a8.56,8.56,0,0,1,1,.15,3.92,3.92,0,0,1,.68.07l1.19.11c.18,0,.36,0,.54,0,.58,0,1.16,0,1.77,0s1.15,0,1.73,0c.22,0,.4,0,.58,0l1.19-.11c.21,0,.43,0,.65-.07a9.3,9.3,0,0,1,1-.15c.26,0,.51-.11.76-.14s.61-.11.9-.18.54-.11.83-.18.54-.15.79-.22a6,6,0,0,0,.91-.25c.21-.08.47-.15.68-.22s.65-.22,1-.32c.15-.08.29-.11.43-.18a12.2,12.2,0,0,0,1.16-.47c.07,0,.11,0,.18-.07a32.94,32.94,0,0,0,12.37-9.2A2.4,2.4,0,0,0,125.48,114.36ZM88,86.38a12,12,0,0,1,24-.26,11.83,11.83,0,0,1-5.44,10.28,12,12,0,0,1-1.34.76c-.07,0-.1.07-.18.07a12.25,12.25,0,0,1-10.06,0,.31.31,0,0,1-.14-.07,10.47,10.47,0,0,1-1.34-.76A11.91,11.91,0,0,1,88,86.38Z"/><path class="cls-2" d="M115.32,102.81a1.29,1.29,0,0,0,1.53-.16s.72-.84-.46-1.74Z"/><path class="cls-2" d="M121.88,107a1.22,1.22,0,0,0-1.54-.09s-.86.77.14,1.91Z"/><circle class="cls-2" cx="118.61" cy="104.72" r="1.28"/></svg>