<?xml version="1.0" encoding="utf-8"?>
<!-- Generator: Adobe Illustrator 24.2.1, SVG Export Plug-In . SVG Version: 6.00 Build 0)  -->
<svg version="1.1" id="Layer_1" xmlns="http://www.w3.org/2000/svg" xmlns:xlink="http://www.w3.org/1999/xlink" x="0px" y="0px"
	 viewBox="0 0 127 127" style="enable-background:new 0 0 127 127;" xml:space="preserve">
<style type="text/css">
	.st0{fill:#212B4D;}
	.st1{fill:#D4A0AF;}
</style>
<circle class="st0" cx="63.5" cy="63.5" r="63.5"/>
<path class="st1" d="M88.6,79.7c-3.3,4-7.6,7.1-12.3,9.2l-0.5,0.3h-0.2c-0.2,0.1-0.4,0.1-0.6,0.2l-0.2,0.1L73.2,90
	c-0.4,0.2-0.9,0.3-1.3,0.4l-0.7,0.2l-1.4,0.3c0,0-0.9,0.2-1.1,0.2c-0.3,0-0.6,0.1-0.9,0.1l-0.5,0.1l-1.4,0.1c-0.2,0-0.5,0-0.7,0
	c-0.4,0-1,0-1.6,0s-1.2,0-1.8,0l-1.7-0.1l-0.4-0.1h-0.2h-0.3c-0.2-0.1-0.5-0.1-0.7-0.1c-0.2,0-0.4-0.1-0.6-0.1l-2-0.4L54.1,90
	c0,0-1.2-0.4-1.5-0.5l-0.7-0.3c-0.2-0.1-0.4-0.1-0.5-0.2h-0.1l-0.7-0.4c-4.6-2-8.6-5-11.8-8.8l-0.4-0.5c-1.5-2.2,0.1-4.9,0.7-6
	c2.3-5.8,6.5-10.6,12-13.6c-4.9-6.9-3.3-16.5,3.6-21.4c2.6-1.9,5.7-2.9,9-2.9h0.6c8.5,0.3,15.1,7.4,14.8,15.9
	c-0.1,3-1.1,5.9-2.9,8.4c1.4,0.8,2.8,1.7,4,2.7l1.9,1.7c1,0.3,1.7,1,2,2c0,0,0,0,0,0.1l1.6,2.4c0.6,0.9,1.1,1.8,1.6,2.8
	c0.5,1,0.8,1.7,1.1,2.5c0.4,0.7,0.7,1.4,0.9,2.2C89.5,77.3,89.3,78.6,88.6,79.7z"/>
<path class="st0" d="M87,76.7c-0.2-0.7-0.5-1.4-0.9-2c-0.3-0.7-0.6-1.4-0.9-2.1l-0.1-0.2c-0.4-0.9-0.9-1.7-1.5-2.5l-1.3,1.6
	c0.8,1.3,1.5,2.7,2,4.2c0.3,1,0.1,2.1-0.6,2.8c-2.3,2.4-5,4.4-8,5.8h-0.1c-0.4,0.2-0.7,0.3-1.1,0.5l-0.2,0.1c-0.3,0.2-0.7,0.3-1,0.4
	c-0.1,0.1-0.3,0.1-0.4,0.2L72,85.8c-0.2,0-0.4,0.1-0.6,0.2l-0.8,0.2c-0.2,0.1-0.4,0.1-0.7,0.2c-0.2,0.1-0.5,0.1-0.7,0.2l-0.8,0.2
	l-0.6,0.1c-0.3,0.1-0.6,0.1-0.9,0.1s-0.4,0-0.6,0.1l-1,0.1c-0.1,0-0.3,0-0.4,0c-0.5,0-1,0-1.5,0s-1,0-1.5,0c-0.2,0-0.3,0-0.5,0
	l-1-0.1L60,86.9c-0.3,0-0.6-0.1-0.9-0.1l-0.6-0.1c-0.3-0.1-0.5-0.1-0.8-0.2c-0.2,0-0.5-0.1-0.7-0.2c-0.2,0-0.4-0.1-0.7-0.2L55.5,86
	c-0.2-0.1-0.3-0.1-0.5-0.2l-0.9-0.3c-0.1-0.1-0.3-0.1-0.4-0.2c-0.3-0.1-0.7-0.2-1-0.4l-0.3-0.1c-0.4-0.1-0.7-0.3-1.1-0.5l0,0
	c-2.9-1.4-5.6-3.4-7.9-5.7c-0.8-0.8-1.1-2-0.7-3.1C45,69.3,50,64.4,56.2,62.2c0.3-0.1,0.6,0,0.8,0.1l0,0l0.3,0.2
	c0.3,0.1,0.6,0.3,0.9,0.4s0.5,0.2,0.7,0.3c0.1,0,0.1,0.1,0.2,0.1c1.4,0.5,2.9,0.8,4.3,0.8c1.5,0,2.9-0.3,4.3-0.8
	c0.1,0,0.1,0,0.2-0.1c0.3-0.1,0.5-0.2,0.7-0.3c0.3-0.1,0.6-0.3,0.9-0.4l0.3-0.2c0,0,0.1,0,0.1,0c0.2-0.1,0.5-0.2,0.7-0.1
	c2.5,0.9,4.8,2.2,6.9,3.9l1-1.8c-1.8-1.4-3.7-2.6-5.8-3.5c-0.2-0.1-0.3-0.3-0.2-0.5c0,0,0-0.1,0.1-0.1c2.7-2.5,4.1-6.1,4-9.7
	c-0.2-7.2-6.2-12.9-13.4-12.7C55.9,38,50.3,44,50.4,51.3c0.1,3.4,1.5,6.7,4,9.1c0.1,0.1,0.1,0.3,0,0.5c0,0-0.1,0.1-0.1,0.1
	c-6.1,2.5-10.9,7.5-13.3,13.7v0.1c-0.3,0.6-1.4,2.6-0.8,3.5l0.2,0.3c3,3.7,6.9,6.5,11.2,8.4c0.1,0,0.1,0.1,0.2,0.1
	c0.3,0.2,0.7,0.3,1.1,0.4c0.1,0.1,0.3,0.1,0.4,0.2l0.9,0.3l0.6,0.2c0.3,0.1,0.6,0.2,0.8,0.2l0.7,0.2c0.3,0.1,0.5,0.1,0.8,0.2
	l0.9,0.2l0.7,0.1c0.3,0,0.7,0.1,1,0.1c0.2,0,0.4,0,0.6,0.1l1.1,0.1c0.2,0,0.3,0,0.5,0c0.5,0,1.1,0,1.6,0s1.1,0,1.6,0
	c0.2,0,0.4,0,0.5,0l1.1-0.1c0.2,0,0.4,0,0.6-0.1c0.3-0.1,0.7-0.1,1-0.1l0.7-0.1l0.8-0.2c0.3-0.1,0.5-0.1,0.8-0.2l0.7-0.2
	c0.3-0.1,0.6-0.1,0.8-0.2l0.6-0.2l0.9-0.3c0.1-0.1,0.3-0.1,0.4-0.2c0.4-0.1,0.7-0.3,1.1-0.4c0.1,0,0.1,0,0.2-0.1
	c4.4-1.9,8.3-4.8,11.4-8.5C87.1,77.8,87.1,77.2,87,76.7z M52.5,51c-0.1-6.1,4.8-11.1,10.9-11.2c6.1-0.1,11.1,4.8,11.2,10.9
	c0.1,3.8-1.8,7.4-5,9.5c-0.4,0.3-0.8,0.5-1.2,0.7c0,0-0.1,0.1-0.2,0.1c-2.9,1.3-6.3,1.3-9.3,0c0,0-0.1,0-0.1-0.1
	c-0.4-0.2-0.8-0.4-1.2-0.7C54.4,58.2,52.5,54.7,52.5,51z"/>
<path class="st0" d="M77.6,66.1c0.5,0.3,1,0.2,1.4-0.2c0,0,0.7-0.8-0.4-1.6L77.6,66.1z"/>
<path class="st0" d="M83.7,69.9c-0.4-0.4-1-0.4-1.4-0.1c0,0-0.8,0.7,0.1,1.8L83.7,69.9z"/>
<circle class="st0" cx="80.6" cy="67.8" r="1.2"/>
<path class="st1" d="M91.2,63.5c0,1.8-1.5,3.3-3.3,3.3c0,0,0,0,0,0h-5.7v5.7c-0.1,1.8-1.7,3.2-3.5,3.1c-1.7-0.1-3-1.4-3.1-3.1v-5.7
	h-5.7c-1.8,0.1-3.4-1.3-3.5-3.1s1.3-3.4,3.1-3.5c0.1,0,0.2,0,0.4,0h5.7v-5.7c-0.1-1.8,1.3-3.4,3.1-3.5s3.4,1.3,3.5,3.1
	c0,0.1,0,0.2,0,0.4v5.7h5.7C89.7,60.2,91.2,61.6,91.2,63.5C91.2,63.5,91.2,63.5,91.2,63.5z"/>
<path class="st0" d="M89.2,63.5c0,0.7-0.6,1.2-1.2,1.2c0,0,0,0,0,0h-7.8v7.8c0,0.7-0.5,1.2-1.2,1.3c0,0,0,0,0,0
	c-0.7,0-1.3-0.6-1.3-1.2c0,0,0,0,0,0v-7.8h-7.8c-0.7,0-1.3-0.5-1.3-1.2c0,0,0,0,0,0c0-0.7,0.6-1.3,1.3-1.3h7.8v-7.8
	c0-0.7,0.6-1.3,1.3-1.3c0,0,0,0,0.1,0c0.7,0,1.2,0.6,1.2,1.3c0,0,0,0,0,0v7.8h7.8C88.6,62.2,89.2,62.8,89.2,63.5
	C89.2,63.5,89.2,63.5,89.2,63.5z"/>
</svg>
