<?xml version="1.0" encoding="utf-8"?>
<!-- Generator: Adobe Illustrator 24.2.1, SVG Export Plug-In . SVG Version: 6.00 Build 0)  -->
<svg version="1.1" id="Layer_1" xmlns="http://www.w3.org/2000/svg" xmlns:xlink="http://www.w3.org/1999/xlink" x="0px" y="0px"
	 viewBox="0 0 127 127" style="enable-background:new 0 0 127 127;" xml:space="preserve">
<style type="text/css">
	.st0{fill:#212B4D;}
	.st1{fill:#D4A0AF;}
</style>
<circle class="st0" cx="63.5" cy="63.5" r="63.5"/>
<rect x="42.9" y="42.8" class="st1" width="37.1" height="37.1"/>
<path class="st1" d="M54.1,79.5c-1.5,0-2.6-1.2-2.6-2.7c0,0,0,0,0,0v-5.9c0-1.5,1.2-2.7,2.7-2.7l0,0h2.1v-1.7c0-1.5,1.2-2.6,2.7-2.6
	c1.5,0,2.6,1.2,2.6,2.7v4.2c0,1.5-1.2,2.7-2.7,2.7h-2.1v0.7H67v-0.7h-2.1c-1.5,0-2.7-1.2-2.7-2.7V53c0-1.5,1.2-2.7,2.7-2.7l0,0H72
	c1,0,2,0.6,2.4,1.6v-2.2h-25v2.2c0.4-0.9,1.4-1.6,2.4-1.6h7.1c1.5,0,2.7,1.2,2.7,2.7l0,0v4.3c0,1.5-1.2,2.6-2.6,2.7
	c-1.5,0-2.6-1.2-2.6-2.7v-1.6h-1.8v0.7c0,1.5-1.2,2.7-2.7,2.7l0,0h-5c-1.5,0-2.7-1.2-2.7-2.7l0,0V47c0-1.5,1.2-2.7,2.7-2.7l0,0H77
	c1.5,0,2.7,1.2,2.7,2.7v9.2c0,1.4-1.2,2.6-2.6,2.6H72c-1.5,0-2.7-1.2-2.7-2.7l0,0v-0.7h-1.8v12.7h2.1c1.5,0,2.7,1.2,2.7,2.7l0,0v5.9
	c0,1.5-1.2,2.7-2.7,2.7l0,0L54.1,79.5z"/>
<path class="st1" d="M78.1,56.2V47c0-0.6-0.4-1-1-1H46.8c-0.6,0-1,0.4-1,1v9.2c0,0.6,0.4,1,1,1h5c0.6,0,1-0.4,1-0.9c0,0,0,0,0-0.1
	V55c0-0.6,0.4-1,0.9-1c0,0,0,0,0.1,0h2.9c0.6,0,1,0.4,1,1c0,0,0,0,0,0.1v2.2c0,0.6,0.4,1,1,1.1c0.5,0.1,1-0.3,1.1-0.9
	c0,0,0-0.1,0-0.1V53c0-0.6-0.4-1-1-1h-7c-0.6,0-1,0.4-1,1v1.2c0,0.6-0.4,1-1,1c0,0,0,0-0.1,0h-0.9c-0.6,0-1-0.4-1-0.9c0,0,0,0,0-0.1
	v-5.1c0-0.6,0.5-1.1,1-1.1c0,0,0,0,0,0H75c0.6,0,1,0.5,1,1.1v5.1c0,0.6-0.4,1-1,1h-0.9c-0.6,0-1-0.4-1.1-1V53c0-0.6-0.4-1-1-1
	c0,0,0,0-0.1,0h-7.1c-0.6,0-1,0.4-1,1v17.9c0,0.6,0.4,1,1,1.1h2.7c0.6,0,1,0.4,1,0.9c0,0,0,0,0,0.1v1.8c0,0.6-0.4,1-0.9,1.1
	c0,0-0.1,0-0.1,0H56.2c-0.6,0-1.1-0.5-1.1-1c0,0,0,0,0,0v-1.8c0-0.6,0.5-1.1,1-1.1c0,0,0,0,0,0h2.7c0.6,0,1-0.4,1-1c0,0,0,0,0-0.1
	v-4.2c0-0.6-0.5-1-1-1s-1,0.5-1,1v2.2c0,0.6-0.4,1-1,1c0,0,0,0-0.1,0h-2.6c-0.6,0-1,0.4-1,1v5.9c0,0.6,0.4,1,0.9,1c0,0,0,0,0.1,0
	h15.5c0.6,0,1-0.4,1-1c0,0,0,0,0-0.1v-5.9c0-0.6-0.4-1-0.9-1c0,0,0,0-0.1,0H67c-0.6,0-1-0.4-1-1V55c0-0.6,0.4-1,1-1h2.9
	c0.6,0,1,0.4,1,1v1.2c0,0.6,0.4,1,1,1h5c0.6,0,1-0.4,1-1L78.1,56.2z"/>
<path class="st1" d="M81.1,95c-1.4,0-2.6-1-2.9-2.4l-2.6-7.4H42.4c-2.1,0-3.9-1.7-3.9-3.9V42.5c0-2.1,1.7-3.8,3.8-3.9h39
	c2.1,0,3.8,1.7,3.8,3.9v33.1l7.4,2.6c2,0.7,2.4,2,2.4,2.9c0,1.3-1,2.5-2.2,2.8l-6.7,2.2l-2.2,6.7C83.6,94.1,82.4,95,81.1,95L81.1,95
	z M81,84.7l0.5-1.2l0.1-0.3l0.1-0.1c0.3-0.8,1-1.4,1.8-1.6l1.3-0.4l-5.7-2L81,84.7z M73.8,79.9l-1.1-3.2c-0.4-1.2-0.1-2.5,0.7-3.4
	c0.6-0.6,1.4-1,2.3-1c0.4,0,0.8,0.1,1.1,0.2l3.2,1.1V43.9H43.8v36L73.8,79.9z"/>
<path class="st1" d="M92.1,79.7l-8.5-3V42.5c0-1.2-1-2.3-2.3-2.3h-39c-1.2,0-2.3,1-2.3,2.2c0,0,0,0,0,0v38.9c0,1.2,1,2.3,2.3,2.3
	c0,0,0,0,0,0h34.3l3,8.5c0.1,0.4,0.5,1.3,1.4,1.3l0,0c0.4,0,1-0.2,1.3-1.1l2.5-7.4l7.4-2.5c0.9-0.3,1.1-0.9,1.1-1.3
	C93.5,80.2,92.5,79.8,92.1,79.7L92.1,79.7z M42.4,81.5c-0.1,0-0.2-0.1-0.2-0.2V42.5c0-0.1,0.1-0.2,0.2-0.2h39c0.1,0,0.2,0.1,0.2,0.2
	V76l-5.3-1.9c-0.6-0.3-1.3-0.1-1.8,0.4c-0.4,0.5-0.6,1.1-0.4,1.7l0,0l1.8,5.3L42.4,81.5z M84,82.9L84,82.9c-0.5,0.1-0.9,0.5-1,0.9
	c0,0,0,0,0,0.1l-1.9,5.7l-4.6-13.3L89.7,81L84,82.9z"/>
<path class="st1" d="M58.9,64.6c-1.5,0-2.6-1.2-2.6-2.7c0-1.5,1.2-2.6,2.7-2.6c1.5,0,2.6,1.2,2.6,2.7c0,0,0,0,0,0
	C61.6,63.4,60.4,64.6,58.9,64.6C58.9,64.6,58.9,64.6,58.9,64.6z"/>
<path class="st1" d="M58.9,62.9c0.6,0,1-0.4,1-1s-0.4-1-1-1s-1,0.4-1,1l0,0C57.9,62.5,58.4,62.9,58.9,62.9z"/>
<path class="st0" d="M78.1,56.2V47c0-0.6-0.4-1-1-1H46.8c-0.6,0-1,0.4-1,1v9.2c0,0.6,0.4,1,1,1h5c0.6,0,1-0.4,1-0.9c0,0,0,0,0-0.1
	V55c0-0.6,0.4-1,0.9-1c0,0,0,0,0.1,0h2.9c0.6,0,1,0.4,1,1c0,0,0,0,0,0.1v2.2c0,0.6,0.4,1,1,1.1c0.5,0.1,1-0.3,1.1-0.9
	c0,0,0-0.1,0-0.1V53c0-0.6-0.4-1-1-1h-7c-0.6,0-1,0.4-1,1v1.2c0,0.6-0.4,1-1,1c0,0,0,0-0.1,0h-0.9c-0.6,0-1-0.4-1-0.9c0,0,0,0,0-0.1
	v-5.1c0-0.6,0.5-1.1,1-1.1c0,0,0,0,0,0H75c0.6,0,1,0.5,1,1.1v5.1c0,0.6-0.4,1-1,1h-0.9c-0.6,0-1-0.4-1.1-1V53c0-0.6-0.4-1-1-1
	c0,0,0,0-0.1,0h-7.1c-0.6,0-1,0.4-1,1v17.9c0,0.6,0.4,1,1,1.1h2.7c0.6,0,1,0.4,1,0.9c0,0,0,0,0,0.1v1.8c0,0.6-0.4,1-0.9,1.1
	c0,0-0.1,0-0.1,0H56.2c-0.6,0-1.1-0.5-1.1-1c0,0,0,0,0,0v-1.8c0-0.6,0.5-1.1,1-1.1c0,0,0,0,0,0h2.7c0.6,0,1-0.4,1-1c0,0,0,0,0-0.1
	v-4.2c0-0.6-0.5-1-1-1s-1,0.5-1,1v2.2c0,0.6-0.4,1-1,1c0,0,0,0-0.1,0h-2.6c-0.6,0-1,0.4-1,1v5.9c0,0.6,0.4,1,0.9,1c0,0,0,0,0.1,0
	h15.5c0.6,0,1-0.4,1-1c0,0,0,0,0-0.1v-5.9c0-0.6-0.4-1-0.9-1c0,0,0,0-0.1,0H67c-0.6,0-1-0.4-1-1V55c0-0.6,0.4-1,1-1h2.9
	c0.6,0,1,0.4,1,1v1.2c0,0.6,0.4,1,1,1h5c0.6,0,1-0.4,1-1L78.1,56.2z"/>
<path class="st0" d="M92.1,79.7l-8.5-3V42.5c0-1.2-1-2.3-2.3-2.3h-39c-1.2,0-2.2,1-2.2,2.3v38.9c0,1.2,1,2.3,2.3,2.3c0,0,0,0,0,0
	h34.3l3,8.5c0.1,0.4,0.5,1.3,1.4,1.3l0,0c0.4,0,1-0.2,1.3-1.1l2.5-7.4l7.4-2.5c0.9-0.3,1.1-0.9,1.1-1.3
	C93.5,80.2,92.5,79.8,92.1,79.7L92.1,79.7z M42.4,81.5c-0.1,0-0.2-0.1-0.2-0.2V43.7c0-0.8,0.6-1.4,1.4-1.4h36.4
	c0.8,0,1.4,0.6,1.4,1.4l0,0V76l-5.3-1.9c-0.6-0.2-1.3-0.1-1.7,0.4c-0.4,0.5-0.6,1.1-0.4,1.7l0,0l1.8,5.3L42.4,81.5z M84,82.9
	L84,82.9c-0.5,0.1-0.9,0.5-1,0.9c0,0,0,0,0,0.1l-1.9,5.7l-4.6-13.3L89.7,81L84,82.9z"/>
<path class="st0" d="M58.9,62.9c0.6,0,1-0.4,1-1s-0.4-1-1-1s-1,0.4-1,1l0,0C57.9,62.5,58.4,62.9,58.9,62.9z"/>
<polygon class="st1" points="81,88.2 77.6,77.3 87.9,80.9 81.6,83.6 "/>
<path class="st0" d="M42.2,80c0,0,0,1.6,1.5,1.5l-0.1,1l-1.7-0.3l-0.6-1.6L42.2,80z"/>
</svg>
