<?xml version="1.0" encoding="utf-8"?>
<!-- Generator: Adobe Illustrator 24.2.1, SVG Export Plug-In . SVG Version: 6.00 Build 0)  -->
<svg version="1.1" id="Layer_1" xmlns="http://www.w3.org/2000/svg" xmlns:xlink="http://www.w3.org/1999/xlink" x="0px" y="0px"
	 viewBox="0 0 127 127" style="enable-background:new 0 0 127 127;" xml:space="preserve">
<style type="text/css">
	.st0{fill:#212B4D;}
	.st1{fill:#D4A0AF;}
</style>
<circle class="st0" cx="63.5" cy="63.5" r="63.5"/>
<circle class="st1" cx="63.5" cy="63.5" r="30.8"/>
<path class="st0" d="M78.8,81.6H48.2c-0.8-0.1-1.3-0.7-1.3-1.5c0.1-0.7,0.6-1.2,1.3-1.3h30.7c0.8,0.1,1.3,0.7,1.3,1.5
	C80.1,81,79.5,81.6,78.8,81.6z"/>
<path class="st0" d="M63.5,76c-0.8,0-1.4-0.6-1.4-1.4V47.5c-0.1-0.8,0.5-1.4,1.3-1.5c0.8-0.1,1.4,0.5,1.5,1.3c0,0.1,0,0.2,0,0.2
	v27.2C64.9,75.4,64.3,76,63.5,76L63.5,76z"/>
<path class="st0" d="M73.3,57.9c-0.4,0-0.7-0.1-1-0.4l-8.8-8.8l-8.8,8.8c-0.5,0.6-1.4,0.6-2,0c0,0,0,0,0,0c-0.6-0.5-0.6-1.4,0-2
	c0,0,0,0,0,0l9.8-9.8c0.5-0.6,1.4-0.6,2,0c0,0,0,0,0,0l9.8,9.8c0.6,0.5,0.6,1.4,0,2C74.1,57.8,73.7,58,73.3,57.9z"/>
<path class="st1" d="M63.5,96.7c-18.4,0-33.2-14.9-33.2-33.2c0-18.4,14.9-33.2,33.2-33.2c6.2,0,12.3,1.7,17.5,5
	c1.6,1,2.1,3.2,1.1,4.8c-0.6,1-1.8,1.6-3,1.6c-0.7,0-1.3-0.2-1.8-0.5c-12.3-7.6-28.4-3.8-36.1,8.5c-7.6,12.3-3.8,28.4,8.5,36.1
	c12.3,7.6,28.4,3.8,36.1-8.5c4.1-6.7,5.1-14.8,2.5-22.2c-0.6-1.8,0.3-3.8,2.2-4.4c0.4-0.1,0.7-0.2,1.1-0.2c1.5,0,2.8,0.9,3.3,2.4
	C100.9,70.1,91.6,89,74.2,95C70.8,96.1,67.1,96.7,63.5,96.7L63.5,96.7z"/>
<path class="st1" d="M86.7,48.8c-1.9,0-3.5-1.6-3.5-3.5c0-1.9,1.6-3.5,3.5-3.5c1.9,0,3.5,1.6,3.5,3.5c0,0,0,0,0,0
	C90.2,47.2,88.7,48.8,86.7,48.8z"/>
<circle class="st1" cx="86.7" cy="45.3" r="1.9"/>
<path class="st0" d="M63.5,95.1C46,95.1,31.9,81,31.9,63.5c0-17.5,14.1-31.6,31.6-31.6c5.9,0,11.7,1.6,16.7,4.8
	c0.9,0.6,1.1,1.7,0.6,2.6s-1.7,1.1-2.6,0.6c-13.1-8.1-30.2-4-38.3,9s-4,30.2,9,38.3s30.2,4,38.3-9c4.4-7.1,5.4-15.7,2.7-23.6
	c-0.3-1,0.2-2,1.2-2.3c0.9-0.3,2,0.2,2.3,1.1c5.6,16.5-3.2,34.5-19.7,40.1C70.4,94.5,66.9,95.1,63.5,95.1L63.5,95.1z"/>
<circle class="st0" cx="86.7" cy="45.3" r="1.9"/>
</svg>
