<?xml version="1.0" encoding="utf-8"?>
<!-- Generator: Adobe Illustrator 24.2.1, SVG Export Plug-In . SVG Version: 6.00 Build 0)  -->
<svg version="1.1" id="Layer_1" xmlns="http://www.w3.org/2000/svg" xmlns:xlink="http://www.w3.org/1999/xlink" x="0px" y="0px"
	 viewBox="0 0 127 127" style="enable-background:new 0 0 127 127;" xml:space="preserve">
<style type="text/css">
	.st0{fill:#212B4D;}
	.st1{fill:#D4A0AF;}
	.st2{fill:#D4A0AF;stroke:#D4A0AF;stroke-width:3;stroke-miterlimit:10;}
</style>
<circle class="st0" cx="63.5" cy="63.5" r="63.5"/>
<polygon class="st1" points="83.5,39.2 77.9,86.1 48.8,86.1 43.5,39.2 49.8,39.2 49.8,36.9 76.9,36.9 76.9,39.2 "/>
<g id="LINES">
	<path class="st2" d="M83.5,47.4v-6.6c0-0.4-0.3-0.7-0.7-0.7h-2.4c-0.4,0-0.7-0.3-0.7-0.7V36c0-0.4-0.3-0.7-0.7-0.7c0,0,0,0,0,0
		H48.1c-0.4,0-0.7,0.3-0.7,0.7c0,0,0,0,0,0v3.3c0,0.4-0.3,0.7-0.7,0.7h-2.4c-0.4,0-0.7,0.3-0.7,0.7v6.6c0,0.4,0.3,0.7,0.7,0.7h0.3
		c0.4,0,0.7,0.3,0.7,0.6l3.4,30c0,0.4,0.4,0.7,0.8,0.6h0.2c0.4,0,0.7-0.4,0.6-0.8l0,0c0-0.4,0.2-0.7,0.6-0.8c0,0,0,0,0.1,0H76
		c0.4,0,0.7,0.3,0.7,0.7c0,0,0,0,0,0.1l-0.9,7.6c0,0.4-0.3,0.6-0.7,0.6H51.8c-0.4,0-0.7-0.3-0.7-0.6L51,84.8c0-0.4-0.4-0.7-0.8-0.6
		h-0.2c-0.4,0-0.7,0.4-0.6,0.8c0,0,0,0,0,0l0.3,2.8c0,0.4,0.3,0.6,0.7,0.6h0.6c0.4,0,0.7,0.3,0.7,0.7V91c0,0.4,0.3,0.7,0.7,0.7
		c0,0,0,0,0,0h22.5c0.4,0,0.7-0.3,0.7-0.7c0,0,0,0,0,0v-1.9c0-0.4,0.3-0.7,0.7-0.7h0.3c0.4,0,0.7-0.3,0.7-0.6l4.4-39.1
		c0-0.4,0.3-0.6,0.7-0.6h0.3C83.2,48.1,83.5,47.8,83.5,47.4C83.5,47.4,83.5,47.4,83.5,47.4z M73.3,90H54c-0.4,0-0.7-0.3-0.7-0.7
		v-0.2c0-0.4,0.3-0.7,0.7-0.7h19.2c0.4,0,0.7,0.3,0.7,0.7v0.2C74,89.7,73.7,90,73.3,90z M45.9,41.7h25.2c0.4,0,0.7-0.3,0.7-0.7v-0.2
		c0-0.4-0.3-0.7-0.7-0.7H49.7c-0.4,0-0.7-0.3-0.7-0.7v-1.7c0-0.4,0.3-0.7,0.7-0.7h27.6c0.4,0,0.7,0.3,0.7,0.7v1.7
		c0,0.4-0.3,0.7-0.7,0.7h-3.2c-0.4,0-0.7,0.3-0.7,0.7V41c0,0.4,0.3,0.7,0.7,0.7h7c0.4,0,0.7,0.3,0.7,0.7v3.3c0,0.4-0.3,0.7-0.7,0.7
		H45.9c-0.4,0-0.7-0.3-0.7-0.7v-3.3C45.2,42,45.5,41.7,45.9,41.7z M50.6,76.1c-0.4,0-0.7-0.3-0.7-0.6l-0.6-5.3L48,58.5
		c0-0.4,0.2-0.7,0.6-0.8c0,0,0,0,0.1,0h29.6c0.4,0,0.7,0.3,0.7,0.7c0,0,0,0,0,0.1l-1.9,17c0,0.4-0.3,0.6-0.7,0.6L50.6,76.1z
		 M78.6,56H48.3c-0.4,0-0.7-0.3-0.7-0.6l-0.7-6.5c0-0.4,0.2-0.7,0.6-0.8c0,0,0,0,0.1,0h31.8c0.4,0,0.7,0.3,0.7,0.7c0,0,0,0,0,0.1
		l-0.7,6.5C79.3,55.7,79,56,78.6,56L78.6,56z"/>
	<path class="st2" d="M49.7,80.9L49.7,80.9c0.4-0.1,0.8,0.3,0.9,0.7c0,0,0,0,0,0l0,0c0.1,0.4-0.3,0.9-0.7,0.9c0,0,0,0,0,0l0,0
		c-0.4,0.1-0.9-0.3-0.9-0.7c0,0,0,0,0,0l0,0C48.9,81.4,49.2,81,49.7,80.9z"/>
	<path class="st2" d="M47.9,43.4L47.9,43.4c0.4,0,0.8,0.4,0.8,0.8l0,0c0,0.5-0.4,0.8-0.8,0.8l0,0c-0.5,0-0.8-0.4-0.8-0.8l0,0
		C47.1,43.8,47.5,43.4,47.9,43.4z"/>
	<path class="st2" d="M51.2,43.4L51.2,43.4c0.4,0,0.8,0.4,0.8,0.8l0,0c0,0.5-0.4,0.8-0.8,0.8l0,0c-0.5,0-0.8-0.4-0.8-0.8l0,0
		C50.4,43.8,50.8,43.4,51.2,43.4z"/>
	<path class="st2" d="M54.5,43.4L54.5,43.4c0.4,0,0.8,0.4,0.8,0.8c0,0,0,0,0,0l0,0c0,0.5-0.4,0.8-0.8,0.8l0,0
		c-0.4,0-0.8-0.4-0.8-0.8l0,0C53.7,43.8,54.1,43.4,54.5,43.4z"/>
	<path class="st2" d="M67,60.8c-1.3-0.7-2.9-0.8-4.3-0.1c-1.5,0.7-2.8,1.9-3.6,3.3c-1.9,3.2-1.3,7,1.1,8.4c0.6,0.4,1.4,0.6,2.1,0.6
		c0.7,0,1.5-0.2,2.2-0.5c1.5-0.7,2.8-1.9,3.6-3.3C70,66,69.5,62.2,67,60.8z M60.6,64.9c0.6-1.2,1.6-2.1,2.8-2.6
		c0.5-0.2,1-0.3,1.5-0.3c0.2,0,0.3,0,0.5,0l-4.9,8.6C59.4,69.3,59.4,66.9,60.6,64.9L60.6,64.9z M66.7,68.4c-0.6,1.2-1.6,2.1-2.8,2.6
		c-0.6,0.3-1.3,0.4-2,0.3l5-8.6C68,64,68,66.3,66.7,68.4L66.7,68.4z"/>
</g>
<g id="LINES-2">
	<path class="st0" d="M83.5,47.4v-6.6c0-0.4-0.3-0.7-0.7-0.7h-2.4c-0.4,0-0.7-0.3-0.7-0.7V36c0-0.4-0.3-0.7-0.7-0.7c0,0,0,0,0,0
		H48.1c-0.4,0-0.7,0.3-0.7,0.7c0,0,0,0,0,0v3.3c0,0.4-0.3,0.7-0.7,0.7h-2.4c-0.4,0-0.7,0.3-0.7,0.7v6.6c0,0.4,0.3,0.7,0.7,0.7h0.3
		c0.4,0,0.7,0.3,0.7,0.6l3.4,30c0,0.4,0.4,0.7,0.8,0.6h0.2c0.4,0,0.7-0.4,0.6-0.8l0,0c0-0.4,0.2-0.7,0.6-0.8c0,0,0,0,0.1,0H76
		c0.4,0,0.7,0.3,0.7,0.7c0,0,0,0,0,0.1l-0.9,7.6c0,0.4-0.3,0.6-0.7,0.6H51.8c-0.4,0-0.7-0.3-0.7-0.6L51,84.8c0-0.4-0.4-0.7-0.8-0.6
		h-0.2c-0.4,0-0.7,0.4-0.6,0.8c0,0,0,0,0,0l0.3,2.8c0,0.4,0.3,0.6,0.7,0.6h0.6c0.4,0,0.7,0.3,0.7,0.7V91c0,0.4,0.3,0.7,0.7,0.7
		c0,0,0,0,0,0h22.5c0.4,0,0.7-0.3,0.7-0.7c0,0,0,0,0,0v-1.9c0-0.4,0.3-0.7,0.7-0.7h0.3c0.4,0,0.7-0.3,0.7-0.6l4.4-39.1
		c0-0.4,0.3-0.6,0.7-0.6h0.3C83.2,48.1,83.5,47.8,83.5,47.4C83.5,47.4,83.5,47.4,83.5,47.4z M73.3,90H54c-0.4,0-0.7-0.3-0.7-0.7
		v-0.2c0-0.4,0.3-0.7,0.7-0.7h19.2c0.4,0,0.7,0.3,0.7,0.7v0.2C74,89.7,73.7,90,73.3,90z M45.9,41.7h25.2c0.4,0,0.7-0.3,0.7-0.7v-0.2
		c0-0.4-0.3-0.7-0.7-0.7H49.7c-0.4,0-0.7-0.3-0.7-0.7v-1.7c0-0.4,0.3-0.7,0.7-0.7h27.6c0.4,0,0.7,0.3,0.7,0.7v1.7
		c0,0.4-0.3,0.7-0.7,0.7h-3.2c-0.4,0-0.7,0.3-0.7,0.7V41c0,0.4,0.3,0.7,0.7,0.7h7c0.4,0,0.7,0.3,0.7,0.7v3.3c0,0.4-0.3,0.7-0.7,0.7
		H45.9c-0.4,0-0.7-0.3-0.7-0.7v-3.3C45.2,42,45.5,41.7,45.9,41.7z M50.6,76.1c-0.4,0-0.7-0.3-0.7-0.6l-0.6-5.3L48,58.5
		c0-0.4,0.2-0.7,0.6-0.8c0,0,0,0,0.1,0h29.6c0.4,0,0.7,0.3,0.7,0.7c0,0,0,0,0,0.1l-1.9,17c0,0.4-0.3,0.6-0.7,0.6L50.6,76.1z
		 M78.6,56H48.3c-0.4,0-0.7-0.3-0.7-0.6l-0.7-6.5c0-0.4,0.2-0.7,0.6-0.8c0,0,0,0,0.1,0h31.8c0.4,0,0.7,0.3,0.7,0.7c0,0,0,0,0,0.1
		l-0.7,6.5C79.3,55.7,79,56,78.6,56L78.6,56z"/>
	<path class="st0" d="M49.7,80.9L49.7,80.9c0.4-0.1,0.8,0.3,0.9,0.7c0,0,0,0,0,0l0,0c0.1,0.4-0.3,0.9-0.7,0.9c0,0,0,0,0,0l0,0
		c-0.4,0.1-0.9-0.3-0.9-0.7c0,0,0,0,0,0l0,0C48.9,81.4,49.2,81,49.7,80.9z"/>
	<path class="st0" d="M47.9,43.4L47.9,43.4c0.4,0,0.8,0.4,0.8,0.8l0,0c0,0.5-0.4,0.8-0.8,0.8l0,0c-0.5,0-0.8-0.4-0.8-0.8l0,0
		C47.1,43.8,47.5,43.4,47.9,43.4z"/>
	<path class="st0" d="M51.2,43.4L51.2,43.4c0.4,0,0.8,0.4,0.8,0.8l0,0c0,0.5-0.4,0.8-0.8,0.8l0,0c-0.5,0-0.8-0.4-0.8-0.8l0,0
		C50.4,43.8,50.8,43.4,51.2,43.4z"/>
	<path class="st0" d="M54.5,43.4L54.5,43.4c0.4,0,0.8,0.4,0.8,0.8c0,0,0,0,0,0l0,0c0,0.5-0.4,0.8-0.8,0.8l0,0
		c-0.4,0-0.8-0.4-0.8-0.8l0,0C53.7,43.8,54.1,43.4,54.5,43.4z"/>
	<path class="st0" d="M67,60.8c-1.3-0.7-2.9-0.8-4.3-0.1c-1.5,0.7-2.8,1.9-3.6,3.3c-1.9,3.2-1.3,7,1.1,8.4c0.6,0.4,1.4,0.6,2.1,0.6
		c0.7,0,1.5-0.2,2.2-0.5c1.5-0.7,2.8-1.9,3.6-3.3C70,66,69.5,62.2,67,60.8z M60.6,64.9c0.6-1.2,1.6-2.1,2.8-2.6
		c0.5-0.2,1-0.3,1.5-0.3c0.2,0,0.3,0,0.5,0l-4.9,8.6C59.4,69.3,59.4,66.9,60.6,64.9L60.6,64.9z M66.7,68.4c-0.6,1.2-1.6,2.1-2.8,2.6
		c-0.6,0.3-1.3,0.4-2,0.3l5-8.6C68,64,68,66.3,66.7,68.4L66.7,68.4z"/>
</g>
</svg>
