<?xml version="1.0" encoding="utf-8"?>
<!-- Generator: Adobe Illustrator 24.2.1, SVG Export Plug-In . SVG Version: 6.00 Build 0)  -->
<svg version="1.1" id="Layer_1" xmlns="http://www.w3.org/2000/svg" xmlns:xlink="http://www.w3.org/1999/xlink" x="0px" y="0px"
	 viewBox="0 0 127 127" style="enable-background:new 0 0 127 127;" xml:space="preserve">
<style type="text/css">
	.st0{fill:#212B4D;}
	.st1{fill:#D4A0AF;}
</style>
<circle class="st0" cx="63.5" cy="63.5" r="63.5"/>
<path class="st1" d="M34.2,36h58.5c0.5,0,0.9,0.4,0.9,0.8V93c0,0.5-0.4,0.9-0.9,0.9H34.2c-0.5,0-0.8-0.4-0.8-0.9V36.8
	C33.4,36.4,33.8,36,34.2,36z"/>
<rect x="37.7" y="39.3" class="st1" width="52.6" height="10.1"/>
<rect x="37.1" y="55.4" class="st1" width="32.3" height="20.1"/>
<rect x="36.8" y="80.8" class="st1" width="16.2" height="8.8"/>
<rect x="57.3" y="80.8" class="st1" width="31.6" height="8.8"/>
<rect x="74.9" y="54.9" class="st1" width="14.2" height="19.8"/>
<path class="st0" d="M90.4,38H36.6c-0.6,0-1.1,0.5-1.1,1.1v11.3c0,0.6,0.4,1.1,1,1.1c0,0,0,0,0,0h53.9c0.6,0,1.1-0.5,1.1-1.1
	c0,0,0,0,0,0V39.1C91.5,38.5,91,38,90.4,38L90.4,38z M89.3,49.3H37.7v-9.1h51.7V49.3z"/>
<path class="st0" d="M86.9,46.8L86,45.9c0.2-0.5,0.4-1,0.4-1.6c0-1.9-1.6-3.5-3.5-3.5s-3.5,1.6-3.5,3.5c0,1.9,1.6,3.5,3.5,3.5
	c0.5,0,1.1-0.1,1.6-0.4l0.9,0.9c0.2,0.2,0.5,0.3,0.8,0.3c0.6,0,1.1-0.5,1.1-1.1C87.2,47.3,87.1,47,86.9,46.8z M83.8,45.2
	c-0.2,0.2-0.6,0.4-0.9,0.4c-0.3,0-0.7-0.1-0.9-0.4c-0.2-0.2-0.4-0.6-0.4-0.9c0-0.3,0.1-0.7,0.4-0.9c0.2-0.2,0.6-0.4,0.9-0.4
	c0.3,0,0.7,0.1,0.9,0.4c0.2,0.2,0.4,0.6,0.4,0.9C84.2,44.7,84,45,83.8,45.2z"/>
<path class="st0" d="M74.7,46.5c0-0.1,0-0.1-0.1-0.2c0-0.1-0.1-0.1-0.1-0.2c0-0.1-0.1-0.1-0.1-0.2c0-0.1-0.1-0.1-0.2-0.1L74,45.7
	c-0.1,0-0.1,0-0.2-0.1c-0.1,0-0.3,0-0.4,0c-0.1,0-0.1,0-0.2,0.1L73,45.8c-0.1,0-0.1,0.1-0.2,0.1c-0.1,0-0.1,0.1-0.1,0.2
	c0,0.1-0.1,0.1-0.1,0.2c0,0.1,0,0.1-0.1,0.2c0,0.1,0,0.1,0,0.2c0,0.1,0,0.1,0,0.2c0,0.1,0,0.1,0.1,0.2c0,0.1,0.1,0.1,0.1,0.2
	c0,0.1,0.1,0.1,0.1,0.2l0.2,0.1c0.1,0,0.1,0.1,0.2,0.1l0.2,0.1h0.2h0.2l0.2-0.1c0.1,0,0.1-0.1,0.2-0.1l0.2-0.1
	c0.2-0.2,0.3-0.5,0.3-0.8C74.7,46.6,74.7,46.6,74.7,46.5z"/>
<path class="st0" d="M69.5,45.6H46.7c-0.6-0.1-1.1,0.4-1.2,1c-0.1,0.6,0.4,1.1,1,1.2c0.1,0,0.1,0,0.2,0h22.8c0.6-0.1,1-0.6,1-1.2
	C70.4,46.1,70,45.7,69.5,45.6z"/>
<path class="st0" d="M69.9,53H36.7c-0.6,0-1.1,0.5-1.1,1.1v21.6c0,0.6,0.5,1.1,1.1,1.1h33.2c0.6,0,1.1-0.5,1.1-1.1V54.1
	C71,53.5,70.5,53,69.9,53L69.9,53z M48.8,74.6h-9.3l6.3-7.2l4.5,5.2L48.8,74.6z M51.5,74.6l2-2.7h5.4c0.6-0.1,1-0.6,1-1.2
	c-0.1-0.5-0.5-0.9-1-1h-3.7l0.8-1h6.9l4.4,5.9L51.5,74.6z M57.6,66.5l1.8-2.4l1.8,2.4H57.6z M68.8,73l-8.5-11.4
	c-0.4-0.5-1.1-0.6-1.6-0.2c-0.1,0.1-0.1,0.1-0.2,0.2l-6.9,9.2L46.6,65c-0.2-0.2-0.5-0.4-0.8-0.4c-0.3,0-0.6,0.1-0.8,0.4l-7.2,8.3
	v-18h31.1V73z"/>
<path class="st0" d="M50.5,56.5c-2.1,0-3.9,1.7-3.9,3.9s1.7,3.9,3.9,3.9c2.1,0,3.9-1.7,3.9-3.9C54.4,58.2,52.6,56.5,50.5,56.5z
	 M50.5,62.1c-0.9,0-1.7-0.8-1.7-1.7s0.8-1.7,1.7-1.7s1.7,0.8,1.7,1.7C52.2,61.3,51.4,62,50.5,62.1L50.5,62.1z"/>
<path class="st0" d="M90.4,53H73.6c-0.6,0-1.1,0.5-1.1,1.1c0,0,0,0,0,0v21.6c0,0.6,0.5,1.1,1.1,1.1c0,0,0,0,0,0h16.8
	c0.6,0,1.1-0.5,1.1-1.1V54.1C91.5,53.5,91,53,90.4,53z M89.3,74.6H74.7V55.2h14.6L89.3,74.6z"/>
<path class="st0" d="M86.8,57h-9.5c-0.6-0.1-1.1,0.4-1.2,1c-0.1,0.6,0.4,1.1,1,1.2c0.1,0,0.1,0,0.2,0h9.5c0.6-0.1,1-0.6,1-1.2
	C87.7,57.5,87.3,57.1,86.8,57z"/>
<path class="st0" d="M86.8,61.4h-9.5c-0.6-0.1-1.1,0.4-1.2,1c-0.1,0.6,0.4,1.1,1,1.2c0.1,0,0.1,0,0.2,0h9.5c0.6-0.1,1-0.6,1-1.2
	C87.7,61.9,87.3,61.5,86.8,61.4z"/>
<path class="st0" d="M86.8,65.8h-9.5c-0.6,0-1.1,0.5-1.1,1.1c0,0.6,0.5,1.1,1.1,1.1h9.5c0.6,0,1.1-0.5,1.1-1.1
	C87.9,66.3,87.4,65.8,86.8,65.8z"/>
<path class="st0" d="M78.3,71.1c0-0.1,0-0.1-0.1-0.2c0-0.1-0.1-0.1-0.1-0.2c0-0.1-0.1-0.1-0.1-0.2c-0.3-0.3-0.6-0.4-1-0.3
	c-0.1,0-0.1,0-0.2,0.1l-0.2,0.1l-0.1,0.1c0,0.1-0.1,0.1-0.1,0.2c0,0.1-0.1,0.1-0.1,0.2c0,0.1,0,0.1-0.1,0.2c0,0.1,0,0.1,0,0.2
	c0,0.1,0,0.1,0,0.2c0,0.1,0,0.1,0.1,0.2c0,0.1,0.1,0.1,0.1,0.2c0.1,0.1,0.2,0.2,0.3,0.3c0.1,0,0.1,0.1,0.2,0.1l0.2,0.1h0.2
	c0.3,0,0.6-0.1,0.8-0.3c0.1-0.1,0.2-0.2,0.2-0.4c0-0.1,0.1-0.1,0.1-0.2c0-0.1,0-0.1,0-0.2C78.3,71.2,78.3,71.1,78.3,71.1z"/>
<path class="st0" d="M86.8,70.2h-5.4c-0.6-0.1-1.1,0.4-1.2,1c-0.1,0.6,0.4,1.1,1,1.2c0.1,0,0.1,0,0.2,0h5.4c0.6-0.1,1-0.6,1-1.2
	C87.7,70.7,87.3,70.2,86.8,70.2z"/>
<path class="st0" d="M53.5,78.3H36.7c-0.6,0-1.1,0.5-1.1,1.1v11.3c0,0.6,0.5,1.1,1.1,1.1l0,0h16.8c0.6,0,1.1-0.5,1.1-1.1
	c0,0,0,0,0,0V79.4C54.6,78.8,54.1,78.3,53.5,78.3C53.5,78.3,53.5,78.3,53.5,78.3z M52.4,89.6H37.8v-9.1h14.6L52.4,89.6z"/>
<path class="st0" d="M90.4,78.3H57.3c-0.6,0-1.1,0.5-1.1,1.1v11.3c0,0.6,0.5,1.1,1.1,1.1l0,0h33.1c0.6,0,1.1-0.5,1.1-1.1V79.4
	C91.5,78.8,91,78.4,90.4,78.3z M89.3,89.6H58.4v-9.1h30.9V89.6L89.3,89.6z"/>
<path class="st0" d="M63.4,84.9c0-0.1,0-0.1-0.1-0.2c-0.1-0.1-0.1-0.3-0.2-0.4L63,84.2c-0.1,0-0.1-0.1-0.2-0.1L62.6,84
	c-0.1,0-0.3,0-0.4,0l-0.2,0.1c-0.1,0-0.1,0.1-0.2,0.1c-0.1,0.1-0.2,0.2-0.3,0.3c0,0.1-0.1,0.1-0.1,0.2c0,0.1-0.1,0.1-0.1,0.2
	c0,0.1,0,0.1,0,0.2c0,0.1,0,0.1,0,0.2c0,0.1,0,0.1,0.1,0.2c0,0.1,0.1,0.1,0.1,0.2c0,0.1,0.1,0.1,0.1,0.2c0.2,0.2,0.5,0.3,0.8,0.3
	c0.1,0,0.1,0,0.2,0c0.1,0,0.1,0,0.2-0.1L63,86c0.1-0.1,0.2-0.2,0.3-0.3c0-0.1,0.1-0.1,0.1-0.2c0-0.1,0-0.1,0.1-0.2
	c0-0.1,0-0.1,0-0.2C63.4,85,63.4,84.9,63.4,84.9z"/>
<path class="st0" d="M84.9,84H66.5c-0.6-0.1-1.1,0.4-1.2,1c-0.1,0.6,0.4,1.1,1,1.2c0.1,0,0.1,0,0.2,0h18.4c0.6,0.1,1.1-0.4,1.2-1
	c0.1-0.6-0.4-1.1-1-1.2C85,84,84.9,84,84.9,84z"/>
</svg>
