<?xml version="1.0" encoding="utf-8"?>
<!-- Generator: Adobe Illustrator 24.2.1, SVG Export Plug-In . SVG Version: 6.00 Build 0)  -->
<svg version="1.1" id="Layer_1" xmlns="http://www.w3.org/2000/svg" xmlns:xlink="http://www.w3.org/1999/xlink" x="0px" y="0px"
	 viewBox="0 0 125.9 125.9" style="enable-background:new 0 0 125.9 125.9;" xml:space="preserve">
<style type="text/css">
	.st0{fill:#212B4D;}
	.st1{fill:#D4A0AF;}
</style>
<g id="Group_488">
	<circle id="Ellipse_39" class="st0" cx="63" cy="63" r="63"/>
	<g id="Group_198">
		<path id="Path_260" class="st1" d="M44.9,62.7L43.4,47l1.9-8.1l8.4,5.3l2.9,6.6l11.5-1.4L79,38.9l3.4,1.2v21.4l-2.4,8.8l4.1,7.8
			l-10.7,8.6H51.9l-8.8-5.5L44.9,62.7z"/>
		<g id="Group_195">
			<g id="Group_194">
				<path id="Path_261" class="st1" d="M63,86.6c-2.6,0-4.7-2.1-4.8-4.6c-1-0.3-1.9-0.8-2.7-1.5l-1.1-0.8c-1.5-1.1-2.8-2.1-3-3.7
					c-0.2-1.4,0-2.8,0.5-4.1c0.9-2.3,2.5-4.3,4.7-5.5c1.4-0.8,2.2-1.7,2.2-2.7c-0.2-2.3,1.6-4.4,4-4.5c2.3-0.2,4.4,1.6,4.5,4
					c0,0.1,0,0.2,0,0.3v0.2c0,1,0.7,1.9,2.1,2.7l0,0c2.2,1.2,3.8,3.2,4.7,5.5c0.5,1.3,0.6,2.7,0.5,4.1c-0.2,1.6-1.5,2.5-3,3.6
					c-0.4,0.3-0.8,0.6-1.1,0.8c-0.8,0.6-1.7,1.1-2.7,1.5C67.7,84.5,65.5,86.6,63,86.6z M62.5,81.8c0,0.3,0.2,0.5,0.5,0.5h0
					c0.3,0,0.5-0.2,0.5-0.5l0,0c-0.2-0.1-0.3-0.2-0.5-0.2L62.5,81.8z M65.1,77.8c0.2,0.1,0.5,0.2,0.8,0.2c0.7-0.1,1.4-0.4,1.9-0.8
					c0.4-0.3,0.8-0.6,1.2-0.9c0.5-0.3,0.9-0.7,1.3-1.1c0-2.1-1.3-4.1-3.2-5c-2.3-1.1-3.9-3.3-4.2-5.9c-0.2,2.6-1.8,4.8-4.1,5.9
					c-1.9,0.9-3.1,2.9-3.1,5c0.3,0.3,1,0.8,1.3,1c0.3,0.2,0.8,0.6,1.2,0.9c0.5,0.5,1.2,0.8,1.9,0.8c0.3,0,0.5-0.1,0.8-0.2v-0.2
					c-1.8-0.8-3-2.5-3.1-4.5c0-1.9,1.4-4,5.3-4s5.3,2.2,5.3,4c-0.1,2-1.3,3.7-3.1,4.5L65.1,77.8z M62.2,73.5c0.4,0.4,1,0.4,1.4,0
					C63.2,73.4,62.7,73.4,62.2,73.5L62.2,73.5z"/>
				<path id="Path_262" class="st1" d="M52.5,75.9c0.2,1.1,1.2,1.9,2.5,2.9c0.4,0.3,0.8,0.6,1.2,0.9c0.9,0.7,2,1.3,3.1,1.5v0.7
					c0,2,1.6,3.7,3.7,3.7c2,0,3.7-1.6,3.7-3.7v-0.7c1.1-0.2,2.2-0.7,3.1-1.5c0.4-0.3,0.8-0.6,1.1-0.9c1.4-1,2.4-1.8,2.5-2.9
					c0.1-1.2,0-2.4-0.4-3.5c-0.8-2.1-2.3-3.8-4.2-4.9l0,0c-1.5-0.6-2.5-2-2.7-3.7c-0.1-1.7-1.6-3-3.3-2.9c-1.6,0.1-2.8,1.4-2.9,2.9
					l0,0c-0.1,1.6-1.2,3-2.7,3.7l0,0c-1.9,1.1-3.4,2.8-4.2,4.9C52.5,73.5,52.4,74.7,52.5,75.9L52.5,75.9z M63,83.4
					c-0.9,0-1.6-0.7-1.6-1.6c0,0,0,0,0,0V81c0.7-0.9,1.9-1.1,2.8-0.4c0,0,0,0,0,0c0.1,0.1,0.3,0.2,0.4,0.4v0.8
					C64.6,82.7,63.8,83.4,63,83.4L63,83.4z M63,74.9c-1,0-1.9-0.7-2.1-1.8c0-0.7,1.3-0.8,2.1-0.8s2.1,0.2,2.1,0.8
					C64.9,74.1,64,74.9,63,74.9z M58.2,69.2c2.2-1,3.6-3.1,3.7-5.4c0-0.6,0.5-1,1-1s1,0.5,1,1l0,0l0,0c0.1,2.4,1.6,4.5,3.7,5.4
					c2.4,1.2,3.9,3.7,3.7,6.4c-0.1,0.3-1,1-1.7,1.5L68.5,78c-1.2,1.3-3.1,1.4-4.5,0.4v-1.6c1.7-0.4,3-1.9,3.1-3.7
					c0-1.4-1.1-2.9-4.2-2.9c-3.1,0-4.2,1.5-4.2,2.9c0.1,1.8,1.4,3.3,3.1,3.7v1.6c-1.4,1.1-3.3,0.9-4.5-0.4c-0.4-0.3-0.8-0.6-1.2-0.9
					c-0.6-0.4-1.2-0.9-1.7-1.5C54.3,72.9,55.8,70.4,58.2,69.2z"/>
				<path id="Path_263" class="st1" d="M62.9,90.5c-4.3,0.1-8.6-0.7-12.6-2.3c-1.1-0.3-1.8-1.6-1.5-2.7s1.6-1.8,2.7-1.5
					c0.1,0,0.3,0.1,0.4,0.2c3.5,1.3,7.2,2,11,1.9c4.1,0.1,8.2-0.7,11.9-2.4c2.9-1.2,5.2-3.6,6.2-6.6c0.2-0.7,0-1.2-0.6-2.6
					c-0.6-1.3-1.1-2.7-1.4-4.1c-0.3-1.6-0.4-3.2-0.1-4.8c0.1-0.5,0.1-1,0.1-1.5L78.9,64c-2.7-2.4-4.7-5.5-5.8-9
					c-0.1-0.5-0.3-1-0.4-1.5c-0.1,0.2-0.3,0.3-0.4,0.5c-0.9,0.7-2.3,0.6-3-0.3l0,0c-0.5-0.9-1.5-1.4-2.6-1.3c-0.4,0-0.8,0-1.3,0
					c-0.7,0-1.5,0.1-2.4,0.1s-1.6,0-2.2,0s-1.1,0-1.5,0c-1-0.1-2,0.4-2.5,1.3c-0.7,0.9-2.1,1.1-3,0.3l0,0c-0.2-0.1-0.3-0.3-0.4-0.5
					c-0.1,0.5-0.2,1-0.3,1.5c-1.1,3.4-3.2,6.5-5.9,8.8l-0.2,0.2c0,0.5,0.1,1,0.2,1.4c0.3,1.6,0.2,3.3-0.1,4.8
					c-0.4,1.4-0.8,2.8-1.4,4.1c-0.6,1.4-0.8,1.9-0.6,2.6c0.2,0.8,0.5,1.6,0.9,2.3c0.7,1,0.5,2.3-0.5,3s-2.3,0.5-3-0.5
					c0-0.1-0.1-0.1-0.1-0.2c0,0,0-0.1,0-0.1c-0.7-1.1-1.2-2.3-1.5-3.5c-0.3-1.8,0-3.8,0.9-5.4c0.5-1.1,0.9-2.2,1.1-3.3
					c0.2-1.1,0.2-2.2,0-3.3c-0.1-0.8-0.2-1.5-0.1-2.3c-1.4-4.5-2.2-9.2-2.3-14c-0.3-7.8,1-12.6,3.8-14c0.6-0.3,1.3-0.5,1.9-0.5
					c2,0.2,3.8,1.2,5.1,2.7c2.8,3,5.1,6.4,7.1,10c0.3,0,0.7,0,1.1,0s1,0,1.5,0s1.4,0.1,2.2,0.1s1.5,0,2.1-0.1c0.6-0.1,1.1,0,1.5,0
					s0.7,0,1.1,0c1.9-3.6,4.3-7,7-10c1.3-1.5,3.1-2.5,5.1-2.7c0.7,0,1.3,0.2,1.9,0.5c2.8,1.5,4.1,6.2,3.8,14
					c-0.1,4.8-0.8,9.5-2.3,14c0,0.8,0,1.5-0.1,2.3c-0.2,1.1-0.2,2.2,0,3.3c0.3,1.2,0.7,2.3,1.2,3.4c0.9,1.6,1.2,3.6,0.9,5.4
					c-1.2,4.3-4.4,7.8-8.6,9.5C72.3,89.6,67.7,90.6,62.9,90.5z M80.4,40.8c-4.9,6.7-5,12.8-0.2,18.3c0.6-3.1,1-6.3,1.1-9.4
					C81.5,46.7,81.2,43.7,80.4,40.8z M45.5,40.8c-0.8,2.9-1.1,5.9-0.9,8.9c0.1,3.2,0.5,6.3,1.1,9.4C50.4,53.7,50.3,47.5,45.5,40.8
					L45.5,40.8z M53.4,48.5c0.1,0.8,0.1,1.6,0.1,2.3c0.2-0.3,0.5-0.6,0.8-0.8C54,49.4,53.7,49,53.4,48.5L53.4,48.5z M71.6,50
					c0.3,0.2,0.5,0.5,0.8,0.8c0-0.8,0.1-1.6,0.1-2.3C72.2,48.9,71.9,49.4,71.6,50L71.6,50z"/>
				<path id="Path_264" class="st1" d="M81.3,36.9c-1.6-0.8-3.6-0.2-5.8,2.1c-2.8,3.2-5.3,6.7-7.2,10.4c-1-0.2-2.1-0.2-3.1-0.1
					c-0.7,0-1.4,0.1-2.2,0.1s-1.6,0-2.2-0.1c-1-0.1-2.1-0.1-3.1,0.1c-2-3.8-4.4-7.3-7.2-10.4c-2.2-2.2-4.1-2.9-5.8-2
					c-3,1.5-3.4,7.9-3.2,13c0,4.7,0.8,9.3,2.3,13.8c-0.1,0.8,0,1.5,0.1,2.3c0.2,1.2,0.2,2.5,0,3.7c-0.3,1.2-0.7,2.4-1.3,3.6
					c-0.8,1.4-1.1,3.1-0.8,4.7c0.3,1.1,0.7,2.2,1.3,3.2c0.2,0.3,0.5,0.5,0.9,0.5c0.6,0,1-0.4,1.1-0.9c0-0.2,0-0.4-0.2-0.6l0,0
					c-0.5-0.8-0.9-1.7-1.1-2.6c-0.2-1.2,0.1-2.4,0.7-3.4c0.6-1.3,1-2.6,1.4-3.9c0.3-1.5,0.3-3,0.1-4.4c-0.2-1.4-0.2-2,0.2-2.4
					l0.2-0.2c2.6-2.3,4.5-5.2,5.5-8.4c0.7-2.6,0.8-5.3,0.1-7.9c-0.6-2.1-1.5-4.1-2.6-6c2.5,2.9,4.6,6.1,6.4,9.4
					c-0.6,0.4-1.1,0.9-1.5,1.5c-0.4,0.4-0.3,1.1,0.2,1.5s1.1,0.3,1.5-0.2l0,0c1.4-1.8,2.3-1.8,4.8-1.6c0.7,0,1.4,0.1,2.3,0.1
					s1.6,0,2.3-0.1c2.5-0.1,3.4-0.1,4.8,1.6c0.3,0.4,1,0.5,1.4,0.2c0,0,0,0,0.1,0l0,0c0.4-0.3,0.5-1,0.2-1.4c0,0,0,0,0-0.1l0,0
					c-0.4-0.6-0.9-1-1.5-1.5c1.8-3.4,4-6.6,6.5-9.5c-1.2,1.9-2.1,3.9-2.6,6c-0.7,2.6-0.6,5.3,0.1,7.9c1,3.3,2.9,6.2,5.5,8.4l0.2,0.2
					c0.4,0.4,0.4,1,0.2,2.4c-0.3,1.5-0.3,3,0,4.4c0.3,1.3,0.8,2.7,1.4,3.9c0.6,1,0.9,2.2,0.7,3.4c-1,3.4-3.5,6.1-6.8,7.4
					c-3.9,1.7-8.1,2.5-12.4,2.5c-3.9,0.1-7.8-0.6-11.4-2c-0.5-0.2-1.1,0-1.3,0.6c-0.2,0.5,0,1.1,0.6,1.3c3.9,1.5,8,2.2,12.2,2.2
					c4.6,0.1,9.1-0.8,13.3-2.7c3.9-1.5,6.8-4.8,7.9-8.7c0.3-1.6,0-3.3-0.8-4.7c-0.5-1.1-0.9-2.3-1.3-3.6c-0.2-1.2-0.2-2.5,0-3.7
					c0.1-0.8,0.2-1.5,0.1-2.3c1.5-4.5,2.3-9.2,2.3-13.9C84.7,44.8,84.2,38.4,81.3,36.9L81.3,36.9z M45.1,61.4
					c-1-3.8-1.5-7.7-1.6-11.7c-0.2-6.8,0.8-10.1,1.9-10.9C52.1,47.1,52,54.9,45.1,61.4z M82.4,49.8c-0.1,3.9-0.7,7.9-1.6,11.7
					c-6.9-6.6-6.9-14.4-0.3-22.6C81.6,39.7,82.7,43,82.4,49.8L82.4,49.8z"/>
				<path id="Path_265" class="st1" d="M70.2,66.2c-1.2,0-2.2-1-2.2-2.2c0-1.2,1-2.2,2.2-2.2c1.2,0,2.2,1,2.2,2.2c0,0,0,0,0,0l0,0
					C72.4,65.3,71.4,66.2,70.2,66.2z"/>
				<path id="Path_266" class="st1" d="M71.2,64.1c0-0.6-0.4-1-1-1l0,0c-0.6,0-1,0.5-1,1c0,0.6,0.5,1,1,1
					C70.8,65.2,71.2,64.7,71.2,64.1C71.2,64.1,71.2,64.1,71.2,64.1z"/>
				<circle id="Ellipse_40" class="st1" cx="55.7" cy="64.1" r="2.2"/>
				<path id="Path_267" class="st1" d="M56.7,64.1c0-0.6-0.4-1-1-1l0,0c-0.6,0-1,0.4-1,1c0,0.6,0.4,1,1,1S56.7,64.6,56.7,64.1z"/>
				<circle id="Ellipse_41" class="st1" cx="47.1" cy="84" r="2.2"/>
				<path id="Path_268" class="st1" d="M47.1,83L47.1,83c-0.6,0-1,0.4-1,1c0,0.6,0.4,1,1,1c0.6,0,1-0.5,1-1
					C48.1,83.4,47.7,82.9,47.1,83L47.1,83z"/>
			</g>
		</g>
		<g id="Group_197">
			<g id="Group_196">
				<path id="Path_269" class="st0" d="M52.5,75.9c0.2,1.1,1.2,1.9,2.5,2.9c0.4,0.3,0.8,0.6,1.2,0.9c0.9,0.7,2,1.3,3.1,1.5v0.7
					c0,2,1.6,3.7,3.7,3.7c2,0,3.7-1.6,3.7-3.7v-0.7c1.1-0.2,2.2-0.7,3.1-1.5c0.4-0.3,0.8-0.6,1.1-0.9c1.4-1,2.4-1.8,2.5-2.9
					c0.1-1.2,0-2.4-0.4-3.5c-0.8-2.1-2.3-3.8-4.2-4.9l0,0c-1.5-0.6-2.5-2-2.7-3.7c-0.1-1.7-1.6-3-3.3-2.9c-1.6,0.1-2.8,1.4-2.9,2.9
					l0,0c-0.1,1.6-1.2,3-2.7,3.7l0,0c-1.9,1.1-3.4,2.8-4.2,4.9C52.5,73.5,52.4,74.7,52.5,75.9L52.5,75.9z M63,83.4
					c-0.9,0-1.6-0.7-1.6-1.6c0,0,0,0,0,0V81c0.7-0.9,1.9-1.1,2.8-0.4c0,0,0,0,0,0c0.1,0.1,0.3,0.2,0.4,0.4v0.8
					C64.6,82.7,63.8,83.4,63,83.4L63,83.4z M63,74.9c-1,0-1.9-0.7-2.1-1.8c0-0.7,1.3-0.8,2.1-0.8s2.1,0.2,2.1,0.8
					C64.9,74.1,64,74.8,63,74.9z M58.2,69.2c2.2-1,3.6-3.1,3.7-5.4c0-0.6,0.5-1,1-1s1,0.5,1,1l0,0l0,0c0.1,2.4,1.6,4.5,3.7,5.4
					c2.4,1.2,3.9,3.7,3.7,6.3c-0.1,0.3-1,1-1.7,1.5L68.5,78c-1.2,1.3-3.1,1.4-4.5,0.3v-1.6c1.7-0.4,3-1.9,3.1-3.7
					c0-1.4-1.1-2.9-4.2-2.9c-3.1,0-4.2,1.5-4.2,2.9c0.1,1.8,1.4,3.3,3.1,3.7v1.6c-1.4,1.1-3.3,0.9-4.5-0.3c-0.4-0.3-0.8-0.6-1.2-0.9
					c-0.6-0.4-1.2-0.9-1.7-1.5C54.3,72.9,55.8,70.4,58.2,69.2z"/>
				<path id="Path_270" class="st0" d="M81.3,36.9c-1.6-0.8-3.6-0.2-5.8,2.1c-2.8,3.2-5.3,6.7-7.2,10.5c-1-0.2-2.1-0.2-3.1-0.1
					c-0.7,0-1.4,0.1-2.2,0.1s-1.6,0-2.2-0.1c-1-0.1-2.1-0.1-3.1,0.1c-2-3.8-4.4-7.3-7.2-10.4c-2.2-2.2-4.1-2.9-5.8-2
					c-3,1.5-3.4,7.9-3.2,13c0,4.7,0.8,9.3,2.3,13.8c-0.1,0.8,0,1.5,0.1,2.3c0.2,1.2,0.2,2.5,0,3.7c-0.3,1.2-0.7,2.4-1.3,3.6
					c-0.8,1.4-1.1,3.1-0.8,4.7c0.3,1.1,0.7,2.2,1.3,3.2c0.3,0.5,0.9,0.6,1.4,0.4c0,0,0,0,0.1,0c0.5-0.3,0.6-0.9,0.4-1.4
					c0,0,0,0,0-0.1c-0.5-0.8-0.8-1.7-1.1-2.6c-0.2-1.2,0.1-2.4,0.7-3.4c0.6-1.3,1-2.6,1.4-3.9c0.3-1.5,0.3-3,0.1-4.4
					c-0.2-1.4-0.2-2,0.2-2.4l0.2-0.2c2.6-2.3,4.5-5.2,5.5-8.4c0.7-2.6,0.8-5.3,0.1-7.9c-0.6-2.1-1.5-4.1-2.6-6
					c2.5,2.9,4.6,6.1,6.4,9.5c-0.6,0.4-1.1,0.9-1.5,1.5c-0.4,0.4-0.3,1.1,0.1,1.4c0,0,0,0,0.1,0c0.4,0.4,1.1,0.3,1.4-0.1
					c0,0,0,0,0,0c1.4-1.8,2.3-1.8,4.8-1.6c0.7,0,1.4,0.1,2.3,0.1s1.6,0,2.3-0.1c2.5-0.1,3.4-0.2,4.8,1.6c0.3,0.4,1,0.5,1.4,0.2
					c0,0,0,0,0.1,0l0,0c0.4-0.3,0.5-1,0.2-1.4c0,0,0,0,0-0.1l0,0c-0.4-0.6-0.9-1.1-1.5-1.5c1.8-3.4,4-6.6,6.5-9.5
					c-1.2,1.9-2.1,3.9-2.6,6c-0.7,2.6-0.6,5.3,0.1,7.9c1,3.3,2.9,6.2,5.5,8.4l0.2,0.2c0.4,0.4,0.4,1,0.2,2.4c-0.3,1.5-0.3,3,0,4.4
					c0.3,1.3,0.8,2.7,1.4,3.9c0.6,1,0.9,2.2,0.7,3.4c-1,3.4-3.5,6.1-6.8,7.4c-3.9,1.7-8.1,2.5-12.4,2.5c-3.9,0.1-7.8-0.6-11.4-2
					c-0.5-0.2-1.1,0-1.3,0.6c-0.2,0.5,0,1.1,0.6,1.3c3.9,1.5,8,2.2,12.2,2.2c4.6,0.1,9.1-0.8,13.3-2.7c3.9-1.5,6.8-4.8,7.9-8.7
					c0.3-1.6,0-3.3-0.8-4.7c-0.5-1.1-0.9-2.3-1.3-3.6c-0.2-1.2-0.2-2.5,0-3.7c0.1-0.8,0.2-1.5,0.1-2.3c1.5-4.5,2.3-9.2,2.3-13.9
					C84.7,44.8,84.2,38.4,81.3,36.9L81.3,36.9z M45.1,61.4c-1-3.8-1.5-7.7-1.6-11.7c-0.2-6.8,0.8-10.1,1.9-10.9
					C52.1,47.1,52,54.9,45.1,61.4z M82.4,49.8c-0.1,3.9-0.7,7.9-1.6,11.7c-6.9-6.6-6.9-14.4-0.3-22.6C81.6,39.7,82.7,43,82.4,49.8
					L82.4,49.8z"/>
				<path id="Path_271" class="st0" d="M71.2,64.1c0-0.6-0.4-1-1-1l0,0c-0.6,0-1,0.4-1,1c0,0.6,0.4,1,1,1
					C70.8,65.1,71.2,64.6,71.2,64.1z"/>
				<path id="Path_272" class="st0" d="M56.7,64.1c0-0.6-0.4-1-1-1l0,0c-0.6,0-1,0.4-1,1c0,0.6,0.5,1,1,1S56.8,64.6,56.7,64.1
					L56.7,64.1z"/>
				<path id="Path_273" class="st0" d="M47.1,83L47.1,83c-0.6,0-1,0.4-1,1c0,0.6,0.4,1,1,1s1-0.4,1-1C48.1,83.4,47.7,83,47.1,83z"/>
			</g>
		</g>
	</g>
</g>
</svg>
